<svg xmlns="http://www.w3.org/2000/svg" width="16.983" height="14.818" viewBox="0 0 16.983 14.818">
  <g id="customer" transform="translate(0 0)">
    <ellipse id="Ellipse_43" data-name="Ellipse 43" cx="2.886" cy="2.886" rx="2.886" ry="2.886" transform="translate(5.606 0)" fill="#fff"/>
    <ellipse id="Ellipse_44" data-name="Ellipse 44" cx="1.824" cy="1.824" rx="1.824" ry="1.824" transform="translate(12.505 2.123)" fill="#fff"/>
    <ellipse id="Ellipse_45" data-name="Ellipse 45" cx="1.824" cy="1.824" rx="1.824" ry="1.824" transform="translate(0.829 2.123)" fill="#fff"/>
    <path id="Path_194" data-name="Path 194" d="M4.451.514A2.95,2.95,0,0,0,2.252,0,2.248,2.248,0,0,0,0,2.242V5.865a.975.975,0,0,0,.976.972c2.323,0,2.043.042,2.043-.1C3.018,4.169,2.714,2.287,4.451.514Z" transform="translate(0 6.896)" fill="#fff"/>
    <path id="Path_195" data-name="Path 195" d="M5.295.039a4.924,4.924,0,0,0-3.8.9C-.323,2.4.027,4.358.027,6.759A1.164,1.164,0,0,0,1.189,7.92c7,0,7.28.226,7.7-.694.136-.311.1-.212.1-3.187A4.021,4.021,0,0,0,5.295.039Z" transform="translate(3.987 6.873)" fill="#fff"/>
    <path id="Path_196" data-name="Path 196" d="M2.2,0A2.948,2.948,0,0,0,0,.514c1.724,1.76,1.433,3.514,1.433,6.222,0,.143-.232.1,2.008.1A1.009,1.009,0,0,0,4.451,5.83V2.242A2.248,2.248,0,0,0,2.2,0Z" transform="translate(12.532 6.896)" fill="#fff"/>
  </g>
</svg>
