<svg xmlns="http://www.w3.org/2000/svg" width="20" height="16" viewBox="0 0 20 16">
  <path id="medium" d="M18.4,4.38,20,2.838V2.5H14.472l-3.94,9.91L6.049,2.5H.253v.338L2.117,5.105a.8.8,0,0,1,.252.659v8.912a1.023,1.023,0,0,1-.269.884L0,18.133v.333H5.954v-.338l-2.1-2.568a1.055,1.055,0,0,1-.289-.884V6.968l5.227,11.5H9.4l4.494-11.5v9.163c0,.242,0,.291-.157.45L12.12,18.161V18.5h7.843v-.338L18.405,16.62a.471.471,0,0,1-.178-.45V4.83a.469.469,0,0,1,.177-.45Z" transform="translate(0 -2.5)" fill="#fff"/>
</svg>
