<svg xmlns="http://www.w3.org/2000/svg" width="13.75" height="19.999" viewBox="0 0 13.75 19.999">
  <path id="Union_6" data-name="Union 6" d="M-8373.686,7531.124v-16.25a1.877,1.877,0,0,1,1.877-1.875,1.875,1.875,0,0,1,1.875,1.875v16.25a1.875,1.875,0,0,1-1.875,1.875A1.877,1.877,0,0,1-8373.686,7531.124Zm-10,0v-16.25a1.875,1.875,0,0,1,1.875-1.875,1.874,1.874,0,0,1,1.874,1.875v16.25a1.874,1.874,0,0,1-1.874,1.875A1.875,1.875,0,0,1-8383.684,7531.124Z" transform="translate(8383.684 -7513)" fill="#98b9f4"/>
</svg>
