<svg xmlns="http://www.w3.org/2000/svg" width="20" height="17.143" viewBox="0 0 20 17.143">
  <g id="twitter" transform="translate(0 0)">
    <g id="Group_49" data-name="Group 49">
      <path id="Path_125" data-name="Path 125" d="M20,50.029a8.2,8.2,0,0,1-2.363.683,4.268,4.268,0,0,0,1.8-2.391,7.94,7.94,0,0,1-2.6,1.047A4.012,4.012,0,0,0,13.846,48a4.216,4.216,0,0,0-4.1,4.327,4.69,4.69,0,0,0,.1.986,11.418,11.418,0,0,1-8.451-4.524,4.539,4.539,0,0,0-.561,2.186A4.4,4.4,0,0,0,2.652,54.57,3.889,3.889,0,0,1,.8,54.037v.047a4.3,4.3,0,0,0,3.285,4.25,3.891,3.891,0,0,1-1.075.142,3.442,3.442,0,0,1-.776-.074,4.174,4.174,0,0,0,3.831,3.013A7.97,7.97,0,0,1,.981,63.261,7.284,7.284,0,0,1,0,63.2a11.111,11.111,0,0,0,6.29,1.941c7.545,0,11.67-6.593,11.67-12.309,0-.191-.006-.376-.015-.559A8.442,8.442,0,0,0,20,50.029Z" transform="translate(0 -48)" fill="#fff"/>
    </g>
  </g>
</svg>
