<svg xmlns="http://www.w3.org/2000/svg" width="22.337" height="16.315" viewBox="0 0 22.337 16.315">
  <g id="verified-user" transform="translate(0 0)">
    <path id="Path_207" data-name="Path 207" d="M7.139,8.45A4.225,4.225,0,1,0,2.914,4.225,4.225,4.225,0,0,0,7.139,8.45ZM9.184,5.892A2.01,2.01,0,0,1,7.181,7a2.01,2.01,0,0,1-2-1.113Zm7.695,7.137L13.013,16.25a.3.3,0,0,1-.393-.018L10.7,14.307a.292.292,0,0,1,0-.412l.412-.412a.292.292,0,0,1,.412,0l1.36,1.36,3.252-2.71a.292.292,0,0,1,.41.037l.373.448A.292.292,0,0,1,16.878,13.028Zm-6.636,1.732.733.733a27.589,27.589,0,0,1-3.837.241c-4.074,0-6.067-.666-6.8-.991A.631.631,0,0,1,0,14.213V12.821a4.092,4.092,0,0,1,3.617-4.05.338.338,0,0,1,.2.056,5.637,5.637,0,0,0,6.638,0,.338.338,0,0,1,.2-.056,4.092,4.092,0,0,1,3.617,4.05v.024l-1.358,1.132-.946-.946a.932.932,0,0,0-1.319,0l-.412.412A.933.933,0,0,0,10.242,14.761Z" transform="translate(5.354 0)" fill="#fff"/>
    <path id="Path_208" data-name="Path 208" d="M5.354,6.338A3.169,3.169,0,1,0,2.185,3.169,3.169,3.169,0,0,0,5.354,6.338ZM6.888,4.419a1.508,1.508,0,0,1-1.5.835,1.508,1.508,0,0,1-1.5-.835Zm.794,6.652.55.55a20.691,20.691,0,0,1-2.877.181,12.962,12.962,0,0,1-5.1-.743A.473.473,0,0,1,0,10.66V9.616A3.069,3.069,0,0,1,2.712,6.578a.253.253,0,0,1,.152.042,4.228,4.228,0,0,0,4.979,0A.253.253,0,0,1,8,6.578a3.069,3.069,0,0,1,2.712,3.038v.018l-1.019.849-.71-.71a.7.7,0,0,0-.989,0l-.309.309A.7.7,0,0,0,7.682,11.07Z" transform="translate(0 1.55)" fill="#fff"/>
  </g>
</svg>
