<svg xmlns="http://www.w3.org/2000/svg" xmlns:xlink="http://www.w3.org/1999/xlink" width="325.157" height="481.475" viewBox="0 0 325.157 481.475">
  <defs>
    <filter id="Union_1" x="0" y="0" width="325.157" height="481.475" filterUnits="userSpaceOnUse">
      <feOffset dy="20" input="SourceAlpha"/>
      <feGaussianBlur stdDeviation="8.5" result="blur"/>
      <feFlood flood-color="#1c1923" flood-opacity="0.031"/>
      <feComposite operator="in" in2="blur"/>
      <feComposite in="SourceGraphic"/>
    </filter>
  </defs>
  <g transform="matrix(1, 0, 0, 1, 0, 0)" filter="url(#Union_1)">
    <g id="Union_1-2" data-name="Union 1" transform="matrix(1, 0.07, -0.07, 1, 55.04, -3.67)" fill="#09090b">
      <path d="M 225.8541107177734 423.0292053222656 L 19.99979782104492 423.0292053222656 C 17.36711502075195 423.0292053222656 14.8134298324585 422.5137329101562 12.40969276428223 421.4970397949219 C 10.08774566650391 420.5149536132812 8.002325057983398 419.10888671875 6.211324691772461 417.3179016113281 C 4.420324802398682 415.5268859863281 3.014271974563599 413.4414672851562 2.032166719436646 411.1195068359375 C 1.015482544898987 408.7157897949219 0.5000088214874268 406.162109375 0.5000088214874268 403.5294189453125 L 0.5000088214874268 29.19599533081055 C 0.5000088214874268 26.56325912475586 1.015482544898987 24.00957489013672 2.032166719436646 21.60578536987305 C 3.014271974563599 19.2836799621582 4.420377254486084 17.19815444946289 6.211324691772461 15.40704822540283 C 8.002325057983398 13.61594295501709 10.08774566650391 12.20978546142578 12.40974521636963 11.22762775421143 C 14.8134298324585 10.21083831787109 17.36711502075195 9.695311546325684 19.99979782104492 9.695311546325684 L 225.8541107177734 9.695311546325684 C 228.4868011474609 9.695311546325684 231.0404815673828 10.21083831787109 233.4441680908203 11.22762775421143 C 235.7661743164062 12.20978546142578 237.8515930175781 13.61594295501709 239.6425933837891 15.40704822540283 C 241.4335327148438 17.19815444946289 242.8396453857422 19.2836799621582 243.8217468261719 21.60578536987305 C 244.8384246826172 24.00957489013672 245.3538970947266 26.56325912475586 245.3538970947266 29.19599533081055 L 245.3538970947266 403.5294189453125 C 245.3538970947266 406.162109375 244.8384246826172 408.7157897949219 243.8217468261719 411.1195068359375 C 242.8396453857422 413.4414672851562 241.43359375 415.5268859863281 239.6425933837891 417.3179016113281 C 237.8515930175781 419.10888671875 235.7661743164062 420.5149536132812 233.4442138671875 421.4970397949219 C 231.0404815673828 422.5137329101562 228.4868011474609 423.0292053222656 225.8541107177734 423.0292053222656 Z" stroke="none"/>
      <path d="M 225.8541107177734 422.5292053222656 C 228.4195404052734 422.5292053222656 230.9076995849609 422.0270080566406 233.2494354248047 421.0365295410156 C 235.5117950439453 420.0796203613281 237.5437927246094 418.7095642089844 239.2890014648438 416.9643249511719 C 241.0342712402344 415.2191162109375 242.4043273925781 413.1871032714844 243.3612213134766 410.9247436523438 C 244.3516998291016 408.5830078125 244.8538970947266 406.0948486328125 244.8538970947266 403.5294189453125 L 244.8538970947266 29.19599533081055 C 244.8538970947266 26.63057518005371 244.3516998291016 24.14236450195312 243.3612213134766 21.80052185058594 C 242.4043273925781 19.53804779052734 241.0342254638672 17.50594329833984 239.2890014648438 15.76062774658203 C 237.5437927246094 14.0152587890625 235.5117492675781 12.64510059356689 233.2493743896484 11.68810081481934 C 230.9076385498047 10.69757461547852 228.4195404052734 10.19531154632568 225.8541107177734 10.19531154632568 L 19.99979782104492 10.19531154632568 C 17.43437767028809 10.19531154632568 14.9462718963623 10.69757461547852 12.60453510284424 11.68810081481934 C 10.34216690063477 12.64510059356689 8.310113906860352 14.0152587890625 6.564903736114502 15.76062774658203 C 4.819693088531494 17.50594329833984 3.449587821960449 19.53804779052734 2.492692947387695 21.80052185058594 C 1.502219319343567 24.14236450195312 1.000008821487427 26.63057518005371 1.000008821487427 29.19599533081055 L 1.000008821487427 403.5294189453125 C 1.000008821487427 406.0948486328125 1.502219319343567 408.5830078125 2.492692947387695 410.9247436523438 C 3.449587821960449 413.1871032714844 4.819640159606934 415.2191162109375 6.564903736114502 416.9643249511719 C 8.310113906860352 418.7095642089844 10.34211444854736 420.0796203613281 12.60448265075684 421.0365295410156 C 14.9462194442749 422.0270080566406 17.43437767028809 422.5292053222656 19.99979782104492 422.5292053222656 L 225.8541107177734 422.5292053222656 M 225.8541107177734 423.5292053222656 L 19.99979782104492 423.5292053222656 C 8.954113960266113 423.5292053222656 8.808337042864878e-06 414.5751037597656 8.808337042864878e-06 403.5294189453125 L 8.808337042864878e-06 29.19599533081055 C 8.808337042864878e-06 18.15031242370605 8.954113960266113 9.195311546325684 19.99979782104492 9.195311546325684 L 225.8541107177734 9.195311546325684 C 236.8997955322266 9.195311546325684 245.8538970947266 18.15031242370605 245.8538970947266 29.19599533081055 L 245.8538970947266 403.5294189453125 C 245.8538970947266 414.5751037597656 236.8997955322266 423.5292053222656 225.8541107177734 423.5292053222656 Z" stroke="none" fill="#26232d"/>
    </g>
  </g>
</svg>
