<svg xmlns="http://www.w3.org/2000/svg" viewBox="0 0 149.49 31.96"><defs><style>.cls-1,.cls-2{fill:#fff;}.cls-2{font-size:19.96px;font-family:Poppins-SemiBold, Poppins;font-weight:600;}</style></defs><title>Asset 2 white</title><g id="Layer_2" data-name="Layer 2"><g id="Layer_1-2" data-name="Layer 1"><path class="cls-1" d="M20.55,14.81h-.23l-.31,0h0a3.11,3.11,0,0,0-2.07,1h0a5.3,5.3,0,0,1-.51.73h0a6.32,6.32,0,0,1-4.9,2.33,6.32,6.32,0,1,1,5-10.24h0l.11.14h0l.13.19a2.43,2.43,0,0,1,.14.2A3.07,3.07,0,0,0,20,10.2h.54A3.13,3.13,0,0,0,23,5.66a2.91,2.91,0,0,0-.52-.74,12.16,12.16,0,0,0-2.16-2.2A12.51,12.51,0,1,0,12.51,25a12.43,12.43,0,0,0,8-2.93,11.87,11.87,0,0,0,2.06-2.19l.25-.36h0a3.06,3.06,0,0,0,.45-1.62A3.13,3.13,0,0,0,20.55,14.81Z"/><path class="cls-1" d="M28.13,7.83a4.68,4.68,0,0,0-3.5,1.56c-.1.13-.21.26-.31.4l0,0c-.06.11-.13.21-.19.3h0a4.65,4.65,0,0,1-1.66,1.42,4.7,4.7,0,0,1-1.91.5h-.42a4.42,4.42,0,0,1-1.32-.25,3.87,3.87,0,0,1-.59-.25,4.79,4.79,0,0,1-1.67-1.43,3.26,3.26,0,0,0-.22-.34,4.67,4.67,0,1,0-.14,5.62h0a4.81,4.81,0,0,1,.4-.6h0a4.76,4.76,0,0,1,1.64-1.31,4.9,4.9,0,0,1,2.1-.48,5,5,0,0,1,2.11.48,4.71,4.71,0,0,1,1.62,1.31s0,0,0,0a4.63,4.63,0,0,1,.39.59h0l.17.21a4.67,4.67,0,1,0,3.49-7.78Z"/><text class="cls-2" transform="translate(42.19 20.13)">Coin Profit</text></g></g></svg>