<svg xmlns="http://www.w3.org/2000/svg" xmlns:xlink="http://www.w3.org/1999/xlink" viewBox="0 0 155.04 34.64"><defs><style>.cls-1{fill:url(#linear-gradient);}.cls-2{fill:url(#linear-gradient-2);}.cls-3{font-size:20.3px;fill:#2b89ef;font-family:Poppins-SemiBold, Poppins;font-weight:600;}.cls-4{fill:none;}</style><linearGradient id="linear-gradient" x1="5.41" y1="22.34" x2="26.02" y2="7.36" gradientUnits="userSpaceOnUse"><stop offset="0" stop-color="#1abbfb"/><stop offset="1" stop-color="#2b89ef"/></linearGradient><linearGradient id="linear-gradient-2" x1="14.61" y1="21.41" x2="32.69" y2="8.27" xlink:href="#linear-gradient"/></defs><title>Asset 2</title><g id="Layer_2" data-name="Layer 2"><g id="Layer_1-2" data-name="Layer 1"><path class="cls-1" d="M23.88,17.19h0l-.23,0a1.66,1.66,0,0,1-.32,0h0a3.18,3.18,0,0,0-2.11,1h0a6.53,6.53,0,0,1-.52.74h0a6.29,6.29,0,0,1-1.8,1.53,6.43,6.43,0,1,1,1.85-9.57h0a1.71,1.71,0,0,1,.11.14h0l.14.2.13.2a3.11,3.11,0,0,0,2.2,1.08h.19l.36,0a3.19,3.19,0,0,0,2.48-4.6,3.08,3.08,0,0,0-.53-.75A12.73,12.73,0,1,0,15.71,27.59a12.64,12.64,0,0,0,8.17-3A12.34,12.34,0,0,0,26,22.38l.25-.36v0a3,3,0,0,0,.46-1.64A3.18,3.18,0,0,0,23.88,17.19Z"/><path class="cls-2" d="M31.59,10.09A4.77,4.77,0,0,0,28,11.68c-.11.13-.22.27-.32.41l0,0a3.28,3.28,0,0,1-.2.31h0a4.8,4.8,0,0,1-1.69,1.44,4.65,4.65,0,0,1-1.94.51h-.43a4.55,4.55,0,0,1-1.34-.26,4.47,4.47,0,0,1-.6-.25,4.64,4.64,0,0,1-1.69-1.45c-.07-.12-.15-.24-.23-.35a4.75,4.75,0,1,0-.14,5.71h0a5,5,0,0,1,.41-.61h0a4.77,4.77,0,0,1,1.66-1.32,4.17,4.17,0,0,1,.58-.24,4.72,4.72,0,0,1,1.56-.25,4.81,4.81,0,0,1,2.14.49,4.73,4.73,0,0,1,1.65,1.32l0,0a4.07,4.07,0,0,1,.4.59h0A1.73,1.73,0,0,0,28,18a4.75,4.75,0,1,0,3.55-7.91Z"/><text class="cls-3" transform="translate(45.89 22.6)">Coin Profit</text><line class="cls-4" x2="150.98"/><line class="cls-4" y1="29.72" x2="150.98" y2="29.72"/><line class="cls-4" x1="36.34" x2="36.34" y2="29.72"/><line class="cls-4" x1="44.83" x2="44.83" y2="29.72"/></g></g></svg>