<svg xmlns="http://www.w3.org/2000/svg" xmlns:xlink="http://www.w3.org/1999/xlink" width="204.037" height="90.652" viewBox="0 0 204.037 90.652">
  <defs>
    <clipPath id="clip-path">
      <rect id="Rectangle_1341" data-name="Rectangle 1341" width="204.037" height="90.652" fill="none"/>
    </clipPath>
    <clipPath id="clip-path-3">
      <rect id="Rectangle_1334" data-name="Rectangle 1334" width="115.961" height="67.065" fill="none"/>
    </clipPath>
    <clipPath id="clip-path-4">
      <path id="Path_5140" data-name="Path 5140" d="M167.755,111.991h28.638l87.323-50.416L255.078,44.926Z" transform="translate(-167.755 -44.926)" fill="none"/>
    </clipPath>
    <linearGradient id="linear-gradient" x1="-0.76" y1="1" x2="-0.755" y2="1" gradientUnits="objectBoundingBox">
      <stop offset="0" stop-color="#d1d7f3"/>
      <stop offset="0.304" stop-color="#dadff5"/>
      <stop offset="0.806" stop-color="#f3f4fb"/>
      <stop offset="1" stop-color="#fff"/>
    </linearGradient>
    <clipPath id="clip-path-6">
      <rect id="Rectangle_1337" data-name="Rectangle 1337" width="67.019" height="19.658" fill="none"/>
    </clipPath>
    <clipPath id="clip-path-7">
      <path id="Path_5192" data-name="Path 5192" d="M103.576,0H53.584L70.609,9.827,53.584,19.658h49.992L120.6,9.827Z" transform="translate(-53.584)" fill="none"/>
    </clipPath>
    <linearGradient id="linear-gradient-2" x1="-0.42" y1="4.611" x2="-0.412" y2="4.611" gradientUnits="objectBoundingBox">
      <stop offset="0" stop-color="#c4c9e5"/>
      <stop offset="0.241" stop-color="#dcdfef"/>
      <stop offset="0.539" stop-color="#f5f6fa"/>
      <stop offset="0.719" stop-color="#fff"/>
      <stop offset="1" stop-color="#fff"/>
    </linearGradient>
    <clipPath id="clip-path-8">
      <rect id="Rectangle_1339" data-name="Rectangle 1339" width="64.145" height="19.659" fill="none"/>
    </clipPath>
    <clipPath id="clip-path-9">
      <path id="Path_5193" data-name="Path 5193" d="M47.121,37.438H0l17.023,9.831L0,57.1H47.121l17.023-9.828Z" transform="translate(0 -37.438)" fill="none"/>
    </clipPath>
    <linearGradient id="linear-gradient-3" x1="0" y1="3.611" x2="0.008" y2="3.611" xlink:href="#linear-gradient-2"/>
  </defs>
  <g id="Group_5555" data-name="Group 5555" clip-path="url(#clip-path)">
    <g id="Group_5542" data-name="Group 5542">
      <g id="Group_5541" data-name="Group 5541" clip-path="url(#clip-path)">
        <g id="Group_5540" data-name="Group 5540" transform="translate(88.076 23.587)" style="mix-blend-mode: multiply;isolation: isolate">
          <g id="Group_5539" data-name="Group 5539">
            <g id="Group_5538" data-name="Group 5538" clip-path="url(#clip-path-3)">
              <g id="Group_5537" data-name="Group 5537">
                <g id="Group_5536" data-name="Group 5536" clip-path="url(#clip-path-4)">
                  <rect id="Rectangle_1333" data-name="Rectangle 1333" width="115.961" height="67.065" transform="translate(0)" fill="url(#linear-gradient)"/>
                </g>
              </g>
            </g>
          </g>
        </g>
      </g>
    </g>
    <path id="Path_5141" data-name="Path 5141" d="M219,24.094,131.673,74.51,91.788,51.482,179.111,1.066Z" transform="translate(-43.597 -0.507)" fill="#f6f6fb"/>
    <g id="Group_5554" data-name="Group 5554">
      <g id="Group_5553" data-name="Group 5553" clip-path="url(#clip-path)">
        <path id="Path_5142" data-name="Path 5142" d="M91.788,51.482l39.885,23.028L219,24.094,179.111,1.066ZM171.666,6.775a16.456,16.456,0,0,0,14.889,0L209.107,19.8c-4.111,2.374-4.111,6.222,0,8.6L139.118,68.8a16.455,16.455,0,0,0-14.889,0L101.677,55.78c4.111-2.374,4.111-6.222,0-8.6Z" transform="translate(-43.597 -0.506)" fill="#807dfb"/>
        <path id="Path_5143" data-name="Path 5143" d="M178.745,68.59c-8.283-4.782-8.283-12.536,0-17.319s21.713-4.782,30,0,8.283,12.536,0,17.319-21.713,4.782-30,0" transform="translate(-81.948 -22.649)" fill="#807dfb"/>
        <path id="Path_5144" data-name="Path 5144" d="M206.774,64.862a2.427,2.427,0,0,0-1.31-2.567.286.286,0,0,0-.045-.03c-.08-.053-1.06-.626-1.146-.676a8.494,8.494,0,0,0-7.682-.076c-2.085,1.2-2.024,3.19.133,4.435l1.207.7.015-.009a8.629,8.629,0,0,0,4.446.754c-1.323.88-4.464,4.814,1.3,6.847l14.942-8.627c-3.894-3.253-10.353-1.509-11.859-.749" transform="translate(-92.651 -28.799)" fill="#f6f6fb"/>
        <path id="Path_5145" data-name="Path 5145" d="M147.063,92.793c-3.408,1.968-3.408,5.158,0,7.127a13.643,13.643,0,0,0,12.344,0c3.409-1.968,3.409-5.159,0-7.127a13.64,13.64,0,0,0-12.344,0m9.659,5.576a7.708,7.708,0,0,1-6.974,0c-1.925-1.112-1.925-2.914,0-4.026a7.706,7.706,0,0,1,6.974,0c1.926,1.112,1.926,2.914,0,4.026" transform="translate(-68.637 -43.373)" fill="#807dfb"/>
        <path id="Path_5146" data-name="Path 5146" d="M263.007,32.98a13.643,13.643,0,0,0-12.344,0c-3.408,1.968-3.408,5.159,0,7.127a13.643,13.643,0,0,0,12.344,0c3.409-1.968,3.409-5.159,0-7.127" transform="translate(-117.844 -14.964)" fill="#bbc0e6"/>
        <path id="Path_5147" data-name="Path 5147" d="M159.979,109.667l16.31-9.417,1.63.941-16.31,9.417Z" transform="translate(-75.986 -47.616)" fill="#ced3f8"/>
        <path id="Path_5148" data-name="Path 5148" d="M121.492,85.871l13.582-7.841.637.368-13.582,7.842Z" transform="translate(-57.705 -37.062)" fill="#807dfb"/>
        <path id="Path_5149" data-name="Path 5149" d="M124,87.32l13.582-7.841.637.368-13.582,7.841Z" transform="translate(-58.897 -37.75)" fill="#807dfb"/>
        <path id="Path_5150" data-name="Path 5150" d="M114.6,53.481l67.975-39.245,1.629.941L116.227,54.422Z" transform="translate(-54.431 -6.762)" fill="#807dfb"/>
        <path id="Path_5151" data-name="Path 5151" d="M231.771,31.488l16.31-9.417,1.629.941L233.4,32.429Z" transform="translate(-110.085 -10.483)" fill="#807dfb"/>
        <path id="Path_5152" data-name="Path 5152" d="M130.26,99.36l-5.158,2.978-2.978-1.719,5.158-2.978Z" transform="translate(-58.005 -46.377)" fill="#dae0f5"/>
        <path id="Path_5153" data-name="Path 5153" d="M300.433,40.979l-2.579,1.489-2.978-1.719,2.579-1.489Z" transform="translate(-140.058 -18.647)" fill="#dae0f5"/>
        <path id="Path_5154" data-name="Path 5154" d="M91.788,98.016l39.885,23.028v-.925L91.788,97.092Z" transform="translate(-43.597 -46.116)" fill="#6b67e9"/>
        <path id="Path_5155" data-name="Path 5155" d="M167.755,96.267l87.323-50.416v-.925L167.755,95.342Z" transform="translate(-79.679 -21.339)" fill="#5652cc"/>
        <path id="Path_5156" data-name="Path 5156" d="M91.788,99.778l39.885,23.028v-.925L91.788,98.853Z" transform="translate(-43.597 -46.952)" fill="#5652cc"/>
        <path id="Path_5157" data-name="Path 5157" d="M167.755,98.028l87.323-50.416v-.925L167.755,97.1Z" transform="translate(-79.679 -22.176)" fill="#423eaf"/>
        <path id="Path_5158" data-name="Path 5158" d="M91.788,101.539l39.885,23.028v-.925L91.788,100.614Z" transform="translate(-43.597 -47.789)" fill="#6b67e9"/>
        <path id="Path_5159" data-name="Path 5159" d="M167.755,99.79l87.323-50.416v-.925L167.755,98.865Z" transform="translate(-79.679 -23.012)" fill="#5652cc"/>
        <path id="Path_5160" data-name="Path 5160" d="M91.788,103.3l39.885,23.028V125.4L91.788,102.376Z" transform="translate(-43.597 -48.626)" fill="#5652cc"/>
        <path id="Path_5161" data-name="Path 5161" d="M167.755,101.551l87.323-50.416v-.925l-87.323,50.416Z" transform="translate(-79.679 -23.849)" fill="#423eaf"/>
        <path id="Path_5162" data-name="Path 5162" d="M91.788,105.061l39.885,23.028v-.925L91.788,104.137Z" transform="translate(-43.597 -49.462)" fill="#6b67e9"/>
        <path id="Path_5163" data-name="Path 5163" d="M167.755,103.312,255.078,52.9v-.925l-87.323,50.416Z" transform="translate(-79.679 -24.685)" fill="#5652cc"/>
        <path id="Path_5164" data-name="Path 5164" d="M91.788,106.823l39.885,23.028v-.925L91.788,105.9Z" transform="translate(-43.597 -50.299)" fill="#5652cc"/>
        <path id="Path_5165" data-name="Path 5165" d="M167.755,105.074l87.323-50.416v-.925l-87.323,50.416Z" transform="translate(-79.679 -25.522)" fill="#423eaf"/>
        <path id="Path_5166" data-name="Path 5166" d="M91.788,108.584l39.885,23.028v-.925L91.788,107.659Z" transform="translate(-43.597 -51.135)" fill="#6b67e9"/>
        <path id="Path_5167" data-name="Path 5167" d="M167.755,106.835l87.323-50.416v-.925L167.755,105.91Z" transform="translate(-79.679 -26.358)" fill="#5652cc"/>
        <path id="Path_5168" data-name="Path 5168" d="M91.788,110.346l39.885,23.028v-.925L91.788,109.421Z" transform="translate(-43.597 -51.972)" fill="#5652cc"/>
        <path id="Path_5169" data-name="Path 5169" d="M167.755,108.6,255.078,58.18v-.925l-87.323,50.416Z" transform="translate(-79.679 -27.195)" fill="#423eaf"/>
        <path id="Path_5170" data-name="Path 5170" d="M91.788,112.107l39.885,23.028v-.925L91.788,111.182Z" transform="translate(-43.597 -52.809)" fill="#6b67e9"/>
        <path id="Path_5171" data-name="Path 5171" d="M167.755,110.358l87.323-50.416v-.925l-87.323,50.415Z" transform="translate(-79.679 -28.032)" fill="#5652cc"/>
        <path id="Path_5172" data-name="Path 5172" d="M91.788,113.868,131.673,136.9v-.925L91.788,112.943Z" transform="translate(-43.597 -53.645)" fill="#5652cc"/>
        <path id="Path_5173" data-name="Path 5173" d="M167.755,112.119,255.078,61.7v-.925l-87.323,50.416Z" transform="translate(-79.679 -28.868)" fill="#423eaf"/>
        <path id="Path_5174" data-name="Path 5174" d="M91.788,115.63l39.885,23.028v-.925L91.788,114.705Z" transform="translate(-43.597 -54.482)" fill="#6b67e9"/>
        <path id="Path_5175" data-name="Path 5175" d="M167.755,113.88l87.323-50.416V62.54l-87.323,50.416Z" transform="translate(-79.679 -29.705)" fill="#5652cc"/>
        <path id="Path_5176" data-name="Path 5176" d="M91.788,117.391l39.885,23.028v-.925L91.788,116.466Z" transform="translate(-43.597 -55.318)" fill="#5652cc"/>
        <path id="Path_5177" data-name="Path 5177" d="M167.755,115.642l87.323-50.416V64.3l-87.323,50.416Z" transform="translate(-79.679 -30.541)" fill="#423eaf"/>
        <path id="Path_5178" data-name="Path 5178" d="M91.788,119.159l39.885,23.028v-.925L91.788,118.234Z" transform="translate(-43.597 -56.158)" fill="#6b67e9"/>
        <path id="Path_5179" data-name="Path 5179" d="M167.755,117.41l87.323-50.416v-.925l-87.323,50.416Z" transform="translate(-79.679 -31.381)" fill="#5652cc"/>
        <path id="Path_5180" data-name="Path 5180" d="M91.788,120.92l39.885,23.028v-.925L91.788,120Z" transform="translate(-43.597 -56.995)" fill="#5652cc"/>
        <path id="Path_5181" data-name="Path 5181" d="M167.755,119.171l87.323-50.416v-.925l-87.323,50.416Z" transform="translate(-79.679 -32.218)" fill="#423eaf"/>
        <path id="Path_5182" data-name="Path 5182" d="M91.788,122.681l39.885,23.028v-.925L91.788,121.757Z" transform="translate(-43.597 -57.831)" fill="#6b67e9"/>
        <path id="Path_5183" data-name="Path 5183" d="M167.755,120.932l87.323-50.416v-.925l-87.323,50.416Z" transform="translate(-79.679 -33.054)" fill="#5652cc"/>
        <path id="Path_5184" data-name="Path 5184" d="M91.788,124.443l39.885,23.028v-.925L91.788,123.518Z" transform="translate(-43.597 -58.668)" fill="#5652cc"/>
        <path id="Path_5185" data-name="Path 5185" d="M167.755,122.694l87.323-50.415v-.925l-87.323,50.416Z" transform="translate(-79.679 -33.891)" fill="#423eaf"/>
        <path id="Path_5186" data-name="Path 5186" d="M91.788,126.2l39.885,23.028v-.925L91.788,125.28Z" transform="translate(-43.597 -59.504)" fill="#6b67e9"/>
        <path id="Path_5187" data-name="Path 5187" d="M167.755,124.455l87.323-50.416v-.925L167.755,123.53Z" transform="translate(-79.679 -34.728)" fill="#5652cc"/>
        <path id="Path_5188" data-name="Path 5188" d="M91.788,127.965l39.885,23.028v-.925L91.788,127.041Z" transform="translate(-43.597 -60.341)" fill="#5652cc"/>
        <path id="Path_5189" data-name="Path 5189" d="M167.755,126.216,255.078,75.8v-.925l-87.323,50.416Z" transform="translate(-79.679 -35.564)" fill="#423eaf"/>
        <path id="Path_5190" data-name="Path 5190" d="M251.54,102.372l-13.125,7.578V93.3l13.125-7.578Z" transform="translate(-113.24 -40.716)" fill="#bbc0e6"/>
        <path id="Path_5191" data-name="Path 5191" d="M175.57,41.862l-13.125,7.578,39.886,23.029,13.125-7.578Z" transform="translate(-77.157 -19.883)" fill="#e8ecf7"/>
        <g id="Group_5547" data-name="Group 5547" transform="translate(28.133)" style="mix-blend-mode: multiply;isolation: isolate">
          <g id="Group_5546" data-name="Group 5546">
            <g id="Group_5545" data-name="Group 5545" clip-path="url(#clip-path-6)">
              <g id="Group_5544" data-name="Group 5544" transform="translate(0)">
                <g id="Group_5543" data-name="Group 5543" clip-path="url(#clip-path-7)">
                  <rect id="Rectangle_1336" data-name="Rectangle 1336" width="67.019" height="19.658" transform="translate(0)" fill="url(#linear-gradient-2)"/>
                </g>
              </g>
            </g>
          </g>
        </g>
        <g id="Group_5552" data-name="Group 5552" transform="translate(0 19.656)" style="mix-blend-mode: multiply;isolation: isolate">
          <g id="Group_5551" data-name="Group 5551">
            <g id="Group_5550" data-name="Group 5550" clip-path="url(#clip-path-8)">
              <g id="Group_5549" data-name="Group 5549">
                <g id="Group_5548" data-name="Group 5548" clip-path="url(#clip-path-9)">
                  <rect id="Rectangle_1338" data-name="Rectangle 1338" width="64.145" height="19.659" fill="url(#linear-gradient-3)"/>
                </g>
              </g>
            </g>
          </g>
        </g>
      </g>
    </g>
  </g>
</svg>
