<svg width="24" height="24" viewBox="0 0 24 24" fill="none" xmlns="http://www.w3.org/2000/svg">
<path d="M16.254 7.74601C15.1746 6.66664 13.6508 5.96823 12 5.96823C10.3492 5.96823 8.82541 6.6349 7.74604 7.74601C6.66667 8.82537 5.96826 10.3492 5.96826 12C5.96826 13.6508 6.66667 15.1746 7.74604 16.2539C8.82541 17.3333 10.3492 18.0317 12 18.0317C13.6508 18.0317 15.1746 17.3651 16.254 16.2539C17.3333 15.1746 18.0318 13.6508 18.0318 12C18.0318 10.3492 17.3651 8.82537 16.254 7.74601Z" fill="#392EEF"/>
<path d="M12 4.09523C12.4444 4.09523 12.8254 3.71428 12.8254 3.26984V0.825396C12.8254 0.380952 12.4444 0 12 0C11.5555 0 11.1746 0.380952 11.1746 0.825396V3.26984C11.1746 3.71428 11.5555 4.09523 12 4.09523Z" fill="#392EEF"/>
<path d="M18.7618 6.4127L20.5078 4.66667C20.8253 4.34921 20.8253 3.84128 20.5078 3.52382C20.1904 3.20636 19.6824 3.20636 19.365 3.52382L17.619 5.26985C17.3015 5.58731 17.3015 6.09524 17.619 6.4127C17.9047 6.73016 18.4126 6.73016 18.7618 6.4127Z" fill="#392EEF"/>
<path d="M23.1746 11.1746H20.7302C20.2857 11.1746 19.9048 11.5556 19.9048 12C19.9048 12.4444 20.2857 12.8254 20.7302 12.8254H23.1746C23.6191 12.8254 24 12.4444 24 12C24 11.5556 23.6191 11.1746 23.1746 11.1746Z" fill="#392EEF"/>
<path d="M18.7301 17.5873C18.4126 17.2698 17.9047 17.2698 17.5872 17.5873C17.2698 17.9048 17.2698 18.4127 17.5872 18.7302L19.3332 20.4762C19.6507 20.7937 20.1586 20.7937 20.4761 20.4762C20.7936 20.1587 20.7936 19.6508 20.4761 19.3333L18.7301 17.5873Z" fill="#392EEF"/>
<path d="M12 19.9047C11.5555 19.9047 11.1746 20.2857 11.1746 20.7301V23.1746C11.1746 23.619 11.5555 24 12 24C12.4444 24 12.8254 23.619 12.8254 23.1746V20.7301C12.8254 20.2857 12.4444 19.9047 12 19.9047Z" fill="#392EEF"/>
<path d="M5.23803 17.5873L3.492 19.3333C3.17454 19.6508 3.17454 20.1587 3.492 20.4762C3.80946 20.7937 4.3174 20.7937 4.63486 20.4762L6.38089 18.7302C6.69835 18.4127 6.69835 17.9048 6.38089 17.5873C6.09518 17.2698 5.58724 17.2698 5.23803 17.5873Z" fill="#392EEF"/>
<path d="M4.09523 12C4.09523 11.5556 3.71428 11.1746 3.26984 11.1746H0.825396C0.380952 11.1746 0 11.5556 0 12C0 12.4444 0.380952 12.8254 0.825396 12.8254H3.26984C3.71428 12.8254 4.09523 12.4444 4.09523 12Z" fill="#392EEF"/>
<path d="M5.23803 6.4127C5.55549 6.73016 6.06343 6.73016 6.38089 6.4127C6.69835 6.09524 6.69835 5.58731 6.38089 5.26985L4.63486 3.52382C4.3174 3.20636 3.80946 3.20636 3.492 3.52382C3.17454 3.84128 3.17454 4.34921 3.492 4.66667L5.23803 6.4127Z" fill="#392EEF"/>
</svg>
