<svg xmlns="http://www.w3.org/2000/svg" width="18.398" height="17.632" viewBox="0 0 18.398 17.632">
  <g id="money" transform="translate(0 0)">
    <path id="Path_199" data-name="Path 199" d="M0,2.76a3.446,3.446,0,0,1,6.754,0c-.008,0-.023.008-.031.008C5.435,3.112,4.6,1.71,4.569,1.648a.389.389,0,0,0-.6-.084A5.1,5.1,0,0,1,0,2.76Z" transform="translate(2.76 0)" fill="#fff"/>
    <path id="Path_200" data-name="Path 200" d="M4.236,0A5.883,5.883,0,0,1,0,1.119a3.443,3.443,0,0,0,6.884,0A2.622,2.622,0,0,1,4.236,0Z" transform="translate(2.686 2.407)" fill="#fff"/>
    <path id="Path_201" data-name="Path 201" d="M8.974,0h-6.1A2.878,2.878,0,0,0,0,2.875V5.558a.575.575,0,0,0,.575.575H7.594A6.09,6.09,0,0,1,8.974,0Z" transform="translate(0 8.433)" fill="#fff"/>
    <path id="Path_202" data-name="Path 202" d="M4.983,0A4.983,4.983,0,1,0,9.966,4.983,4.989,4.989,0,0,0,4.983,0Zm-.1,4.408h.192a1.434,1.434,0,0,1,.479,2.787v.663a.575.575,0,1,1-1.15,0V7.283H4.025a.575.575,0,0,1,0-1.15H5.079a.287.287,0,0,0,0-.575H4.887a1.434,1.434,0,0,1-.479-2.787V2.108a.575.575,0,1,1,1.15,0v.575h.383a.575.575,0,0,1,0,1.15H4.887a.287.287,0,0,0,0,.575Z" transform="translate(8.433 7.666)" fill="#fff"/>
  </g>
</svg>
