<svg xmlns="http://www.w3.org/2000/svg" xmlns:xlink="http://www.w3.org/1999/xlink" width="94" height="62" viewBox="0 0 94 62">
  <defs>
    <filter id="Rectangle_1394" x="0" y="4" width="88" height="48" filterUnits="userSpaceOnUse">
      <feOffset dy="3" input="SourceAlpha"/>
      <feGaussianBlur stdDeviation="3" result="blur"/>
      <feFlood flood-opacity="0.051"/>
      <feComposite operator="in" in2="blur"/>
      <feComposite in="SourceGraphic"/>
    </filter>
    <linearGradient id="linear-gradient" x1="0.5" x2="0.5" y2="1" gradientUnits="objectBoundingBox">
      <stop offset="0" stop-color="#22a1f5"/>
      <stop offset="1" stop-color="#677bff"/>
    </linearGradient>
    <filter id="Ellipse_191" x="32" y="0" width="62" height="62" filterUnits="userSpaceOnUse">
      <feOffset dy="6" input="SourceAlpha"/>
      <feGaussianBlur stdDeviation="5" result="blur-2"/>
      <feFlood flood-color="#22a1f5" flood-opacity="0.2"/>
      <feComposite operator="in" in2="blur-2"/>
      <feComposite in="SourceGraphic"/>
    </filter>
  </defs>
  <g id="toggle" transform="translate(-981 -185)">
    <g transform="matrix(1, 0, 0, 1, 981, 185)" filter="url(#Rectangle_1394)">
      <rect id="Rectangle_1394-2" data-name="Rectangle 1394" width="70" height="30" rx="15" transform="translate(9 10)" fill="#202230"/>
    </g>
    <g transform="matrix(1, 0, 0, 1, 981, 185)" filter="url(#Ellipse_191)">
      <circle id="Ellipse_191-2" data-name="Ellipse 191" cx="16" cy="16" r="16" transform="translate(47 9)" fill="url(#linear-gradient)"/>
    </g>
    <g id="sun_1" data-name="sun 1" transform="translate(998 200)">
      <path id="Path_5364" data-name="Path 5364" d="M14.549,7.451A5.049,5.049,0,0,0,11,5.968,4.939,4.939,0,0,0,7.451,7.451,5.032,5.032,0,0,0,11,16.032a4.939,4.939,0,0,0,3.549-1.483A5.049,5.049,0,0,0,16.032,11,4.939,4.939,0,0,0,14.549,7.451Z" transform="translate(-1 -1)" fill="#c2c4d0"/>
      <path id="Path_5365" data-name="Path 5365" d="M12,4.1a.84.84,0,0,0,.825-.825V.825a.825.825,0,0,0-1.651,0V3.27A.84.84,0,0,0,12,4.1Z" transform="translate(-2)" fill="#c2c4d0"/>
      <path id="Path_5366" data-name="Path 5366" d="M18.762,6.413l1.746-1.746a.808.808,0,1,0-1.143-1.143L17.619,5.27a.808.808,0,0,0,1.143,1.143Z" transform="translate(-3.815 -0.186)" fill="#c2c4d0"/>
      <path id="Path_5367" data-name="Path 5367" d="M23.175,11.175H20.73a.825.825,0,0,0,0,1.651h2.444a.825.825,0,0,0,0-1.651Z" transform="translate(-4 -2)" fill="#c2c4d0"/>
      <path id="Path_5368" data-name="Path 5368" d="M18.73,17.587a.808.808,0,0,0-1.143,1.143l1.746,1.746a.808.808,0,0,0,1.143-1.143Z" transform="translate(-3.814 -3.814)" fill="#c2c4d0"/>
      <path id="Path_5369" data-name="Path 5369" d="M12,19.9a.84.84,0,0,0-.825.825v2.444a.825.825,0,0,0,1.651,0V20.73A.841.841,0,0,0,12,19.9Z" transform="translate(-2 -4)" fill="#c2c4d0"/>
      <path id="Path_5370" data-name="Path 5370" d="M5.238,17.587,3.492,19.333a.808.808,0,0,0,1.143,1.143L6.381,18.73a.808.808,0,0,0-1.143-1.143Z" transform="translate(-0.185 -3.814)" fill="#c2c4d0"/>
      <path id="Path_5371" data-name="Path 5371" d="M4.1,12a.84.84,0,0,0-.825-.825H.825a.825.825,0,0,0,0,1.651H3.27A.84.84,0,0,0,4.1,12Z" transform="translate(0 -2)" fill="#c2c4d0"/>
      <path id="Path_5372" data-name="Path 5372" d="M5.238,6.413A.808.808,0,1,0,6.381,5.27L4.635,3.524A.808.808,0,0,0,3.492,4.667Z" transform="translate(-0.185 -0.186)" fill="#c2c4d0"/>
    </g>
    <g id="night_star_weather_icon-1320196360487446502_0" data-name="night+star+weather+icon-1320196360487446502_0" transform="translate(975.768 141.765)">
      <path id="Path_5375" data-name="Path 5375" d="M70.93,73.863A8.3,8.3,0,0,1,67,58.235,10.04,10.04,0,1,0,78.232,69.462,8.292,8.292,0,0,1,70.93,73.863Z" fill="#fff"/>
      <path id="Path_5376" data-name="Path 5376" d="M309.474,200.619l1.762-.927,1.762.927-.337-1.962,1.425-1.389-1.969-.286-.881-1.785-.881,1.785-1.969.286,1.425,1.389Z" transform="translate(-237.518 -130.044)" fill="#fff"/>
    </g>
  </g>
</svg>
