<svg xmlns="http://www.w3.org/2000/svg" xmlns:xlink="http://www.w3.org/1999/xlink" width="39.874" height="78.441" viewBox="0 0 39.874 78.441">
  <defs>
    <clipPath id="clip-path">
      <rect id="Rectangle_1393" data-name="Rectangle 1393" width="39.874" height="78.441" fill="none"/>
    </clipPath>
    <clipPath id="clip-path-3">
      <rect id="Rectangle_1385" data-name="Rectangle 1385" width="36.303" height="23.671" fill="none"/>
    </clipPath>
    <clipPath id="clip-path-4">
      <path id="Path_5357" data-name="Path 5357" d="M0,35.467C0,46.479,8.926,70.3,19.937,70.3S39.874,46.479,39.874,35.467A19.937,19.937,0,0,0,0,35.467" transform="translate(0 -15.531)" fill="none"/>
    </clipPath>
    <linearGradient id="linear-gradient" x1="-0.125" y1="1.161" x2="0.019" y2="1.216" gradientUnits="objectBoundingBox">
      <stop offset="0" stop-color="#fff"/>
      <stop offset="1" stop-color="#cacfe3"/>
    </linearGradient>
    <clipPath id="clip-path-6">
      <rect id="Rectangle_1388" data-name="Rectangle 1388" width="19.921" height="12.989" fill="none"/>
    </clipPath>
    <clipPath id="clip-path-7">
      <path id="Path_5360" data-name="Path 5360" d="M6.469,47.579l0,21.337a3.72,3.72,0,0,0,7.441,0l0-21.338a3.721,3.721,0,0,0-7.441,0" transform="translate(-6.469 -43.858)" fill="none"/>
    </clipPath>
    <linearGradient id="linear-gradient-2" x1="-0.662" y1="1.565" x2="-0.56" y2="1.565" gradientUnits="objectBoundingBox">
      <stop offset="0" stop-color="#001f5e"/>
      <stop offset="1" stop-color="#8257ab"/>
    </linearGradient>
    <clipPath id="clip-path-8">
      <path id="Path_5361" data-name="Path 5361" d="M21.478,0C13.189,0,6.469,5.2,6.469,11.618s6.72,11.619,15.009,11.619,15.008-5.2,15.008-11.619S29.766,0,21.478,0Z" transform="translate(-6.469)" fill="none"/>
    </clipPath>
    <linearGradient id="linear-gradient-3" x1="-0.164" y1="3.376" x2="-0.139" y2="3.376" xlink:href="#linear-gradient"/>
  </defs>
  <g id="Group_5703" data-name="Group 5703" clip-path="url(#clip-path)">
    <g id="Group_5689" data-name="Group 5689">
      <g id="Group_5688" data-name="Group 5688" clip-path="url(#clip-path)">
        <g id="Group_5687" data-name="Group 5687" transform="translate(1.785 54.77)" style="mix-blend-mode: multiply;isolation: isolate">
          <g id="Group_5686" data-name="Group 5686">
            <g id="Group_5685" data-name="Group 5685" clip-path="url(#clip-path-3)">
              <path id="Path_5355" data-name="Path 5355" d="M2.344,83.729c0,6.536,8.126,11.836,18.151,11.836s18.152-5.3,18.152-11.836S30.52,71.894,20.5,71.894,2.344,77.192,2.344,83.729" transform="translate(-2.344 -71.894)" fill="#cacfe3"/>
            </g>
          </g>
        </g>
        <path id="Path_5356" data-name="Path 5356" d="M36.1,30.471l0,21.338a3.721,3.721,0,0,0,7.441,0l0-21.338a3.721,3.721,0,0,0-7.441,0" transform="translate(-8.598 -6.371)" fill="#2d3d94"/>
      </g>
    </g>
    <g id="Group_5691" data-name="Group 5691" transform="translate(0 11.832)">
      <g id="Group_5690" data-name="Group 5690" clip-path="url(#clip-path-4)">
        <rect id="Rectangle_1387" data-name="Rectangle 1387" width="39.874" height="54.774" transform="translate(0 0)" fill="url(#linear-gradient)"/>
      </g>
    </g>
    <g id="Group_5696" data-name="Group 5696">
      <g id="Group_5695" data-name="Group 5695" clip-path="url(#clip-path)">
        <path id="Path_5358" data-name="Path 5358" d="M3.712,77.717a5.823,5.823,0,1,1,5.823,5.823,5.823,5.823,0,0,1-5.823-5.823" transform="translate(-0.884 -17.124)" fill="#fff"/>
        <g id="Group_5694" data-name="Group 5694" transform="translate(9.976 15.114)" style="mix-blend-mode: multiply;isolation: isolate">
          <g id="Group_5693" data-name="Group 5693">
            <g id="Group_5692" data-name="Group 5692" clip-path="url(#clip-path-6)">
              <path id="Path_5359" data-name="Path 5359" d="M13.1,26.334c0,3.587,4.46,6.495,9.961,6.495s9.96-2.908,9.96-6.495-4.459-6.495-9.96-6.495S13.1,22.747,13.1,26.334" transform="translate(-13.095 -19.839)" fill="#cacfe3"/>
            </g>
          </g>
        </g>
      </g>
    </g>
    <g id="Group_5698" data-name="Group 5698" transform="translate(4.928 33.412)">
      <g id="Group_5697" data-name="Group 5697" clip-path="url(#clip-path-7)">
        <rect id="Rectangle_1390" data-name="Rectangle 1390" width="7.444" height="28.778" transform="translate(0 0)" fill="url(#linear-gradient-2)"/>
      </g>
    </g>
    <g id="Group_5700" data-name="Group 5700" transform="translate(4.928)">
      <g id="Group_5699" data-name="Group 5699" clip-path="url(#clip-path-8)">
        <rect id="Rectangle_1391" data-name="Rectangle 1391" width="30.017" height="23.236" transform="translate(0 0)" fill="url(#linear-gradient-3)"/>
      </g>
    </g>
    <g id="Group_5702" data-name="Group 5702">
      <g id="Group_5701" data-name="Group 5701" clip-path="url(#clip-path)">
        <path id="Path_5362" data-name="Path 5362" d="M35.779,10.069l-8.172,4.718a7.184,7.184,0,0,0-3.079,6.535c.271,2.471,2.088,3.552,4.058,2.415l8.173-4.719a7.18,7.18,0,0,0,3.078-6.534c-.27-2.471-2.087-3.552-4.058-2.415" transform="translate(-5.834 -2.29)" fill="#2d3d94"/>
      </g>
    </g>
  </g>
</svg>
