<svg id="Group_5809" data-name="Group 5809" xmlns="http://www.w3.org/2000/svg" width="48" height="36.563" viewBox="0 0 48 36.563">
  <path id="Path_5381" data-name="Path 5381" d="M43.781,61H4.219A4.226,4.226,0,0,0,0,65.219V93.344a4.226,4.226,0,0,0,4.219,4.219H43.781A4.226,4.226,0,0,0,48,93.344V65.219A4.226,4.226,0,0,0,43.781,61ZM43.2,63.813,24.089,82.922,4.815,63.813ZM2.813,92.761V65.788L16.357,79.216ZM4.8,94.75,18.355,81.2,23.1,85.9a1.406,1.406,0,0,0,1.984,0l4.631-4.631L43.2,94.75Zm40.386-1.989-13.48-13.48L45.187,65.8Z" transform="translate(0 -61)" fill="#f2f8ff"/>
</svg>
