<svg xmlns="http://www.w3.org/2000/svg" xmlns:xlink="http://www.w3.org/1999/xlink" viewBox="0 0 133.81 98.35"><defs><style>.cls-1{fill:url(#linear-gradient);}.cls-2{fill:url(#linear-gradient-2);}.cls-3{font-size:25px;fill:#2b89ef;font-family:Poppins-Bold, Poppins;font-weight:700;}</style><linearGradient id="linear-gradient" x1="38.26" y1="40.63" x2="79.7" y2="10.52" gradientUnits="userSpaceOnUse"><stop offset="0" stop-color="#1abbfb"/><stop offset="1" stop-color="#2b89ef"/></linearGradient><linearGradient id="linear-gradient-2" x1="56.75" y1="38.76" x2="93.09" y2="12.35" xlink:href="#linear-gradient"/></defs><title>Asset 3</title><g id="Layer_2" data-name="Layer 2"><g id="Layer_1-2" data-name="Layer 1"><path class="cls-1" d="M75.39,30.28h0a3.39,3.39,0,0,1-.45,0,4.63,4.63,0,0,1-.65,0h0a6.37,6.37,0,0,0-4.24,2h0a11.9,11.9,0,0,1-1,1.48h0A12.91,12.91,0,1,1,59,12.68a12.91,12.91,0,0,1,10.11,4.88,0,0,0,0,0,0,0l.21.27,0,0a3.6,3.6,0,0,1,.28.4c.09.13.19.26.27.4a6.31,6.31,0,0,0,4.42,2.18h.39c.24,0,.48,0,.71,0a6.41,6.41,0,0,0,5-9.26,6.67,6.67,0,0,0-1.07-1.51,26.08,26.08,0,0,0-4.41-4.5A25.58,25.58,0,1,0,79.6,40.71c.18-.24.36-.49.52-.74l0,0a6.28,6.28,0,0,0,.92-3.31A6.4,6.4,0,0,0,75.39,30.28Z"/><path class="cls-2" d="M90.88,16a9.53,9.53,0,0,0-7.14,3.2,10.09,10.09,0,0,0-.63.8l0,.07c-.12.21-.26.42-.4.62v0a9.69,9.69,0,0,1-3.39,2.9,9.52,9.52,0,0,1-3.91,1h-.86a9.65,9.65,0,0,1-2.7-.52,7.5,7.5,0,0,1-1.2-.52,9.41,9.41,0,0,1-3.41-2.91c-.14-.24-.29-.47-.45-.7a9.55,9.55,0,1,0-.29,11.48h0a8.65,8.65,0,0,1,.83-1.24h0a9.57,9.57,0,0,1,3.34-2.67,8.41,8.41,0,0,1,1.17-.47,9.58,9.58,0,0,1,3.14-.52,9.84,9.84,0,0,1,4.3,1,9.48,9.48,0,0,1,3.31,2.66l0,.06a7.65,7.65,0,0,1,.81,1.2s0,0,0,0,.24.29.36.42A9.55,9.55,0,1,0,90.88,16Z"/><text class="cls-3" transform="translate(0.37 83.2)">Coin Profit</text></g></g></svg>