<svg xmlns="http://www.w3.org/2000/svg" xmlns:xlink="http://www.w3.org/1999/xlink" viewBox="0 0 90.57 69.12"><defs><style>.cls-1{fill:url(#linear-gradient);}.cls-2{fill:url(#linear-gradient-2);}</style><linearGradient id="linear-gradient" x1="6.6" y1="54.87" x2="62.57" y2="14.21" gradientUnits="userSpaceOnUse"><stop offset="0" stop-color="#1abbfb"/><stop offset="1" stop-color="#2b89ef"/></linearGradient><linearGradient id="linear-gradient-2" x1="31.57" y1="52.35" x2="80.66" y2="16.68" xlink:href="#linear-gradient"/></defs><title>Asset 1_1</title><g id="Layer_2" data-name="Layer 2"><g id="Layer_1-2" data-name="Layer 1"><path class="cls-1" d="M56.75,40.9h0c-.21,0-.41,0-.62,0a6.25,6.25,0,0,1-.87-.06h0a8.65,8.65,0,0,0-5.72,2.67s0,0,0,0a18.9,18.9,0,0,1-1.41,2h0a17.44,17.44,0,1,1-4.82-26.12,17.21,17.21,0,0,1,5,4.27,0,0,0,0,0,0,0l.29.37,0,0,.38.54c.12.18.25.36.36.55a8.53,8.53,0,0,0,6,2.94h0a4.18,4.18,0,0,0,.5,0c.33,0,.65,0,1-.05A8.64,8.64,0,0,0,62,13.59a35,35,0,0,0-6-6.08A34.55,34.55,0,1,0,62.44,55c.24-.32.48-.66.7-1l0,0a8.49,8.49,0,0,0,1.25-4.47A8.65,8.65,0,0,0,56.75,40.9Z"/><path class="cls-2" d="M77.67,21.62A12.9,12.9,0,0,0,68,25.94,13.3,13.3,0,0,0,67.17,27l-.06.09a9.23,9.23,0,0,1-.54.84l0,0A12.94,12.94,0,0,1,62,31.9a12.8,12.8,0,0,1-5.28,1.38,5.43,5.43,0,0,1-.57,0h-.59a13,13,0,0,1-3.65-.7,10.45,10.45,0,0,1-1.61-.7A12.7,12.7,0,0,1,45.66,28c-.19-.32-.39-.64-.61-.94a12.9,12.9,0,1,0-.39,15.5v0a13.52,13.52,0,0,1,1.12-1.67h0a12.84,12.84,0,0,1,4.51-3.61,12.6,12.6,0,0,1,1.57-.64,13.36,13.36,0,0,1,10,.64,12.73,12.73,0,0,1,4.48,3.6l0,.07a10.93,10.93,0,0,1,1.09,1.62l0,0c.15.19.32.39.48.57a12.9,12.9,0,1,0,9.62-21.48Z"/></g></g></svg>