<svg id="Group_5647" data-name="Group 5647" xmlns="http://www.w3.org/2000/svg" xmlns:xlink="http://www.w3.org/1999/xlink" width="96.141" height="62.775" viewBox="0 0 96.141 62.775">
  <defs>
    <clipPath id="clip-path">
      <rect id="Rectangle_928" data-name="Rectangle 928" width="96.141" height="62.775" fill="none"/>
    </clipPath>
    <clipPath id="clip-path-3">
      <rect id="Rectangle_918" data-name="Rectangle 918" width="96.134" height="31.048" fill="none"/>
    </clipPath>
    <clipPath id="clip-path-4">
      <rect id="Rectangle_877" data-name="Rectangle 877" width="53.276" height="31.046" fill="none"/>
    </clipPath>
    <clipPath id="clip-path-20">
      <rect id="Rectangle_893" data-name="Rectangle 893" width="53.275" height="31.046" fill="none"/>
    </clipPath>
    <clipPath id="clip-path-32">
      <rect id="Rectangle_905" data-name="Rectangle 905" width="53.275" height="31.047" fill="none"/>
    </clipPath>
    <clipPath id="clip-path-45">
      <path id="Path_4226" data-name="Path 4226" d="M26.071,1.424Q15.154,7.78,4.227,14.121c-1.4.813-1.391,2.129.014,2.946q10.994,6.341,21.989,12.688a5.569,5.569,0,0,0,5.083,0q10.923-6.34,21.838-12.694c1.4-.813,1.392-2.129-.014-2.946q-11-6.337-21.988-12.691a5.626,5.626,0,0,0-5.077,0" transform="translate(-3.183 -0.819)" fill="none"/>
    </clipPath>
    <linearGradient id="linear-gradient" x1="-0.015" y1="2.1" x2="-0.008" y2="2.1" gradientUnits="objectBoundingBox">
      <stop offset="0" stop-color="#4cd9ed"/>
      <stop offset="1" stop-color="#5fefc0"/>
    </linearGradient>
    <clipPath id="clip-path-47">
      <path id="Path_4230" data-name="Path 4230" d="M58.43,36.095l5.755,3.323Q67,37.778,69.82,36.139q-2.873-1.66-5.756-3.321-2.813,1.637-5.634,3.277" transform="translate(-58.43 -32.818)" fill="none"/>
    </clipPath>
    <linearGradient id="linear-gradient-2" x1="-1.653" y1="4.179" x2="-1.624" y2="4.179" gradientUnits="objectBoundingBox">
      <stop offset="0" stop-color="#4cd9ed"/>
      <stop offset="1" stop-color="#437fec"/>
    </linearGradient>
    <clipPath id="clip-path-49">
      <path id="Path_4232" data-name="Path 4232" d="M53.186,74.895l0,.011a.025.025,0,0,0,0-.015v0m.069-.3h0l0,.013s0-.01,0-.013M0,62.285v4.442c0,4.453,0,7.761.005,7.785s.015.081.019.11.023.118.023.118c.017.078.038.139.055.2l.005.009a2.363,2.363,0,0,0,.308.587,3.62,3.62,0,0,0,.619.64c.123.1,20.19,11.7,22.042,12.766v.013h0c.005.009.01.012.014.012.1.055,1.508.6,1.508.6.074.017.493.114.506.114s.331.054.445.075l.1.013a8.464,8.464,0,0,0,2.138,0c.034-.005.4-.063.453-.069l.027-.005c.117-.016.952-.242.966-.242.048-.021.1-.034.144-.049l.064-.024c.044-.021.484-.194.6-.259l.328-.169L52.028,76.34s.028-.021.041-.033c.057-.034.169-.122.169-.122a6.733,6.733,0,0,0,.742-.831A.338.338,0,0,0,53,75.307l.01-.014.013-.023.007-.008a.162.162,0,0,1,.017-.039c.017-.037.033-.061.04-.084l.013-.023.005-.014c.015-.041.03-.072.03-.072l.01-.033c.013-.027.02-.056.033-.083l0-.008h0l0-.012v0h0c.008-.025.015-.05.023-.075l0-.014v-.01c.025-.095.035-.165.044-.208l0,0c0-.014,0-.032,0-.048a1.392,1.392,0,0,1,.013-.139c0-.013,0-.031,0-.048a.311.311,0,0,1,0-.045l.008-30.961c0,.045-.007.1-.008.148s-.012.115-.023.174c-.01.041-.02.085-.027.123-.02.055-.033.112-.052.165s-.034.085-.054.13a1.444,1.444,0,0,1-.073.165c-.024.037-.048.071-.075.113-.035.064-.077.12-.12.187-.024.034-.056.068-.085.1-.067.077-.14.157-.223.239-.033.03-.057.059-.086.081-.051.051-.109.094-.161.139s-.095.079-.147.118-.123.082-.184.124-.134.085-.208.126c0,0-21.912,12.686-21.965,12.708-.133.053-.737.256-.828.284-.068.018-.136.035-.209.06-.1.019-.424.088-.488.1-.2.033-.714.088-.773.1-.124.013-.249.024-.374.026-.071.008-.418.008-.511.008s-.665-.034-.744-.042-.181-.021-.271-.031-.66-.108-.729-.12c-.114-.025-.445-.114-.506-.133a5.874,5.874,0,0,1-.568-.191c-.027-.009-.049-.021-.073-.029a6.516,6.516,0,0,1-.717-.345L1.552,45.479A2.641,2.641,0,0,1,0,43.334c0,.518,0,10.438,0,18.95m0-18.95v0m0-.02H0" transform="translate(0 -43.313)" fill="none"/>
    </clipPath>
    <linearGradient id="linear-gradient-3" y1="1.015" x2="0.007" y2="1.015" gradientUnits="objectBoundingBox">
      <stop offset="0" stop-color="#b7c0eb"/>
      <stop offset="0.51" stop-color="#e4e7fb"/>
      <stop offset="0.883" stop-color="#eff1fe"/>
      <stop offset="1" stop-color="#eff1fe"/>
    </linearGradient>
    <clipPath id="clip-path-50">
      <path id="Path_4233" data-name="Path 4233" d="M61.59,86.378v0Zm-32.353-.047s.009.048.011.067.014.072.014.072a1.04,1.04,0,0,0,.036.12h0a1.538,1.538,0,0,0,.185.356,2.248,2.248,0,0,0,.38.393c.074.066,12.266,7.105,13.391,7.76v.006a.038.038,0,0,0,.01.007c.056.032.916.36.916.36.045.014.3.07.311.07s.2.031.266.048l.062.007a5.26,5.26,0,0,0,1.3,0,2.488,2.488,0,0,0,.278-.047h.013c.071-.009.582-.15.582-.15.039-.009.066-.02.095-.027l.037-.013c.028-.014.294-.119.365-.16,0,0,.164-.082.2-.1l13.158-7.662a.075.075,0,0,0,.024-.017c.037-.023.1-.074.1-.074a4.171,4.171,0,0,0,.452-.5c0-.011.01-.019.013-.03l.008-.011.005-.013.007-.006h0l.007-.018a.607.607,0,0,0,.027-.056L61.5,86.7l0-.009a.236.236,0,0,1,.02-.043l.005-.021c.008-.016.011-.037.017-.051l0-.015v.014c.007-.023.011-.044.017-.062l0-.005V86.5a.8.8,0,0,0,.023-.127v0a.165.165,0,0,0,.006-.027c0-.03,0-.057,0-.085,0-.012.006-.023.006-.031a.24.24,0,0,1,0-.025l.008-18.814c0,.03-.009.06-.009.094a.576.576,0,0,1-.016.1.259.259,0,0,1-.017.074.962.962,0,0,1-.028.1.708.708,0,0,1-.033.078.859.859,0,0,1-.047.1c-.014.025-.029.045-.043.071a.84.84,0,0,1-.077.113.381.381,0,0,1-.048.059,1.687,1.687,0,0,1-.137.147l-.049.052c-.031.029-.067.055-.1.085s-.059.045-.088.069a1.144,1.144,0,0,1-.116.074,1.345,1.345,0,0,1-.124.079s-13.309,7.707-13.343,7.721c-.082.034-.45.156-.5.173s-.086.023-.127.037c-.063.01-.257.052-.3.061-.12.021-.435.054-.469.058-.079.006-.154.014-.231.014-.041.007-.251.007-.312.007-.046,0-.4-.021-.448-.025s-.109-.014-.167-.02-.4-.066-.443-.075c-.066-.014-.271-.068-.308-.08-.119-.03-.231-.075-.345-.11a.106.106,0,0,0-.042-.022,3.765,3.765,0,0,1-.435-.209L30.175,68.691a1.612,1.612,0,0,1-.944-1.32s0,18.916.006,18.961" transform="translate(-29.231 -67.371)" fill="none"/>
    </clipPath>
    <linearGradient id="linear-gradient-4" x1="-0.324" y1="1.365" x2="-0.313" y2="1.365" xlink:href="#linear-gradient-2"/>
    <clipPath id="clip-path-51">
      <path id="Path_4234" data-name="Path 4234" d="M48.723,103.482l.007.034c0,.011.006.044.006.044,0,.024.014.045.018.066a.833.833,0,0,0,.106.2,1.409,1.409,0,0,0,.208.218c.039.034,6.761,3.916,7.38,4.271v.006l0,0c.033.022.506.2.506.2.024.01.166.041.166.041s.115.017.151.026h.033a2.662,2.662,0,0,0,.717,0c.01,0,.135-.018.154-.024h.007c.039,0,.316-.085.316-.085a.381.381,0,0,0,.057-.013l.021-.006c.015-.009.161-.068.2-.087,0,0,.088-.044.108-.058l7.25-4.218.016-.009.058-.046a2.638,2.638,0,0,0,.247-.28.128.128,0,0,0,.01-.015v0l.006-.009,0,0h0s.007-.007.007-.01.013-.02.014-.029l.006-.009v0a.111.111,0,0,1,.011-.024l0-.011a.084.084,0,0,0,.01-.028v-.006a.09.09,0,0,0,.008-.028l0,0h0a.418.418,0,0,0,.013-.067v0a.039.039,0,0,1,0-.014.321.321,0,0,1,0-.048v-.037l0-10.365a.3.3,0,0,1,0,.052c0,.02-8.106,5.007-8.136,5.017s-.048.013-.074.017-.141.034-.161.037c-.066.01-.342.035-.384.038-.022,0-.4-.007-.422-.011s-.06,0-.09-.009l-.412-.086c-.066-.018-.207-.071-.215-.071-.084-.037-7.941-4.729-7.941-4.992,0,0-.005,10.422,0,10.447" transform="translate(-48.72 -93.035)" fill="none"/>
    </clipPath>
    <linearGradient id="linear-gradient-5" x1="-0.979" y1="1.887" x2="-0.959" y2="1.887" gradientUnits="objectBoundingBox">
      <stop offset="0" stop-color="#5fefc0"/>
      <stop offset="0.417" stop-color="#5fefc0"/>
      <stop offset="0.441" stop-color="#5bebc7"/>
      <stop offset="0.573" stop-color="#4cd9ed"/>
      <stop offset="1" stop-color="#4cd9ed"/>
    </linearGradient>
  </defs>
  <g id="Group_4488" data-name="Group 4488" clip-path="url(#clip-path)">
    <g id="Group_4471" data-name="Group 4471">
      <g id="Group_4470" data-name="Group 4470" clip-path="url(#clip-path)">
        <g id="Group_4469" data-name="Group 4469" transform="translate(0.007 31.727)" opacity="0.7" style="mix-blend-mode: multiply;isolation: isolate">
          <g id="Group_4468" data-name="Group 4468">
            <g id="Group_4467" data-name="Group 4467" clip-path="url(#clip-path-3)">
              <g id="Group_4346" data-name="Group 4346" transform="translate(42.858)" opacity="0">
                <g id="Group_4345" data-name="Group 4345">
                  <g id="Group_4344" data-name="Group 4344" clip-path="url(#clip-path-4)">
                    <path id="Path_4184" data-name="Path 4184" d="M172.806,104.055c-.122-2.222-3.585-3.391-5.189-4.319q-4.541-2.624-9.086-5.241-3.5-2.014-6.988-4.039c-2.048-1.179-4.156-2.417-6.6-1.835l.107-.017a10.842,10.842,0,0,0-1.406.3,1.416,1.416,0,0,0-.164.058,18.483,18.483,0,0,0-2.755,1.46q-1.832,1.075-3.675,2.139-3.808,2.216-7.613,4.427c-3.13,1.818-6.3,3.613-9.3,5.608-1.972,2.271,1.344,3.878,3.028,4.847q8.636,5,17.28,9.98c1.884,1.091,3.387,2.094,5.525,2.094a9.247,9.247,0,0,0,4.87-1.392q3.649-2.124,7.3-4.242c4.431-2.578,9.078-5.005,13.353-7.8-.358.223.2-.141.274-.194.094,0,.291-.245.366-.322a6.479,6.479,0,0,0,.417-.54,2.207,2.207,0,0,0,.256-.975" transform="translate(-119.53 -88.472)" fill="#fff"/>
                  </g>
                </g>
              </g>
              <g id="Group_4349" data-name="Group 4349" transform="translate(41.813 0)" opacity="0.024">
                <g id="Group_4348" data-name="Group 4348">
                  <g id="Group_4347" data-name="Group 4347" clip-path="url(#clip-path-4)">
                    <path id="Path_4185" data-name="Path 4185" d="M169.89,104.055c-.121-2.222-3.584-3.391-5.189-4.319q-4.541-2.624-9.086-5.241-3.5-2.014-6.988-4.039c-2.048-1.179-4.156-2.417-6.6-1.835l.107-.017a10.844,10.844,0,0,0-1.406.3,1.493,1.493,0,0,0-.164.058,18.5,18.5,0,0,0-2.754,1.46c-1.222.717-2.45,1.426-3.675,2.139q-3.808,2.216-7.613,4.427c-3.13,1.818-6.3,3.613-9.3,5.608-1.972,2.271,1.344,3.878,3.027,4.846q8.637,5,17.28,9.98c1.884,1.091,3.387,2.095,5.525,2.095a9.25,9.25,0,0,0,4.869-1.392q3.649-2.124,7.3-4.242c4.431-2.578,9.078-5.006,13.353-7.8-.358.223.2-.141.274-.194.094,0,.29-.245.366-.322a6.709,6.709,0,0,0,.417-.54,1.965,1.965,0,0,0,.256-.975" transform="translate(-116.615 -88.472)" fill="#fdfdfe"/>
                  </g>
                </g>
              </g>
              <g id="Group_4352" data-name="Group 4352" transform="translate(40.767 0)" opacity="0.049">
                <g id="Group_4351" data-name="Group 4351">
                  <g id="Group_4350" data-name="Group 4350" clip-path="url(#clip-path-4)">
                    <path id="Path_4186" data-name="Path 4186" d="M166.975,104.055c-.121-2.222-3.584-3.391-5.189-4.319q-4.541-2.624-9.086-5.241-3.5-2.013-6.988-4.039c-2.048-1.179-4.155-2.417-6.6-1.835l.107-.017a10.843,10.843,0,0,0-1.406.3,1.466,1.466,0,0,0-.164.058,18.518,18.518,0,0,0-2.755,1.46c-1.221.717-2.45,1.426-3.675,2.139q-3.807,2.216-7.613,4.427c-3.13,1.818-6.3,3.613-9.3,5.608-1.972,2.271,1.344,3.878,3.027,4.846q8.637,5,17.28,9.98c1.884,1.091,3.387,2.095,5.525,2.095a9.249,9.249,0,0,0,4.869-1.392q3.649-2.124,7.3-4.242c4.431-2.578,9.078-5.005,13.353-7.8-.358.223.2-.141.274-.194.095,0,.29-.245.366-.322a6.633,6.633,0,0,0,.417-.54,1.959,1.959,0,0,0,.256-.975" transform="translate(-113.7 -88.472)" fill="#fbfcfe"/>
                  </g>
                </g>
              </g>
              <g id="Group_4355" data-name="Group 4355" transform="translate(39.722 0)" opacity="0.073">
                <g id="Group_4354" data-name="Group 4354">
                  <g id="Group_4353" data-name="Group 4353" clip-path="url(#clip-path-4)">
                    <path id="Path_4187" data-name="Path 4187" d="M164.061,104.055c-.121-2.222-3.584-3.391-5.189-4.319q-4.541-2.624-9.086-5.241-3.5-2.013-6.988-4.039c-2.048-1.179-4.155-2.417-6.6-1.835l.107-.017a10.843,10.843,0,0,0-1.406.3,1.47,1.47,0,0,0-.164.058,18.52,18.52,0,0,0-2.755,1.46c-1.221.717-2.449,1.426-3.675,2.139q-3.807,2.216-7.613,4.427c-3.129,1.818-6.3,3.613-9.3,5.608-1.972,2.271,1.344,3.878,3.027,4.847q8.637,5,17.28,9.98c1.884,1.091,3.387,2.094,5.525,2.094a9.249,9.249,0,0,0,4.869-1.392q3.649-2.124,7.3-4.242c4.431-2.578,9.078-5.005,13.353-7.8-.358.223.2-.141.274-.194.095,0,.29-.245.366-.322.124-.128.41-.528.417-.54a1.965,1.965,0,0,0,.255-.975" transform="translate(-110.786 -88.472)" fill="#fafafd"/>
                  </g>
                </g>
              </g>
              <g id="Group_4358" data-name="Group 4358" transform="translate(38.677 0)" opacity="0.098">
                <g id="Group_4357" data-name="Group 4357">
                  <g id="Group_4356" data-name="Group 4356" clip-path="url(#clip-path-4)">
                    <path id="Path_4188" data-name="Path 4188" d="M161.146,104.056c-.122-2.222-3.585-3.391-5.189-4.319q-4.541-2.624-9.086-5.241-3.5-2.013-6.988-4.039c-2.048-1.179-4.155-2.417-6.6-1.835l.107-.017a10.835,10.835,0,0,0-1.406.3,1.475,1.475,0,0,0-.164.058,18.5,18.5,0,0,0-2.755,1.46c-1.221.717-2.45,1.426-3.675,2.139q-3.807,2.216-7.613,4.427c-3.129,1.818-6.3,3.613-9.3,5.608-1.972,2.271,1.345,3.878,3.027,4.846q8.637,5,17.28,9.98c1.884,1.091,3.387,2.095,5.525,2.095a9.248,9.248,0,0,0,4.869-1.392q3.649-2.124,7.3-4.242c4.431-2.578,9.078-5.005,13.353-7.8-.358.223.2-.141.274-.194.1,0,.29-.245.366-.323a6.584,6.584,0,0,0,.417-.54,1.959,1.959,0,0,0,.256-.975" transform="translate(-107.871 -88.473)" fill="#f8f9fd"/>
                  </g>
                </g>
              </g>
              <g id="Group_4361" data-name="Group 4361" transform="translate(37.632 0)" opacity="0.122">
                <g id="Group_4360" data-name="Group 4360">
                  <g id="Group_4359" data-name="Group 4359" clip-path="url(#clip-path-4)">
                    <path id="Path_4189" data-name="Path 4189" d="M158.23,104.056c-.121-2.222-3.584-3.391-5.189-4.319q-4.541-2.624-9.086-5.241-3.5-2.013-6.988-4.039c-2.048-1.179-4.155-2.417-6.6-1.835l.107-.017a10.821,10.821,0,0,0-1.406.3,1.493,1.493,0,0,0-.164.058,18.52,18.52,0,0,0-2.755,1.46q-1.832,1.075-3.675,2.139-3.807,2.216-7.613,4.427c-3.129,1.818-6.3,3.613-9.3,5.608-1.972,2.271,1.344,3.878,3.027,4.846q8.637,5,17.281,9.98c1.884,1.091,3.387,2.095,5.525,2.095a9.248,9.248,0,0,0,4.869-1.392q3.649-2.124,7.3-4.242c4.431-2.578,9.078-5.005,13.353-7.8-.357.223.2-.141.275-.194.095,0,.29-.245.366-.323a6.773,6.773,0,0,0,.417-.54,1.953,1.953,0,0,0,.255-.975" transform="translate(-104.955 -88.473)" fill="#f6f7fc"/>
                  </g>
                </g>
              </g>
              <g id="Group_4364" data-name="Group 4364" transform="translate(36.586 0)" opacity="0.146">
                <g id="Group_4363" data-name="Group 4363">
                  <g id="Group_4362" data-name="Group 4362" clip-path="url(#clip-path-4)">
                    <path id="Path_4190" data-name="Path 4190" d="M155.316,104.056c-.122-2.222-3.585-3.391-5.189-4.319q-4.541-2.624-9.086-5.241-3.5-2.013-6.988-4.039c-2.048-1.179-4.155-2.417-6.6-1.835l.107-.017a10.834,10.834,0,0,0-1.406.3,1.547,1.547,0,0,0-.164.058,18.564,18.564,0,0,0-2.755,1.46c-1.221.717-2.449,1.426-3.675,2.139q-3.807,2.216-7.613,4.427c-3.129,1.818-6.3,3.613-9.3,5.608-1.972,2.271,1.345,3.878,3.027,4.847q8.638,5,17.281,9.98c1.884,1.091,3.387,2.094,5.525,2.094a9.248,9.248,0,0,0,4.869-1.392q3.649-2.124,7.3-4.242c4.431-2.578,9.078-5.005,13.353-7.8-.358.223.2-.141.274-.194.095,0,.29-.245.366-.323.124-.128.411-.528.417-.54a1.954,1.954,0,0,0,.256-.975" transform="translate(-102.041 -88.473)" fill="#f5f6fc"/>
                  </g>
                </g>
              </g>
              <g id="Group_4367" data-name="Group 4367" transform="translate(35.541 0)" opacity="0.171">
                <g id="Group_4366" data-name="Group 4366">
                  <g id="Group_4365" data-name="Group 4365" clip-path="url(#clip-path-4)">
                    <path id="Path_4191" data-name="Path 4191" d="M152.4,104.056c-.121-2.222-3.584-3.391-5.189-4.319q-4.541-2.624-9.086-5.241-3.5-2.013-6.988-4.039c-2.048-1.179-4.155-2.417-6.6-1.835l.107-.017a10.8,10.8,0,0,0-1.406.3,1.5,1.5,0,0,0-.164.058,18.511,18.511,0,0,0-2.754,1.46c-1.222.717-2.45,1.426-3.675,2.139q-3.807,2.216-7.613,4.427c-3.129,1.818-6.3,3.613-9.3,5.608-1.972,2.271,1.344,3.878,3.027,4.846q8.637,5,17.281,9.98c1.885,1.091,3.386,2.095,5.525,2.095a9.246,9.246,0,0,0,4.869-1.392q3.65-2.124,7.3-4.243c4.431-2.578,9.077-5.005,13.353-7.8-.357.223.2-.141.275-.194.095,0,.29-.245.366-.323.124-.128.411-.528.417-.54a1.942,1.942,0,0,0,.255-.975" transform="translate(-99.125 -88.473)" fill="#f3f4fc"/>
                  </g>
                </g>
              </g>
              <g id="Group_4370" data-name="Group 4370" transform="translate(34.496 0)" opacity="0.195">
                <g id="Group_4369" data-name="Group 4369">
                  <g id="Group_4368" data-name="Group 4368" clip-path="url(#clip-path-4)">
                    <path id="Path_4192" data-name="Path 4192" d="M149.486,104.056c-.122-2.222-3.585-3.391-5.189-4.319q-4.541-2.624-9.086-5.241-3.5-2.013-6.988-4.039c-2.048-1.179-4.155-2.417-6.6-1.835l.107-.017a10.721,10.721,0,0,0-1.406.3,1.4,1.4,0,0,0-.164.058,18.481,18.481,0,0,0-2.755,1.46c-1.222.717-2.449,1.426-3.675,2.139q-3.807,2.216-7.613,4.427c-3.129,1.818-6.3,3.613-9.3,5.608-1.972,2.271,1.345,3.878,3.027,4.847q8.638,5,17.281,9.98c1.884,1.09,3.386,2.094,5.525,2.094a9.248,9.248,0,0,0,4.869-1.393q3.649-2.124,7.3-4.243c4.431-2.578,9.078-5,13.353-7.8-.357.223.2-.141.275-.194.095,0,.29-.245.366-.323a6.764,6.764,0,0,0,.417-.54,1.943,1.943,0,0,0,.256-.975" transform="translate(-96.211 -88.473)" fill="#f1f3fb"/>
                  </g>
                </g>
              </g>
              <g id="Group_4373" data-name="Group 4373" transform="translate(33.45 0)" opacity="0.22">
                <g id="Group_4372" data-name="Group 4372">
                  <g id="Group_4371" data-name="Group 4371" clip-path="url(#clip-path-4)">
                    <path id="Path_4193" data-name="Path 4193" d="M146.571,104.056c-.122-2.222-3.585-3.391-5.189-4.319q-4.541-2.624-9.086-5.241-3.5-2.013-6.988-4.039c-2.048-1.179-4.155-2.417-6.6-1.835l.107-.017a10.726,10.726,0,0,0-1.406.3,1.493,1.493,0,0,0-.164.058,18.477,18.477,0,0,0-2.755,1.46c-1.223.717-2.45,1.426-3.675,2.139q-3.807,2.216-7.613,4.427c-3.129,1.818-6.3,3.613-9.3,5.608-1.972,2.271,1.344,3.878,3.026,4.846q8.638,5,17.281,9.98c1.884,1.091,3.386,2.095,5.525,2.095a9.248,9.248,0,0,0,4.869-1.393q3.649-2.124,7.3-4.243c4.431-2.578,9.078-5,13.353-7.8-.357.223.2-.141.274-.194.1,0,.29-.245.366-.323a6.778,6.778,0,0,0,.417-.54,1.941,1.941,0,0,0,.255-.975" transform="translate(-93.296 -88.473)" fill="#eff1fb"/>
                  </g>
                </g>
              </g>
              <g id="Group_4376" data-name="Group 4376" transform="translate(32.405 0)" opacity="0.244">
                <g id="Group_4375" data-name="Group 4375">
                  <g id="Group_4374" data-name="Group 4374" clip-path="url(#clip-path-4)">
                    <path id="Path_4194" data-name="Path 4194" d="M143.655,104.055c-.121-2.222-3.584-3.392-5.189-4.319q-4.541-2.624-9.086-5.241-3.5-2.013-6.988-4.039c-2.047-1.179-4.154-2.417-6.6-1.835l.107-.017a10.7,10.7,0,0,0-1.406.3,1.44,1.44,0,0,0-.164.058,18.461,18.461,0,0,0-2.755,1.46c-1.222.717-2.449,1.426-3.675,2.139q-3.807,2.216-7.613,4.427c-3.13,1.818-6.3,3.613-9.3,5.608-1.972,2.271,1.345,3.878,3.027,4.846q8.638,5,17.281,9.98c1.884,1.091,3.386,2.095,5.525,2.095a9.249,9.249,0,0,0,4.869-1.393q3.649-2.124,7.3-4.243c4.431-2.578,9.077-5,13.353-7.8-.357.223.2-.141.275-.194.095,0,.29-.245.366-.323.124-.128.411-.528.417-.54a1.933,1.933,0,0,0,.255-.975" transform="translate(-90.381 -88.472)" fill="#edf0fa"/>
                  </g>
                </g>
              </g>
              <g id="Group_4379" data-name="Group 4379" transform="translate(31.36 0)" opacity="0.268">
                <g id="Group_4378" data-name="Group 4378">
                  <g id="Group_4377" data-name="Group 4377" clip-path="url(#clip-path-4)">
                    <path id="Path_4195" data-name="Path 4195" d="M140.741,104.055c-.122-2.222-3.585-3.392-5.189-4.319q-4.541-2.624-9.086-5.241-3.5-2.013-6.988-4.039c-2.047-1.179-4.154-2.417-6.6-1.835l.107-.017a10.716,10.716,0,0,0-1.406.3,1.493,1.493,0,0,0-.164.058,18.477,18.477,0,0,0-2.755,1.46c-1.223.717-2.45,1.426-3.675,2.139q-3.807,2.216-7.613,4.427c-3.13,1.818-6.3,3.613-9.3,5.608-1.972,2.271,1.344,3.878,3.026,4.846q8.638,5,17.281,9.98c1.884,1.091,3.386,2.095,5.525,2.095a9.248,9.248,0,0,0,4.869-1.393q3.649-2.124,7.3-4.243c4.432-2.578,9.077-5.005,13.353-7.8-.357.223.2-.141.274-.194.1,0,.29-.245.366-.323.124-.128.411-.528.418-.54a1.937,1.937,0,0,0,.255-.975" transform="translate(-87.466 -88.473)" fill="#eceefa"/>
                  </g>
                </g>
              </g>
              <g id="Group_4382" data-name="Group 4382" transform="translate(30.314 0)" opacity="0.293">
                <g id="Group_4381" data-name="Group 4381">
                  <g id="Group_4380" data-name="Group 4380" clip-path="url(#clip-path-4)">
                    <path id="Path_4196" data-name="Path 4196" d="M137.825,104.056c-.121-2.222-3.584-3.392-5.189-4.319Q128.1,97.112,123.55,94.5q-3.5-2.013-6.988-4.039c-2.047-1.179-4.154-2.417-6.6-1.835l.107-.017a10.706,10.706,0,0,0-1.406.3,1.5,1.5,0,0,0-.164.058,18.477,18.477,0,0,0-2.755,1.46c-1.223.717-2.45,1.426-3.675,2.139q-3.807,2.216-7.613,4.427c-3.13,1.818-6.3,3.613-9.3,5.608-1.972,2.271,1.344,3.878,3.026,4.847q8.639,5,17.282,9.98c1.884,1.09,3.386,2.094,5.525,2.094a9.246,9.246,0,0,0,4.869-1.392q3.65-2.124,7.3-4.243c4.431-2.578,9.077-5,13.353-7.8-.357.223.2-.141.275-.194.095,0,.29-.245.366-.323.124-.128.411-.528.417-.54a1.927,1.927,0,0,0,.255-.974" transform="translate(-84.551 -88.473)" fill="#eaedf9"/>
                  </g>
                </g>
              </g>
              <g id="Group_4385" data-name="Group 4385" transform="translate(29.269 0)" opacity="0.317">
                <g id="Group_4384" data-name="Group 4384">
                  <g id="Group_4383" data-name="Group 4383" clip-path="url(#clip-path-4)">
                    <path id="Path_4197" data-name="Path 4197" d="M134.911,104.056c-.121-2.222-3.585-3.392-5.189-4.319q-4.541-2.624-9.087-5.242-3.5-2.012-6.988-4.038c-2.047-1.179-4.153-2.417-6.6-1.835l.107-.017a10.718,10.718,0,0,0-1.406.3,1.5,1.5,0,0,0-.164.058,18.5,18.5,0,0,0-2.755,1.46c-1.222.717-2.449,1.426-3.675,2.139q-3.806,2.216-7.613,4.427c-3.13,1.818-6.3,3.613-9.3,5.608-1.972,2.271,1.345,3.878,3.026,4.846q8.639,5,17.281,9.98c1.884,1.091,3.386,2.095,5.526,2.095a9.251,9.251,0,0,0,4.868-1.392q3.65-2.124,7.3-4.243c4.432-2.578,9.078-5,13.352-7.8-.356.223.2-.141.275-.194.095,0,.289-.245.365-.323a6.766,6.766,0,0,0,.417-.54,1.924,1.924,0,0,0,.256-.974" transform="translate(-81.636 -88.473)" fill="#e8ebf9"/>
                  </g>
                </g>
              </g>
              <g id="Group_4388" data-name="Group 4388" transform="translate(28.224 0)" opacity="0.341">
                <g id="Group_4387" data-name="Group 4387">
                  <g id="Group_4386" data-name="Group 4386" clip-path="url(#clip-path-4)">
                    <path id="Path_4198" data-name="Path 4198" d="M132,104.056c-.121-2.222-3.584-3.392-5.189-4.319q-4.54-2.624-9.086-5.242-3.5-2.012-6.988-4.038c-2.047-1.179-4.154-2.417-6.6-1.835l.107-.017a10.645,10.645,0,0,0-1.406.3,1.449,1.449,0,0,0-.164.058,18.477,18.477,0,0,0-2.755,1.46c-1.223.717-2.45,1.426-3.675,2.139q-3.806,2.216-7.613,4.427c-3.13,1.818-6.3,3.613-9.3,5.608-1.972,2.271,1.344,3.878,3.026,4.847q8.639,5,17.282,9.98c1.884,1.09,3.386,2.094,5.525,2.094a9.249,9.249,0,0,0,4.869-1.392q3.65-2.124,7.3-4.243c4.431-2.578,9.077-5,13.352-7.8-.356.222.2-.141.275-.194.095,0,.289-.245.365-.323.124-.128.411-.528.417-.54a1.919,1.919,0,0,0,.255-.974" transform="translate(-78.721 -88.473)" fill="#e7eaf8"/>
                  </g>
                </g>
              </g>
              <g id="Group_4391" data-name="Group 4391" transform="translate(27.178 0)" opacity="0.366">
                <g id="Group_4390" data-name="Group 4390">
                  <g id="Group_4389" data-name="Group 4389" clip-path="url(#clip-path-4)">
                    <path id="Path_4199" data-name="Path 4199" d="M129.081,104.056c-.121-2.222-3.585-3.392-5.19-4.319q-4.539-2.624-9.086-5.242-3.5-2.012-6.988-4.038c-2.047-1.179-4.153-2.417-6.6-1.835l.107-.017a10.648,10.648,0,0,0-1.406.3,1.555,1.555,0,0,0-.164.058A18.5,18.5,0,0,0,97,90.424c-1.222.717-2.449,1.426-3.675,2.139q-3.806,2.216-7.613,4.427c-3.13,1.818-6.3,3.613-9.3,5.608-1.972,2.271,1.344,3.878,3.026,4.846q8.639,5,17.281,9.98c1.884,1.09,3.386,2.095,5.525,2.095a9.251,9.251,0,0,0,4.869-1.392q3.65-2.124,7.3-4.243c4.432-2.578,9.077-5,13.352-7.8-.356.222.2-.141.275-.194.095,0,.289-.245.365-.323a6.791,6.791,0,0,0,.417-.54,1.923,1.923,0,0,0,.256-.974" transform="translate(-75.807 -88.473)" fill="#e5e8f8"/>
                  </g>
                </g>
              </g>
              <g id="Group_4394" data-name="Group 4394" transform="translate(26.133 0)" opacity="0.39">
                <g id="Group_4393" data-name="Group 4393">
                  <g id="Group_4392" data-name="Group 4392" clip-path="url(#clip-path-20)">
                    <path id="Path_4200" data-name="Path 4200" d="M126.166,104.056c-.121-2.222-3.585-3.392-5.189-4.319q-4.539-2.624-9.086-5.242-3.5-2.012-6.988-4.038c-2.047-1.179-4.153-2.417-6.6-1.835l.107-.018a10.7,10.7,0,0,0-1.406.3,1.555,1.555,0,0,0-.164.058,18.523,18.523,0,0,0-2.755,1.46c-1.223.718-2.449,1.426-3.675,2.139q-3.806,2.216-7.613,4.427c-3.13,1.818-6.3,3.613-9.3,5.608-1.972,2.272,1.344,3.879,3.025,4.847q8.639,5,17.282,9.98c1.885,1.09,3.386,2.095,5.525,2.095a9.247,9.247,0,0,0,4.868-1.392q3.651-2.124,7.3-4.243c4.431-2.578,9.077-5,13.352-7.8-.356.222.2-.141.275-.194.095,0,.289-.245.365-.323a6.791,6.791,0,0,0,.417-.54,1.914,1.914,0,0,0,.255-.974" transform="translate(-72.891 -88.473)" fill="#e3e7f7"/>
                  </g>
                </g>
              </g>
              <g id="Group_4397" data-name="Group 4397" transform="translate(25.088 0)" opacity="0.415">
                <g id="Group_4396" data-name="Group 4396">
                  <g id="Group_4395" data-name="Group 4395" clip-path="url(#clip-path-20)">
                    <path id="Path_4201" data-name="Path 4201" d="M123.251,104.056c-.121-2.222-3.585-3.392-5.19-4.319q-4.539-2.624-9.086-5.242-3.5-2.012-6.988-4.038c-2.047-1.179-4.153-2.417-6.6-1.835.035-.007.071-.012.107-.018a10.694,10.694,0,0,0-1.406.3,1.5,1.5,0,0,0-.164.058,18.473,18.473,0,0,0-2.755,1.46c-1.223.718-2.449,1.426-3.675,2.139q-3.807,2.216-7.613,4.427c-3.129,1.818-6.3,3.613-9.3,5.608-1.972,2.271,1.344,3.878,3.025,4.847q8.639,5,17.282,9.98c1.884,1.09,3.386,2.094,5.525,2.094a9.248,9.248,0,0,0,4.868-1.392q3.651-2.124,7.3-4.243c4.431-2.578,9.077-5,13.352-7.8-.356.222.2-.141.275-.194.095,0,.289-.245.365-.323.124-.127.411-.528.417-.54a1.915,1.915,0,0,0,.256-.974" transform="translate(-69.977 -88.473)" fill="#e1e5f7"/>
                  </g>
                </g>
              </g>
              <g id="Group_4400" data-name="Group 4400" transform="translate(24.042 0.001)" opacity="0.439">
                <g id="Group_4399" data-name="Group 4399">
                  <g id="Group_4398" data-name="Group 4398" clip-path="url(#clip-path-20)">
                    <path id="Path_4202" data-name="Path 4202" d="M120.336,104.056c-.121-2.222-3.585-3.392-5.189-4.319q-4.539-2.624-9.086-5.242-3.5-2.012-6.988-4.038c-2.047-1.179-4.153-2.418-6.6-1.835.035-.007.071-.012.107-.018a10.682,10.682,0,0,0-1.406.3,1.56,1.56,0,0,0-.164.058,18.471,18.471,0,0,0-2.754,1.46c-1.223.718-2.45,1.426-3.676,2.139q-3.806,2.216-7.613,4.427c-3.129,1.818-6.3,3.613-9.3,5.608-1.972,2.271,1.344,3.878,3.025,4.846q8.639,5,17.282,9.98c1.885,1.09,3.386,2.095,5.525,2.095a9.246,9.246,0,0,0,4.868-1.392q3.651-2.124,7.3-4.243c4.431-2.578,9.076-5,13.352-7.8-.356.222.2-.141.275-.194.095,0,.289-.245.365-.323.124-.127.411-.528.418-.54a1.911,1.911,0,0,0,.255-.974" transform="translate(-67.061 -88.473)" fill="#dfe3f6"/>
                  </g>
                </g>
              </g>
              <g id="Group_4403" data-name="Group 4403" transform="translate(22.997 0.001)" opacity="0.463">
                <g id="Group_4402" data-name="Group 4402">
                  <g id="Group_4401" data-name="Group 4401" clip-path="url(#clip-path-20)">
                    <path id="Path_4203" data-name="Path 4203" d="M117.421,104.056c-.121-2.222-3.585-3.392-5.189-4.319q-4.539-2.624-9.086-5.242-3.5-2.012-6.988-4.038c-2.047-1.179-4.153-2.418-6.6-1.835.035-.007.071-.012.107-.018a10.621,10.621,0,0,0-1.406.3,1.55,1.55,0,0,0-.164.058,18.438,18.438,0,0,0-2.755,1.46c-1.223.718-2.45,1.426-3.676,2.139q-3.806,2.216-7.613,4.427c-3.129,1.818-6.3,3.613-9.3,5.608-1.972,2.271,1.344,3.878,3.025,4.846q8.64,5,17.283,9.98c1.884,1.09,3.385,2.095,5.525,2.095a9.246,9.246,0,0,0,4.868-1.392q3.651-2.124,7.3-4.243c4.431-2.578,9.076-5,13.352-7.8-.356.222.2-.141.275-.194.095,0,.289-.245.365-.323.124-.127.411-.528.418-.54a1.9,1.9,0,0,0,.255-.974" transform="translate(-64.147 -88.473)" fill="#dee2f6"/>
                  </g>
                </g>
              </g>
              <g id="Group_4406" data-name="Group 4406" transform="translate(21.952 0.001)" opacity="0.488">
                <g id="Group_4405" data-name="Group 4405">
                  <g id="Group_4404" data-name="Group 4404" clip-path="url(#clip-path-20)">
                    <path id="Path_4204" data-name="Path 4204" d="M114.506,104.056c-.121-2.222-3.585-3.392-5.189-4.319q-4.539-2.624-9.086-5.242-3.5-2.012-6.988-4.038c-2.047-1.179-4.153-2.418-6.6-1.835.035-.007.071-.012.107-.018a10.611,10.611,0,0,0-1.406.3,1.554,1.554,0,0,0-.164.058,18.438,18.438,0,0,0-2.755,1.46c-1.223.718-2.45,1.426-3.676,2.14q-3.806,2.216-7.613,4.427c-3.129,1.818-6.3,3.613-9.3,5.608-1.972,2.271,1.344,3.878,3.025,4.847q8.64,5,17.283,9.98c1.884,1.089,3.385,2.094,5.525,2.094a9.246,9.246,0,0,0,4.868-1.392q3.651-2.124,7.3-4.243c4.431-2.578,9.076-5,13.352-7.8-.356.222.2-.141.275-.194.095,0,.289-.245.365-.324.124-.127.411-.528.418-.54a1.9,1.9,0,0,0,.255-.974" transform="translate(-61.232 -88.473)" fill="#dce0f5"/>
                  </g>
                </g>
              </g>
              <g id="Group_4409" data-name="Group 4409" transform="translate(20.906 0.001)" opacity="0.512">
                <g id="Group_4408" data-name="Group 4408">
                  <g id="Group_4407" data-name="Group 4407" clip-path="url(#clip-path-20)">
                    <path id="Path_4205" data-name="Path 4205" d="M111.591,104.057c-.121-2.222-3.585-3.392-5.189-4.319q-4.539-2.624-9.086-5.242-3.5-2.012-6.988-4.038c-2.047-1.179-4.153-2.418-6.6-1.835.036-.007.072-.012.107-.018a10.611,10.611,0,0,0-1.406.3,1.578,1.578,0,0,0-.164.058,18.437,18.437,0,0,0-2.755,1.46c-1.224.718-2.45,1.426-3.676,2.139q-3.806,2.216-7.613,4.427c-3.129,1.818-6.3,3.613-9.3,5.608-1.972,2.271,1.344,3.878,3.025,4.846q8.64,5,17.283,9.98c1.884,1.09,3.385,2.095,5.525,2.095a9.246,9.246,0,0,0,4.868-1.392q3.651-2.125,7.3-4.243c4.431-2.578,9.076-5,13.352-7.8-.356.222.2-.141.275-.194.1,0,.289-.245.365-.324.124-.127.411-.528.418-.54a1.9,1.9,0,0,0,.255-.974" transform="translate(-58.317 -88.474)" fill="#dadff5"/>
                  </g>
                </g>
              </g>
              <g id="Group_4412" data-name="Group 4412" transform="translate(19.861 0.001)" opacity="0.537">
                <g id="Group_4411" data-name="Group 4411">
                  <g id="Group_4410" data-name="Group 4410" clip-path="url(#clip-path-20)">
                    <path id="Path_4206" data-name="Path 4206" d="M108.676,104.057c-.121-2.222-3.585-3.392-5.189-4.319Q98.947,97.113,94.4,94.5q-3.5-2.011-6.988-4.038c-2.047-1.179-4.152-2.418-6.6-1.835.036-.007.072-.012.107-.018a10.608,10.608,0,0,0-1.406.3,1.575,1.575,0,0,0-.164.058,18.436,18.436,0,0,0-2.755,1.46c-1.224.717-2.45,1.425-3.676,2.139q-3.806,2.216-7.613,4.427c-3.129,1.818-6.3,3.613-9.3,5.608-1.972,2.272,1.344,3.879,3.025,4.847q8.641,5,17.283,9.98c1.884,1.09,3.385,2.095,5.525,2.095a9.246,9.246,0,0,0,4.868-1.393q3.651-2.124,7.3-4.243c4.431-2.578,9.076-5,13.352-7.8-.356.222.2-.141.275-.194.1,0,.289-.245.365-.324a6.761,6.761,0,0,0,.418-.54,1.893,1.893,0,0,0,.255-.974" transform="translate(-55.402 -88.474)" fill="#d8ddf4"/>
                  </g>
                </g>
              </g>
              <g id="Group_4415" data-name="Group 4415" transform="translate(18.816 0.001)" opacity="0.561">
                <g id="Group_4414" data-name="Group 4414">
                  <g id="Group_4413" data-name="Group 4413" clip-path="url(#clip-path-20)">
                    <path id="Path_4207" data-name="Path 4207" d="M105.761,104.057c-.121-2.222-3.585-3.392-5.19-4.319q-4.539-2.624-9.086-5.243-3.5-2.011-6.988-4.038c-2.047-1.179-4.152-2.418-6.6-1.835.035-.007.072-.012.107-.018a10.61,10.61,0,0,0-1.406.3,1.576,1.576,0,0,0-.164.058,18.438,18.438,0,0,0-2.755,1.46c-1.224.718-2.45,1.425-3.676,2.139Q66.2,94.78,62.39,96.991c-3.13,1.818-6.3,3.613-9.3,5.608-1.972,2.271,1.344,3.878,3.025,4.847q8.641,5,17.283,9.98c1.884,1.089,3.385,2.094,5.525,2.094a9.246,9.246,0,0,0,4.868-1.392q3.651-2.124,7.3-4.244c4.431-2.577,9.076-5,13.351-7.8-.356.222.2-.141.276-.194.1,0,.289-.245.365-.324a6.766,6.766,0,0,0,.418-.54,1.889,1.889,0,0,0,.255-.974" transform="translate(-52.487 -88.474)" fill="#d7dcf4"/>
                  </g>
                </g>
              </g>
              <g id="Group_4418" data-name="Group 4418" transform="translate(17.77 0.001)" opacity="0.585">
                <g id="Group_4417" data-name="Group 4417">
                  <g id="Group_4416" data-name="Group 4416" clip-path="url(#clip-path-20)">
                    <path id="Path_4208" data-name="Path 4208" d="M102.846,104.057c-.121-2.222-3.585-3.392-5.19-4.319Q93.117,97.113,88.57,94.5q-3.5-2.011-6.988-4.038c-2.047-1.179-4.152-2.418-6.6-1.835.035-.007.071-.012.107-.018a10.552,10.552,0,0,0-1.406.3,1.576,1.576,0,0,0-.164.058,18.437,18.437,0,0,0-2.755,1.46c-1.224.718-2.45,1.425-3.676,2.139q-3.805,2.216-7.612,4.427c-3.13,1.818-6.3,3.613-9.3,5.608-1.972,2.272,1.344,3.879,3.025,4.847q8.641,5,17.283,9.98c1.884,1.089,3.385,2.095,5.525,2.095a9.25,9.25,0,0,0,4.868-1.392q3.651-2.124,7.3-4.244c4.431-2.577,9.076-5,13.351-7.8-.356.222.2-.141.276-.194.1,0,.289-.245.365-.324.123-.127.411-.528.418-.54a1.889,1.889,0,0,0,.255-.974" transform="translate(-49.572 -88.474)" fill="#d5daf3"/>
                  </g>
                </g>
              </g>
              <g id="Group_4421" data-name="Group 4421" transform="translate(16.725 0.001)" opacity="0.61">
                <g id="Group_4420" data-name="Group 4420">
                  <g id="Group_4419" data-name="Group 4419" clip-path="url(#clip-path-20)">
                    <path id="Path_4209" data-name="Path 4209" d="M99.931,104.057c-.12-2.222-3.585-3.392-5.19-4.319Q90.2,97.113,85.656,94.5q-3.5-2.011-6.988-4.038c-2.047-1.179-4.152-2.418-6.6-1.835.036-.007.071-.012.107-.018a10.519,10.519,0,0,0-1.406.3,1.526,1.526,0,0,0-.164.058,18.437,18.437,0,0,0-2.755,1.46c-1.224.718-2.45,1.425-3.676,2.14q-3.805,2.216-7.612,4.427c-3.13,1.818-6.3,3.613-9.3,5.608-1.972,2.271,1.344,3.878,3.024,4.847q8.641,5,17.283,9.98c1.884,1.089,3.385,2.094,5.525,2.094a9.249,9.249,0,0,0,4.868-1.392q3.651-2.124,7.3-4.244c4.431-2.577,9.076-5,13.351-7.8-.356.222.2-.141.276-.194.095,0,.288-.245.365-.324.123-.127.411-.528.418-.54a1.885,1.885,0,0,0,.255-.974" transform="translate(-46.657 -88.474)" fill="#d3d8f3"/>
                  </g>
                </g>
              </g>
              <g id="Group_4424" data-name="Group 4424" transform="translate(15.68 0.001)" opacity="0.634">
                <g id="Group_4423" data-name="Group 4423">
                  <g id="Group_4422" data-name="Group 4422" clip-path="url(#clip-path-20)">
                    <path id="Path_4210" data-name="Path 4210" d="M97.016,104.057c-.121-2.222-3.585-3.392-5.19-4.319q-4.539-2.624-9.086-5.243-3.5-2.011-6.988-4.038c-2.047-1.179-4.152-2.418-6.6-1.835.036-.007.072-.012.107-.018a10.585,10.585,0,0,0-1.406.3,1.608,1.608,0,0,0-.164.058,18.484,18.484,0,0,0-2.755,1.459c-1.224.718-2.45,1.426-3.676,2.14q-3.805,2.216-7.612,4.427c-3.13,1.818-6.3,3.613-9.3,5.608-1.972,2.272,1.344,3.879,3.024,4.847q8.642,5,17.284,9.98c1.884,1.089,3.385,2.095,5.525,2.095a9.249,9.249,0,0,0,4.868-1.392q3.651-2.124,7.3-4.244c4.431-2.578,9.076-5,13.351-7.8-.356.222.205-.141.276-.194.095,0,.288-.245.365-.324.123-.127.411-.528.418-.54a1.885,1.885,0,0,0,.255-.974" transform="translate(-43.742 -88.474)" fill="#d1d7f2"/>
                  </g>
                </g>
              </g>
              <g id="Group_4427" data-name="Group 4427" transform="translate(14.634 0.001)" opacity="0.659">
                <g id="Group_4426" data-name="Group 4426">
                  <g id="Group_4425" data-name="Group 4425" clip-path="url(#clip-path-20)">
                    <path id="Path_4211" data-name="Path 4211" d="M94.1,104.057c-.12-2.222-3.585-3.393-5.19-4.319q-4.539-2.624-9.086-5.243-3.5-2.011-6.988-4.037c-2.047-1.179-4.152-2.418-6.6-1.835.035-.008.072-.012.107-.018a10.583,10.583,0,0,0-1.406.3,1.6,1.6,0,0,0-.164.058,18.449,18.449,0,0,0-2.755,1.459c-1.224.718-2.449,1.425-3.676,2.14q-3.8,2.216-7.612,4.427c-3.13,1.818-6.3,3.613-9.3,5.608-1.972,2.272,1.344,3.879,3.024,4.847q8.642,5,17.284,9.98c1.884,1.089,3.385,2.095,5.525,2.095a9.247,9.247,0,0,0,4.867-1.392q3.652-2.124,7.3-4.244c4.431-2.577,9.076-5,13.351-7.8-.356.222.205-.141.276-.194.095,0,.288-.245.365-.324.123-.127.411-.528.418-.54a1.882,1.882,0,0,0,.255-.974" transform="translate(-40.827 -88.474)" fill="#d0d5f2"/>
                  </g>
                </g>
              </g>
              <g id="Group_4430" data-name="Group 4430" transform="translate(13.589 0.001)" opacity="0.683">
                <g id="Group_4429" data-name="Group 4429">
                  <g id="Group_4428" data-name="Group 4428" clip-path="url(#clip-path-32)">
                    <path id="Path_4212" data-name="Path 4212" d="M91.186,104.057c-.12-2.222-3.585-3.393-5.19-4.319q-4.538-2.624-9.086-5.243-3.495-2.011-6.988-4.037c-2.046-1.179-4.152-2.418-6.6-1.835.036-.008.072-.012.107-.018a10.583,10.583,0,0,0-1.406.3,1.6,1.6,0,0,0-.164.058A18.449,18.449,0,0,0,59.1,90.424c-1.224.718-2.449,1.425-3.676,2.14q-3.8,2.216-7.612,4.427c-3.13,1.818-6.3,3.613-9.3,5.608-1.972,2.271,1.344,3.879,3.024,4.847q8.642,5,17.284,9.98c1.885,1.089,3.385,2.095,5.525,2.095a9.246,9.246,0,0,0,4.867-1.392q3.652-2.124,7.3-4.244c4.431-2.577,9.076-5,13.351-7.8-.356.221.205-.141.276-.194.095,0,.288-.245.365-.324.123-.127.411-.528.418-.54a1.878,1.878,0,0,0,.255-.973" transform="translate(-37.912 -88.474)" fill="#ced4f1"/>
                  </g>
                </g>
              </g>
              <g id="Group_4433" data-name="Group 4433" transform="translate(12.544 0.001)" opacity="0.707">
                <g id="Group_4432" data-name="Group 4432">
                  <g id="Group_4431" data-name="Group 4431" clip-path="url(#clip-path-32)">
                    <path id="Path_4213" data-name="Path 4213" d="M88.271,104.058c-.12-2.222-3.585-3.393-5.19-4.319Q78.543,97.114,74,94.5q-3.495-2.011-6.988-4.037c-2.046-1.179-4.152-2.418-6.6-1.835.036-.008.072-.012.107-.018a10.518,10.518,0,0,0-1.406.3,1.638,1.638,0,0,0-.164.058,18.411,18.411,0,0,0-2.754,1.459c-1.224.718-2.45,1.425-3.676,2.14q-3.8,2.216-7.612,4.427c-3.13,1.818-6.3,3.613-9.3,5.608-1.972,2.272,1.344,3.879,3.023,4.847q8.642,5,17.284,9.98c1.884,1.089,3.385,2.094,5.525,2.094a9.246,9.246,0,0,0,4.867-1.392q3.652-2.124,7.3-4.244c4.431-2.577,9.076-5,13.351-7.8-.356.221.205-.141.276-.194.095,0,.288-.245.365-.324.123-.127.411-.528.418-.54a1.875,1.875,0,0,0,.255-.973" transform="translate(-34.997 -88.475)" fill="#ccd2f1"/>
                  </g>
                </g>
              </g>
              <g id="Group_4436" data-name="Group 4436" transform="translate(11.499 0.001)" opacity="0.732">
                <g id="Group_4435" data-name="Group 4435">
                  <g id="Group_4434" data-name="Group 4434" clip-path="url(#clip-path-32)">
                    <path id="Path_4214" data-name="Path 4214" d="M85.357,104.058c-.121-2.222-3.585-3.393-5.19-4.319q-4.538-2.624-9.086-5.243-3.495-2.011-6.988-4.037c-2.046-1.179-4.152-2.418-6.6-1.835.036-.008.072-.013.107-.018a10.5,10.5,0,0,0-1.405.3,1.577,1.577,0,0,0-.164.058,18.4,18.4,0,0,0-2.755,1.459c-1.225.718-2.45,1.425-3.676,2.14q-3.8,2.216-7.612,4.427c-3.129,1.818-6.3,3.613-9.3,5.608-1.972,2.271,1.344,3.879,3.023,4.847q8.642,5,17.284,9.98c1.884,1.089,3.385,2.095,5.525,2.095a9.246,9.246,0,0,0,4.867-1.392q3.652-2.124,7.3-4.244c4.431-2.577,9.076-5,13.351-7.8-.356.221.205-.141.276-.194.095,0,.288-.245.365-.324.123-.127.411-.528.418-.54a1.874,1.874,0,0,0,.255-.973" transform="translate(-32.083 -88.475)" fill="#cad1f0"/>
                  </g>
                </g>
              </g>
              <g id="Group_4439" data-name="Group 4439" transform="translate(10.453 0.001)" opacity="0.756">
                <g id="Group_4438" data-name="Group 4438">
                  <g id="Group_4437" data-name="Group 4437" clip-path="url(#clip-path-32)">
                    <path id="Path_4215" data-name="Path 4215" d="M82.442,104.058c-.12-2.222-3.585-3.393-5.19-4.319q-4.538-2.624-9.086-5.243-3.495-2.011-6.988-4.037c-2.046-1.179-4.151-2.418-6.6-1.835.036-.008.072-.013.106-.018a10.43,10.43,0,0,0-1.405.3,1.5,1.5,0,0,0-.164.058,18.4,18.4,0,0,0-2.755,1.459c-1.225.718-2.45,1.425-3.676,2.14q-3.8,2.216-7.612,4.427c-3.13,1.818-6.3,3.613-9.3,5.608-1.972,2.272,1.344,3.879,3.023,4.847q8.642,5,17.284,9.98c1.884,1.089,3.385,2.094,5.525,2.094a9.246,9.246,0,0,0,4.867-1.392q3.652-2.124,7.3-4.244c4.431-2.577,9.076-5,13.351-7.8-.355.221.205-.141.276-.194.095,0,.288-.245.365-.325.123-.126.411-.528.418-.54a1.867,1.867,0,0,0,.255-.973" transform="translate(-29.168 -88.475)" fill="#c9cff0"/>
                  </g>
                </g>
              </g>
              <g id="Group_4442" data-name="Group 4442" transform="translate(9.408 0.001)" opacity="0.78">
                <g id="Group_4441" data-name="Group 4441">
                  <g id="Group_4440" data-name="Group 4440" clip-path="url(#clip-path-32)">
                    <path id="Path_4216" data-name="Path 4216" d="M79.527,104.058c-.12-2.222-3.585-3.393-5.19-4.319Q69.8,97.114,65.251,94.5q-3.495-2.01-6.988-4.037c-2.046-1.179-4.151-2.418-6.6-1.835.036-.008.072-.013.107-.018a10.5,10.5,0,0,0-1.405.3,1.608,1.608,0,0,0-.164.058,18.4,18.4,0,0,0-2.755,1.459c-1.225.718-2.45,1.425-3.676,2.14q-3.8,2.216-7.612,4.427c-3.129,1.818-6.3,3.613-9.3,5.608-1.972,2.272,1.344,3.879,3.023,4.847q8.642,5,17.284,9.98c1.884,1.089,3.385,2.095,5.525,2.095a9.246,9.246,0,0,0,4.867-1.392q3.652-2.124,7.3-4.244c4.431-2.577,9.076-5,13.351-7.8-.355.221.206-.141.276-.194.095,0,.288-.245.365-.325.123-.126.411-.528.418-.54a1.867,1.867,0,0,0,.255-.973" transform="translate(-26.253 -88.475)" fill="#c7ceef"/>
                  </g>
                </g>
              </g>
              <g id="Group_4445" data-name="Group 4445" transform="translate(8.363 0.001)" opacity="0.805">
                <g id="Group_4444" data-name="Group 4444">
                  <g id="Group_4443" data-name="Group 4443" clip-path="url(#clip-path-32)">
                    <path id="Path_4217" data-name="Path 4217" d="M76.612,104.058c-.12-2.222-3.585-3.393-5.19-4.319q-4.538-2.624-9.086-5.243-3.495-2.01-6.988-4.037c-2.046-1.179-4.151-2.418-6.6-1.835.036-.008.072-.013.107-.018a10.439,10.439,0,0,0-1.405.3,1.639,1.639,0,0,0-.164.058,18.4,18.4,0,0,0-2.755,1.459c-1.225.718-2.45,1.425-3.676,2.14q-3.8,2.216-7.612,4.427c-3.129,1.818-6.3,3.613-9.3,5.608-1.972,2.271,1.344,3.879,3.023,4.847q8.643,5,17.285,9.98c1.884,1.089,3.385,2.095,5.525,2.095a9.246,9.246,0,0,0,4.867-1.392q3.652-2.124,7.3-4.245c4.431-2.577,9.076-5,13.351-7.8-.355.221.206-.141.276-.194.1,0,.288-.245.365-.325.123-.127.411-.528.418-.54a1.861,1.861,0,0,0,.255-.973" transform="translate(-23.338 -88.475)" fill="#c5ccef"/>
                  </g>
                </g>
              </g>
              <g id="Group_4448" data-name="Group 4448" transform="translate(7.317 0.001)" opacity="0.829">
                <g id="Group_4447" data-name="Group 4447">
                  <g id="Group_4446" data-name="Group 4446" clip-path="url(#clip-path-32)">
                    <path id="Path_4218" data-name="Path 4218" d="M73.7,104.058c-.12-2.222-3.585-3.393-5.19-4.319q-4.538-2.624-9.086-5.243-3.495-2.01-6.988-4.037c-2.046-1.179-4.151-2.418-6.6-1.835.036-.008.072-.013.107-.018a10.427,10.427,0,0,0-1.405.3,1.639,1.639,0,0,0-.164.058,18.4,18.4,0,0,0-2.755,1.459c-1.225.718-2.45,1.425-3.676,2.14q-3.8,2.216-7.612,4.427c-3.129,1.818-6.3,3.613-9.3,5.608-1.972,2.271,1.344,3.879,3.023,4.847q8.643,5,17.285,9.98c1.884,1.089,3.385,2.095,5.525,2.095a9.246,9.246,0,0,0,4.867-1.392q3.652-2.124,7.3-4.245c4.431-2.577,9.076-5,13.351-7.8-.355.221.206-.141.276-.194.1,0,.288-.245.365-.325.123-.127.411-.528.418-.54a1.861,1.861,0,0,0,.255-.973" transform="translate(-20.423 -88.475)" fill="#c3cbee"/>
                  </g>
                </g>
              </g>
              <g id="Group_4451" data-name="Group 4451" transform="translate(6.272 0.001)" opacity="0.854">
                <g id="Group_4450" data-name="Group 4450">
                  <g id="Group_4449" data-name="Group 4449" clip-path="url(#clip-path-32)">
                    <path id="Path_4219" data-name="Path 4219" d="M70.782,104.058c-.12-2.222-3.585-3.393-5.19-4.319q-4.538-2.624-9.086-5.243-3.495-2.01-6.988-4.037c-2.046-1.179-4.151-2.418-6.6-1.835.037-.008.072-.013.107-.018a10.427,10.427,0,0,0-1.405.3,1.639,1.639,0,0,0-.164.058A18.4,18.4,0,0,0,38.7,90.425c-1.225.718-2.45,1.425-3.676,2.14q-3.8,2.216-7.612,4.427c-3.13,1.818-6.3,3.613-9.3,5.608-1.972,2.272,1.344,3.879,3.023,4.847q8.643,5,17.285,9.98c1.884,1.088,3.384,2.094,5.525,2.094a9.244,9.244,0,0,0,4.867-1.392q3.653-2.124,7.3-4.245c4.431-2.577,9.076-5,13.351-7.8-.355.221.206-.141.276-.194.1,0,.288-.245.365-.325.123-.127.411-.528.418-.54a1.856,1.856,0,0,0,.255-.973" transform="translate(-17.508 -88.475)" fill="#c2c9ee"/>
                  </g>
                </g>
              </g>
              <g id="Group_4454" data-name="Group 4454" transform="translate(5.227 0.001)" opacity="0.878">
                <g id="Group_4453" data-name="Group 4453">
                  <g id="Group_4452" data-name="Group 4452" clip-path="url(#clip-path-32)">
                    <path id="Path_4220" data-name="Path 4220" d="M67.867,104.058c-.12-2.222-3.585-3.393-5.19-4.319q-4.538-2.624-9.086-5.243Q50.1,92.485,46.6,90.458c-2.046-1.179-4.151-2.418-6.6-1.835.037-.008.072-.013.107-.018a10.475,10.475,0,0,0-1.405.3,1.679,1.679,0,0,0-.164.058,18.425,18.425,0,0,0-2.755,1.459c-1.225.718-2.45,1.425-3.676,2.14q-3.8,2.216-7.612,4.427c-3.13,1.818-6.3,3.613-9.3,5.608-1.972,2.271,1.344,3.879,3.023,4.847q8.643,5,17.285,9.98c1.884,1.089,3.384,2.095,5.525,2.095a9.247,9.247,0,0,0,4.867-1.392q3.653-2.124,7.3-4.245c4.431-2.577,9.076-5,13.351-7.8-.355.221.206-.141.276-.194.1,0,.288-.245.365-.325.123-.126.411-.528.418-.54a1.853,1.853,0,0,0,.255-.973" transform="translate(-14.593 -88.474)" fill="#c0c8ed"/>
                  </g>
                </g>
              </g>
              <g id="Group_4457" data-name="Group 4457" transform="translate(4.181 0.001)" opacity="0.902">
                <g id="Group_4456" data-name="Group 4456">
                  <g id="Group_4455" data-name="Group 4455" clip-path="url(#clip-path-32)">
                    <path id="Path_4221" data-name="Path 4221" d="M64.951,104.058c-.12-2.222-3.585-3.394-5.19-4.319q-4.538-2.624-9.086-5.244-3.495-2.01-6.988-4.037c-2.046-1.179-4.151-2.418-6.6-1.835.037-.008.072-.013.107-.018a10.475,10.475,0,0,0-1.405.3,1.679,1.679,0,0,0-.164.058,18.442,18.442,0,0,0-2.755,1.459c-1.225.718-2.45,1.425-3.676,2.141q-3.8,2.216-7.612,4.427c-3.13,1.818-6.3,3.613-9.3,5.608-1.972,2.272,1.344,3.879,3.023,4.847q8.644,5,17.285,9.98c1.884,1.088,3.384,2.094,5.525,2.094a9.247,9.247,0,0,0,4.867-1.392q3.653-2.124,7.3-4.245c4.431-2.577,9.076-5,13.351-7.8-.355.221.206-.141.276-.194.1,0,.288-.245.365-.325.123-.126.411-.528.418-.54a1.852,1.852,0,0,0,.255-.973" transform="translate(-11.678 -88.475)" fill="#bec6ed"/>
                  </g>
                </g>
              </g>
              <g id="Group_4460" data-name="Group 4460" transform="translate(3.136 0.001)" opacity="0.927">
                <g id="Group_4459" data-name="Group 4459">
                  <g id="Group_4458" data-name="Group 4458" clip-path="url(#clip-path-32)">
                    <path id="Path_4222" data-name="Path 4222" d="M62.037,104.059c-.12-2.222-3.585-3.394-5.19-4.319Q52.309,97.115,47.76,94.5q-3.494-2.01-6.988-4.037c-2.046-1.179-4.151-2.418-6.6-1.835.037-.008.072-.013.107-.018a10.473,10.473,0,0,0-1.405.3,1.671,1.671,0,0,0-.164.058,18.392,18.392,0,0,0-2.755,1.459c-1.225.718-2.449,1.425-3.676,2.14q-3.8,2.216-7.612,4.427c-3.13,1.818-6.3,3.613-9.3,5.608-1.972,2.271,1.344,3.879,3.022,4.847q8.644,5,17.285,9.98c1.884,1.089,3.384,2.095,5.525,2.095a9.247,9.247,0,0,0,4.867-1.393l7.3-4.245c4.431-2.577,9.076-5,13.35-7.795-.355.221.206-.141.276-.194.1,0,.288-.245.365-.325.123-.126.411-.528.418-.54a1.847,1.847,0,0,0,.255-.973" transform="translate(-8.763 -88.475)" fill="#bcc5ec"/>
                  </g>
                </g>
              </g>
              <g id="Group_4463" data-name="Group 4463" transform="translate(2.091 0.001)" opacity="0.951">
                <g id="Group_4462" data-name="Group 4462">
                  <g id="Group_4461" data-name="Group 4461" clip-path="url(#clip-path-32)">
                    <path id="Path_4223" data-name="Path 4223" d="M59.122,104.059c-.12-2.222-3.585-3.394-5.19-4.319q-4.538-2.624-9.086-5.244-3.494-2.01-6.988-4.037c-2.046-1.179-4.151-2.418-6.6-1.835.037-.008.072-.013.106-.018a10.405,10.405,0,0,0-1.405.3,1.7,1.7,0,0,0-.164.058,18.391,18.391,0,0,0-2.755,1.459c-1.225.718-2.449,1.425-3.676,2.14q-3.8,2.216-7.612,4.427c-3.13,1.818-6.3,3.613-9.3,5.608-1.972,2.271,1.344,3.879,3.022,4.847q8.644,5,17.285,9.98c1.885,1.088,3.384,2.095,5.525,2.095a9.247,9.247,0,0,0,4.867-1.393l7.3-4.245c4.431-2.577,9.076-5,13.35-7.795-.355.221.206-.141.277-.194.095,0,.287-.245.365-.325.123-.126.411-.528.418-.54a1.847,1.847,0,0,0,.255-.973" transform="translate(-5.848 -88.475)" fill="#bac3ec"/>
                  </g>
                </g>
              </g>
              <g id="Group_4466" data-name="Group 4466" transform="translate(1.045 0.001)" opacity="0.976">
                <g id="Group_4465" data-name="Group 4465">
                  <g id="Group_4464" data-name="Group 4464" clip-path="url(#clip-path-32)">
                    <path id="Path_4224" data-name="Path 4224" d="M56.207,104.059c-.12-2.222-3.585-3.394-5.19-4.319q-4.538-2.624-9.086-5.244-3.494-2.01-6.988-4.037c-2.046-1.179-4.15-2.418-6.6-1.835.037-.009.072-.013.106-.018a10.385,10.385,0,0,0-1.405.3,1.638,1.638,0,0,0-.164.058,18.376,18.376,0,0,0-2.755,1.459c-1.225.718-2.449,1.425-3.676,2.14q-3.8,2.216-7.612,4.427c-3.13,1.818-6.3,3.613-9.3,5.608-1.972,2.271,1.344,3.879,3.022,4.847q8.644,5,17.285,9.98c1.885,1.088,3.384,2.094,5.525,2.094a9.246,9.246,0,0,0,4.867-1.393l7.3-4.245c4.431-2.577,9.076-5,13.35-7.795-.355.221.206-.141.277-.194.095,0,.287-.245.365-.325.123-.126.411-.528.418-.54a1.843,1.843,0,0,0,.255-.973" transform="translate(-2.933 -88.475)" fill="#b9c2eb"/>
                  </g>
                </g>
              </g>
              <path id="Path_4225" data-name="Path 4225" d="M53.292,104.059c-.12-2.222-3.585-3.394-5.191-4.319q-4.537-2.624-9.086-5.244-3.494-2.01-6.988-4.037c-2.046-1.179-4.15-2.418-6.6-1.835.037-.009.072-.013.106-.018a10.385,10.385,0,0,0-1.405.3,1.639,1.639,0,0,0-.164.058,18.357,18.357,0,0,0-2.755,1.459c-1.226.718-2.45,1.425-3.677,2.14q-3.8,2.216-7.612,4.427c-3.13,1.818-6.3,3.613-9.3,5.608-1.972,2.271,1.344,3.879,3.022,4.847q8.644,5,17.286,9.98c1.884,1.088,3.384,2.095,5.525,2.095a9.246,9.246,0,0,0,4.867-1.393l7.3-4.245c4.431-2.577,9.076-5,13.35-7.795-.354.221.207-.141.277-.194.095,0,.288-.244.365-.325a6.634,6.634,0,0,0,.418-.54,2.2,2.2,0,0,0,.255-.973" transform="translate(-0.018 -88.474)" fill="#b7c0eb"/>
            </g>
          </g>
        </g>
      </g>
    </g>
    <g id="Group_4473" data-name="Group 4473" transform="translate(1.141 0.294)">
      <g id="Group_4472" data-name="Group 4472" clip-path="url(#clip-path-45)">
        <rect id="Rectangle_920" data-name="Rectangle 920" width="51.724" height="29.758" transform="translate(-0.354 -0.002)" fill="url(#linear-gradient)"/>
      </g>
    </g>
    <g id="Group_4475" data-name="Group 4475">
      <g id="Group_4474" data-name="Group 4474" clip-path="url(#clip-path)">
        <path id="Path_4227" data-name="Path 4227" d="M53.283,45.3c-.006.057-.011.116-.023.172s-.02.086-.027.124c-.02.055-.033.112-.052.166s-.034.084-.054.131a1.506,1.506,0,0,1-.073.164c-.024.037-.048.071-.075.113-.036.061-.078.122-.12.185-.024.035-.057.069-.085.1a3.076,3.076,0,0,1-.223.239c-.033.029-.056.059-.086.083-.051.051-.109.093-.161.137s-.095.081-.147.118l-.184.123c-.068.041-.134.086-.208.128,0,0-21.912,12.687-21.965,12.706-.133.055-.737.26-.828.287l-.209.058-.488.1c-.2.034-.714.088-.773.1a3.625,3.625,0,0,1-.375.024c-.071.01-.418.01-.51.01s-.666-.034-.745-.041-.181-.023-.271-.031-.66-.108-.729-.122c-.114-.025-.445-.113-.506-.133-.191-.055-.384-.119-.568-.188a.547.547,0,0,0-.074-.033,6.737,6.737,0,0,1-.717-.342L1.553,47.289A2.632,2.632,0,0,1,0,45.123S0,76.247.005,76.324c0,.011.015.078.02.106s.023.119.023.119c.017.077.038.141.055.2l.006,0a2.315,2.315,0,0,0,.308.588,3.535,3.535,0,0,0,.619.64c.123.109,20.19,11.7,22.042,12.766v.016h0c.005.006.01.011.014.011.1.054,1.508.6,1.518.6.063.014.483.112.5.112l.445.073.1.016a8.451,8.451,0,0,0,2.138,0c.034-.005.4-.061.452-.074h.027c.117-.02.953-.247.967-.247.048-.018.1-.034.144-.049l.064-.023c.044-.024.484-.2.6-.254l.328-.175,21.655-12.6a.206.206,0,0,1,.041-.032c.057-.037.168-.122.168-.122a6.931,6.931,0,0,0,.742-.835A.239.239,0,0,0,53,77.117l.01-.015.013-.025.007-.007a.262.262,0,0,1,.017-.038.584.584,0,0,0,.04-.085l.013-.022.006-.013c.015-.04.029-.072.029-.072l.01-.031c.013-.027.02-.057.033-.087l.007-.022a.029.029,0,0,1-.006.017.885.885,0,0,0,.028-.092l0-.014V76.6c.027-.1.037-.172.047-.215l-.01.027a.016.016,0,0,1,0-.01l.005-.01c0-.013,0-.034,0-.045a1.343,1.343,0,0,1,.013-.143c0-.011,0-.031,0-.045a.238.238,0,0,1,0-.043l.008-30.964c0,.043-.007.093-.009.147" transform="translate(0 -28.941)" fill="#b7c0eb"/>
        <path id="Path_4228" data-name="Path 4228" d="M53.283,45.3c-.006.057-.011.116-.023.172s-.02.086-.027.124c-.02.055-.033.112-.052.166s-.034.084-.054.131a1.506,1.506,0,0,1-.073.164c-.024.037-.048.071-.075.113-.036.061-.078.122-.12.185-.024.035-.057.069-.085.1a3.076,3.076,0,0,1-.223.239c-.033.029-.056.059-.086.083-.051.051-.109.093-.161.137s-.095.081-.147.118l-.184.123c-.068.041-.134.086-.208.128,0,0-21.912,12.687-21.965,12.706-.133.055-.737.26-.828.287l-.209.058-.488.1c-.2.034-.714.088-.773.1a3.625,3.625,0,0,1-.375.024c-.071.01-.418.01-.51.01s-.666-.034-.745-.041-.181-.023-.271-.031-.66-.108-.729-.122c-.114-.025-.445-.113-.506-.133-.191-.055-.384-.119-.568-.188a.547.547,0,0,0-.074-.033,6.737,6.737,0,0,1-.717-.342L1.553,47.289A2.632,2.632,0,0,1,0,45.123S0,76.247.005,76.324c0,.011.015.078.02.106s.023.119.023.119c.017.077.038.141.055.2l.006,0a2.315,2.315,0,0,0,.308.588,3.535,3.535,0,0,0,.619.64c.123.109,20.19,11.7,22.042,12.766v.016h0c.005.006.01.011.014.011.1.054,1.508.6,1.518.6.063.014.483.112.5.112l.445.073.1.016a8.451,8.451,0,0,0,2.138,0c.034-.005.4-.061.452-.074h.027c.117-.02.953-.247.967-.247.048-.018.1-.034.144-.049l.064-.023c.044-.024.484-.2.6-.254l.328-.175,21.655-12.6a.206.206,0,0,1,.041-.032c.057-.037.168-.122.168-.122a6.931,6.931,0,0,0,.742-.835A.239.239,0,0,0,53,77.117l.01-.015.013-.025.007-.007a.262.262,0,0,1,.017-.038.584.584,0,0,0,.04-.085l.013-.022.006-.013c.015-.04.029-.072.029-.072l.01-.031c.013-.027.02-.057.033-.087l.007-.022a.029.029,0,0,1-.006.017.885.885,0,0,0,.028-.092l0-.014V76.6c.027-.1.037-.172.047-.215l-.01.027a.016.016,0,0,1,0-.01l.005-.01c0-.013,0-.034,0-.045a1.343,1.343,0,0,1,.013-.143c0-.011,0-.031,0-.045a.238.238,0,0,1,0-.043l.008-30.964c0,.043-.007.093-.009.147" transform="translate(0 -28.941)" fill="#b7c0eb"/>
        <path id="Path_4229" data-name="Path 4229" d="M56.472,18.5a1.314,1.314,0,0,1,.016,2.485q-9.2,5.351-18.4,10.7a4.708,4.708,0,0,1-4.287,0q-9.261-5.346-18.524-10.7a1.311,1.311,0,0,1-.013-2.479q9.2-5.347,18.4-10.7a4.743,4.743,0,0,1,4.283,0Q47.215,13.164,56.472,18.5" transform="translate(-9.225 -4.684)" fill="#fdfcff"/>
      </g>
    </g>
    <g id="Group_4477" data-name="Group 4477" transform="translate(20.954 11.769)">
      <g id="Group_4476" data-name="Group 4476" clip-path="url(#clip-path-47)">
        <rect id="Rectangle_922" data-name="Rectangle 922" width="12.377" height="12.968" transform="translate(-3.25 3.873) rotate(-50.002)" fill="url(#linear-gradient-2)"/>
      </g>
    </g>
    <g id="Group_4479" data-name="Group 4479">
      <g id="Group_4478" data-name="Group 4478" clip-path="url(#clip-path)">
        <path id="Path_4231" data-name="Path 4231" d="M53.286,15.514c0-.034,0-.065-.006-.1v0a.631.631,0,0,0,0-.075c0-.02,0-.041-.007-.061a.028.028,0,0,1,0-.016l-.006-.024v-.009l-.007-.025v-.011c-.014-.058-.017-.112-.034-.162a1.161,1.161,0,0,0-.054-.161.217.217,0,0,0-.024-.071,2.382,2.382,0,0,0-.414-.676.269.269,0,0,0-.033-.034l0-.009c-.013-.018-.034-.034-.044-.047-.027-.03-.049-.052-.074-.084a.176.176,0,0,1-.031-.028.533.533,0,0,1-.074-.078l-.23-.191a1.564,1.564,0,0,0-.253-.189.06.06,0,0,0-.031-.02c-.034-.024-.071-.053-.114-.08-.027-.013-.055-.031-.089-.049-.009-.007-.027-.017-.038-.027l-.04-.024L50.6,12.636l-1.072-.62-.533-.3c-.9-.517-1.792-1.032-2.68-1.552l-1.079-.618L44.16,8.923l-.533-.307c-.3-.177-.6-.349-.893-.522l-.72-.412-1.023-.588-.306-.182-.813-.464L38.8,5.829l-1.073-.621-1.074-.624-.711-.409L33.537,2.787l-.1-.055L32.364,2.11l-1.076-.619-.394-.23L30.21.871A.049.049,0,0,1,30.2.858h-.023L30.161.851c-.091-.05-.185-.1-.266-.14l-.14-.063L29.68.614,29.57.566c-.089-.041-.209-.082-.308-.123L29.217.427,29.2.42l-.02,0C29.156.409,29.135.4,29.112.4l-.25-.083c-.044-.009-.1-.025-.151-.037a.235.235,0,0,1-.044-.015C28.6.252,28.54.231,28.49.218L28.225.164C28.2.159,28.2.159,28.179.153L28.128.141a.166.166,0,0,0,.027.008.29.29,0,0,1-.039-.008l-.013,0a.256.256,0,0,1-.082-.02,2.124,2.124,0,0,1-.215-.03.208.208,0,0,1-.072-.01l-.1-.009a8.121,8.121,0,0,0-2.143,0c-.028,0-.052,0-.072.007L25.528.06,25.4.08l-.176.027c-.058.013-.12.024-.178.032l-.024,0c-.025.007-.057.011-.089.023h-.007c-.1.018-.2.041-.285.057-.126.031-.23.058-.331.086l-.03.007c-.058.019-.127.041-.2.065l-.025.005.068-.021-.076.024a.127.127,0,0,0-.017.01.405.405,0,0,0-.071.023l.079-.03-.074.025a.024.024,0,0,1-.013,0l-.015,0h.006l-.03.01-.191.072a.494.494,0,0,1-.057.023L23.57.566A2.632,2.632,0,0,0,23.259.7c-.01.007-.027.013-.037.02-.091.048-.217.112-.307.165l-1.063.616-1.066.62-1.069.621-1.064.615-1.067.624-1.068.621-1.066.618-1.063.616L12.261,7.084l-1.07.619-1.067.62-1.064.619-.864.5c-.17.1-.334.192-.5.291l-.769.443-.849.495C4.586,11.542,3.092,12.4,1.6,13.277c0,0-.007.007-.01.007a.04.04,0,0,0-.013.008c-.092.056-.191.121-.273.172l-.048.036a.407.407,0,0,0-.051.037l-.154.117c-.037.032-.083.071-.124.1-.006.008-.01.008-.01.008-.044.037-.088.077-.123.11l-.141.151s-.01,0-.013.01a.076.076,0,0,1-.02.018l-.02.03c-.041.042-.088.1-.134.16-.024.041-.054.076-.081.119a1.55,1.55,0,0,0-.1.165l-.009.011c-.007.011-.011.023-.014.028a.173.173,0,0,0-.017.037,1.942,1.942,0,0,0-.093.2l-.074.225c0,.01-.007.027-.01.034-.014.058-.027.116-.037.179,0,.014,0,.043-.007.057a2.086,2.086,0,0,0-.014.232A2.627,2.627,0,0,0,1.558,17.7L23.012,30.085c.123.072.247.137.374.2l.017.011h.013a.044.044,0,0,0,.017.009l.023.013a.153.153,0,0,1,.021.008.235.235,0,0,1,.063.027l.034.015a.337.337,0,0,1,.062.027.292.292,0,0,0,.045.021h0c.01.006.027.007.042.015a.159.159,0,0,0,.054.024.247.247,0,0,1-.052-.024.555.555,0,0,0,.09.036c.019.009.04.015.062.027s.031.007.044.013.047.016.068.027c.04.016.079.025.116.04a.021.021,0,0,1,.014.007.565.565,0,0,1,.063.018l.013.006a.147.147,0,0,1,.057.017c.034.011.065.016.1.027a.18.18,0,0,0,.053.016h0l.013.007h.013a.653.653,0,0,0,.093.025l.092.029a.64.64,0,0,1,.089.024c.028,0,.054.011.085.015.01,0,.025.007.039.011a.276.276,0,0,1,.037.01.238.238,0,0,1,.065.013.061.061,0,0,1,.025.006.028.028,0,0,0-.014-.006.211.211,0,0,1,.045.011c.049.009.108.021.161.03a.369.369,0,0,0,.052.01.06.06,0,0,0,.02.006c.041,0,.081.007.12.014s.078.013.112.02a.112.112,0,0,0,.03.006.276.276,0,0,1,.048.009.576.576,0,0,1,.119.011c.037,0,.073.009.112.014a.854.854,0,0,0,.106.008.651.651,0,0,1,.113.016h.055l0,.005c.032,0,.066,0,.094,0a.232.232,0,0,1,.065.006.041.041,0,0,0,.014,0h.113c.041,0,.08.009.121.009h.588c.024,0,.048-.008.074-.008.128,0,.261-.013.393-.025a.165.165,0,0,0,.063-.009h.057c.015,0,.027,0,.039,0a.2.2,0,0,1,.051,0c.188-.022.375-.046.563-.079a.082.082,0,0,1,.029-.007c-.01,0-.017,0-.023.007.047-.013.1-.021.147-.031s.1-.02.145-.03a6.123,6.123,0,0,0,.664-.175.029.029,0,0,1,.017-.006,5.93,5.93,0,0,0,1.193-.52l21.318-12.39v-.02c.071-.044.136-.082.2-.127-.047.027-.087.061-.142.09.037-.023.082-.045.118-.069a.177.177,0,0,1,.047-.036,1.417,1.417,0,0,1,.148-.1c.037-.028.072-.055.106-.084l.01,0A.26.26,0,0,0,52.3,17.3a1.586,1.586,0,0,0,.147-.112c.024-.023.048-.047.075-.071s.032-.031.044-.045.03-.033.046-.048.061-.061.09-.088.061-.079.093-.119a.246.246,0,0,1,.028-.03.018.018,0,0,1,.008-.008.115.115,0,0,1,.017-.027.305.305,0,0,0,.028-.041.189.189,0,0,0,.033-.045.629.629,0,0,0,.064-.1,1.034,1.034,0,0,0,.067-.117l.009-.009a.148.148,0,0,0-.02.044.543.543,0,0,1,.031-.063.327.327,0,0,1,.014-.033l.009-.011a.1.1,0,0,0,.01-.031s.007-.007.007-.011c.02-.046.039-.088.054-.124,0-.01.007-.019.01-.025h0v-.006c0-.018.013-.033.017-.049a.018.018,0,0,1,.011-.016.347.347,0,0,1,.009-.048.891.891,0,0,0,.025-.089.226.226,0,0,0,.007-.057v0a.116.116,0,0,0,.014-.034v-.007l0-.016v0l0-.008a.032.032,0,0,1,.006-.023v-.021a.664.664,0,0,0,.011-.118c0-.025,0-.049.005-.075s0-.044,0-.064v-.037Zm-2.757.988L29.213,28.892a5.46,5.46,0,0,1-4.96,0h0L2.8,16.5h0c-1.371-.79-1.377-2.082-.019-2.871L24.1,1.24a5.479,5.479,0,0,1,4.953,0l.01,0L50.5,13.613c1.372.795,1.382,2.082.017,2.874.074.042.023.027.011.015" transform="translate(-0.006)" fill="#fdfcff"/>
      </g>
    </g>
    <g id="Group_4481" data-name="Group 4481" transform="translate(0 15.533)">
      <g id="Group_4480" data-name="Group 4480" clip-path="url(#clip-path-49)">
        <rect id="Rectangle_924" data-name="Rectangle 924" width="53.291" height="46.547" transform="translate(0 -0.002)" fill="url(#linear-gradient-3)"/>
      </g>
    </g>
    <g id="Group_4483" data-name="Group 4483" transform="translate(10.482 24.16)">
      <g id="Group_4482" data-name="Group 4482" clip-path="url(#clip-path-50)">
        <rect id="Rectangle_925" data-name="Rectangle 925" width="32.388" height="28.284" transform="translate(-0.002 -0.001)" fill="url(#linear-gradient-4)"/>
      </g>
    </g>
    <g id="Group_4485" data-name="Group 4485" transform="translate(17.472 33.363)">
      <g id="Group_4484" data-name="Group 4484" clip-path="url(#clip-path-51)">
        <rect id="Rectangle_926" data-name="Rectangle 926" width="17.843" height="15.586" transform="translate(-0.003 -0.001)" fill="url(#linear-gradient-5)"/>
      </g>
    </g>
    <g id="Group_4487" data-name="Group 4487">
      <g id="Group_4486" data-name="Group 4486" clip-path="url(#clip-path)">
        <path id="Path_4235" data-name="Path 4235" d="M66.558,93.095c0,.02-8.106,5.007-8.136,5.017s-.048.013-.074.017-.141.034-.161.037c-.067.01-.342.035-.384.038-.022,0-.4-.007-.422-.011s-.06,0-.09-.008l-.412-.086c-.067-.018-.207-.071-.215-.071-.084-.037-7.941-4.729-7.941-4.992,0,0-.005,10.422,0,10.447l.007.034a.435.435,0,0,1,.005.044c0,.024.014.045.019.066a.822.822,0,0,0,.106.2,1.406,1.406,0,0,0,.208.218c.039.034,6.761,3.916,7.38,4.271v.005l0,0c.032.022.506.2.506.2.024.01.167.041.167.041s.114.017.151.025h.033a2.634,2.634,0,0,0,.717,0c.01,0,.134-.019.155-.024h.007c.039,0,.316-.085.316-.085a.333.333,0,0,0,.057-.013l.021-.005c.015-.009.161-.068.2-.087,0,0,.088-.044.108-.058l7.25-4.218.015-.009.058-.045a2.644,2.644,0,0,0,.247-.28.117.117,0,0,0,.01-.016v0l.006-.009,0,0h0s.007-.007.007-.01.013-.02.014-.03l.006-.008v0a.129.129,0,0,1,.011-.024l0-.011a.084.084,0,0,0,.01-.028l0-.013,0,.008a.085.085,0,0,0,.01-.029l0,0h0a.568.568,0,0,0,.014-.076l0,.013,0-.007a.039.039,0,0,1,0-.014.316.316,0,0,1,0-.048v-.037l0-10.365A.306.306,0,0,1,66.558,93.095Z" transform="translate(-31.249 -59.672)" fill="none" stroke="#fff" stroke-miterlimit="10" stroke-width="0.662"/>
        <path id="Path_4236" data-name="Path 4236" d="M4.6,58.776c-.242-.143-.448-.028-.448.259a.982.982,0,0,0,.447.769c.246.141.447.029.447-.257a.968.968,0,0,0-.445-.771" transform="translate(-2.66 -37.659)" fill="#437fec"/>
        <path id="Path_4237" data-name="Path 4237" d="M14.319,64.388c-.247-.143-.448-.03-.448.253a.989.989,0,0,0,.444.775c.247.14.448.027.448-.257a.969.969,0,0,0-.444-.77" transform="translate(-8.897 -41.258)" fill="#437fec"/>
        <path id="Path_4238" data-name="Path 4238" d="M19.177,67.2c-.242-.139-.443-.03-.445.257a.977.977,0,0,0,.445.768c.25.144.448.028.448-.255a.969.969,0,0,0-.448-.77" transform="translate(-12.014 -43.061)" fill="#437fec"/>
        <path id="Path_4239" data-name="Path 4239" d="M4.584,63.836c-.247-.143-.445-.024-.448.26a.97.97,0,0,0,.445.769c.248.143.448.028.448-.256a.991.991,0,0,0-.445-.773" transform="translate(-2.653 -40.905)" fill="#437fec"/>
        <path id="Path_4240" data-name="Path 4240" d="M14.308,69.454c-.25-.141-.445-.029-.448.255a.977.977,0,0,0,.442.771c.25.142.451.027.451-.254a.988.988,0,0,0-.445-.772" transform="translate(-8.89 -44.508)" fill="#437fec"/>
        <path id="Path_4241" data-name="Path 4241" d="M19.167,72.257c-.25-.138-.451-.023-.451.259a.984.984,0,0,0,.446.769c.246.142.447.029.447-.253a1,1,0,0,0-.443-.775" transform="translate(-12.004 -46.308)" fill="#437fec"/>
        <path id="Path_4242" data-name="Path 4242" d="M4.566,68.907c-.245-.143-.447-.024-.45.255a.979.979,0,0,0,.446.77c.246.143.447.03.45-.253a.985.985,0,0,0-.446-.772" transform="translate(-2.64 -44.158)" fill="#437fec"/>
        <path id="Path_4243" data-name="Path 4243" d="M14.3,74.52c-.246-.146-.444-.031-.444.254a.97.97,0,0,0,.444.772c.243.14.446.025.446-.259a.978.978,0,0,0-.446-.767" transform="translate(-8.884 -47.756)" fill="#437fec"/>
        <path id="Path_4244" data-name="Path 4244" d="M19.16,77.329c-.25-.143-.448-.03-.448.256a.981.981,0,0,0,.443.769c.244.141.448.024.448-.256a.974.974,0,0,0-.443-.769" transform="translate(-12.002 -49.558)" fill="#437fec"/>
        <path id="Path_4245" data-name="Path 4245" d="M4.556,73.969c-.247-.14-.448-.028-.448.256A.986.986,0,0,0,4.552,75c.246.144.449.025.449-.256a.985.985,0,0,0-.445-.772" transform="translate(-2.635 -47.405)" fill="#437fec"/>
        <path id="Path_4246" data-name="Path 4246" d="M14.275,79.585c-.246-.146-.448-.029-.451.255a.991.991,0,0,0,.445.77c.247.142.448.027.451-.257a.979.979,0,0,0-.445-.768" transform="translate(-8.867 -51.005)" fill="#437fec"/>
        <path id="Path_4247" data-name="Path 4247" d="M19.138,82.391c-.245-.141-.447-.028-.447.256a.981.981,0,0,0,.444.771c.249.143.447.027.451-.255a.982.982,0,0,0-.448-.772" transform="translate(-11.988 -52.806)" fill="#437fec"/>
        <path id="Path_4248" data-name="Path 4248" d="M4.542,79.031c-.249-.14-.447-.027-.45.259a.979.979,0,0,0,.447.773c.245.14.447.024.447-.26a.99.99,0,0,0-.444-.772" transform="translate(-2.625 -50.651)" fill="#437fec"/>
        <path id="Path_4249" data-name="Path 4249" d="M14.262,84.645c-.249-.144-.447-.027-.449.257a.98.98,0,0,0,.446.768c.246.143.448.032.448-.255a.989.989,0,0,0-.445-.77" transform="translate(-8.86 -54.251)" fill="#437fec"/>
        <path id="Path_4250" data-name="Path 4250" d="M19.124,87.454c-.247-.141-.448-.024-.448.255a.98.98,0,0,0,.443.771c.25.143.451.033.451-.254a.985.985,0,0,0-.445-.772" transform="translate(-11.979 -56.053)" fill="#437fec"/>
        <path id="Path_4251" data-name="Path 4251" d="M4.527,84.1c-.247-.143-.448-.027-.45.257a.98.98,0,0,0,.446.768c.248.144.445.031.448-.255a.988.988,0,0,0-.445-.77" transform="translate(-2.615 -53.9)" fill="#437fec"/>
        <path id="Path_4252" data-name="Path 4252" d="M14.247,89.712c-.247-.14-.451-.03-.451.257a.982.982,0,0,0,.445.769c.247.145.448.03.448-.254a.988.988,0,0,0-.443-.772" transform="translate(-8.849 -57.501)" fill="#437fec"/>
        <path id="Path_4253" data-name="Path 4253" d="M19.113,92.513c-.247-.143-.445-.025-.445.255a.962.962,0,0,0,.444.772c.245.143.445.031.447-.253a1,1,0,0,0-.445-.773" transform="translate(-11.973 -59.298)" fill="#437fec"/>
        <path id="Path_4254" data-name="Path 4254" d="M4.516,89.161c-.246-.144-.447-.03-.447.254a.976.976,0,0,0,.445.77c.247.143.448.028.448-.253a.989.989,0,0,0-.447-.772" transform="translate(-2.61 -57.147)" fill="#437fec"/>
        <path id="Path_4255" data-name="Path 4255" d="M14.236,94.775c-.246-.141-.447-.028-.447.256a.986.986,0,0,0,.444.772c.247.14.449.027.449-.256a.981.981,0,0,0-.446-.772" transform="translate(-8.844 -60.749)" fill="#437fec"/>
        <path id="Path_4256" data-name="Path 4256" d="M19.094,97.584c-.245-.143-.445-.031-.445.253a.985.985,0,0,0,.443.772c.25.146.448.027.451-.254a.975.975,0,0,0-.448-.77" transform="translate(-11.961 -62.55)" fill="#437fec"/>
        <path id="Path_4257" data-name="Path 4257" d="M4.5,94.224c-.247-.143-.451-.025-.451.259a.985.985,0,0,0,.448.769c.245.146.445.027.448-.254a.994.994,0,0,0-.445-.773" transform="translate(-2.594 -60.395)" fill="#437fec"/>
        <path id="Path_4258" data-name="Path 4258" d="M14.219,99.838c-.244-.141-.443-.025-.443.256a.956.956,0,0,0,.443.769c.247.146.448.032.448-.252a.982.982,0,0,0-.448-.773" transform="translate(-8.836 -63.996)" fill="#437fec"/>
        <path id="Path_4259" data-name="Path 4259" d="M19.084,102.645c-.249-.14-.447-.027-.447.257a.963.963,0,0,0,.445.77c.242.143.445.028.445-.256a.967.967,0,0,0-.444-.772" transform="translate(-11.953 -65.797)" fill="#437fec"/>
        <path id="Path_4260" data-name="Path 4260" d="M4.482,99.29c-.245-.146-.445-.028-.448.255a1,1,0,0,0,.445.775c.247.14.448.024.45-.257a.976.976,0,0,0-.446-.772" transform="translate(-2.587 -63.643)" fill="#437fec"/>
        <path id="Path_4261" data-name="Path 4261" d="M14.206,104.9c-.247-.141-.448-.028-.448.255a.988.988,0,0,0,.443.773c.25.143.451.027.454-.254a.992.992,0,0,0-.448-.773" transform="translate(-8.824 -67.244)" fill="#437fec"/>
        <path id="Path_4262" data-name="Path 4262" d="M19.066,107.707c-.245-.143-.445-.027-.445.257a.964.964,0,0,0,.445.767c.245.145.445.032.448-.253a.99.99,0,0,0-.448-.772" transform="translate(-11.943 -69.043)" fill="#437fec"/>
        <path id="Path_4263" data-name="Path 4263" d="M4.474,104.35c-.249-.138-.448-.024-.448.257a.993.993,0,0,0,.442.776c.249.138.449.028.449-.259a1,1,0,0,0-.444-.775" transform="translate(-2.582 -66.891)" fill="#437fec"/>
        <path id="Path_4264" data-name="Path 4264" d="M14.19,109.963c-.247-.138-.445-.024-.448.26a.986.986,0,0,0,.446.77c.241.143.444.028.446-.256a.984.984,0,0,0-.445-.775" transform="translate(-8.814 -70.491)" fill="#437fec"/>
        <path id="Path_4265" data-name="Path 4265" d="M19.05,112.773c-.244-.146-.445-.027-.448.255a.984.984,0,0,0,.445.77c.247.144.452.03.452-.255a.985.985,0,0,0-.45-.77" transform="translate(-11.931 -72.291)" fill="#437fec"/>
        <path id="Path_4266" data-name="Path 4266" d="M4.451,109.422c-.242-.143-.443-.028-.445.254a.986.986,0,0,0,.445.772c.247.14.451.028.451-.256a.972.972,0,0,0-.451-.77" transform="translate(-2.569 -70.143)" fill="#437fec"/>
        <path id="Path_4267" data-name="Path 4267" d="M14.182,115.031c-.25-.146-.445-.03-.445.257a.979.979,0,0,0,.443.77c.247.139.448.027.448-.26a.984.984,0,0,0-.445-.768" transform="translate(-8.811 -73.74)" fill="#437fec"/>
        <path id="Path_4268" data-name="Path 4268" d="M19.039,117.838c-.247-.144-.448-.03-.45.255a.986.986,0,0,0,.444.773c.249.143.45.03.45-.254a.989.989,0,0,0-.444-.773" transform="translate(-11.923 -75.54)" fill="#437fec"/>
        <path id="Path_4269" data-name="Path 4269" d="M4.44,114.487c-.249-.141-.449-.031-.449.253a.994.994,0,0,0,.446.774c.246.143.445.021.445-.26a.968.968,0,0,0-.443-.767" transform="translate(-2.56 -73.391)" fill="#437fec"/>
        <path id="Path_4270" data-name="Path 4270" d="M14.16,120.093c-.245-.141-.445-.027-.45.255a.992.992,0,0,0,.447.773c.246.143.448.027.451-.257a.991.991,0,0,0-.448-.771" transform="translate(-8.793 -76.987)" fill="#437fec"/>
        <path id="Path_4271" data-name="Path 4271" d="M19.022,122.9c-.245-.14-.445-.027-.448.257a.982.982,0,0,0,.445.772c.245.143.448.027.451-.256a.994.994,0,0,0-.448-.773" transform="translate(-11.913 -78.789)" fill="#437fec"/>
        <path id="Path_4272" data-name="Path 4272" d="M4.431,119.547c-.247-.14-.445-.027-.445.257a.967.967,0,0,0,.443.768c.247.146.448.031.448-.252a.991.991,0,0,0-.445-.773" transform="translate(-2.557 -76.638)" fill="#437fec"/>
        <path id="Path_4273" data-name="Path 4273" d="M14.15,125.16c-.25-.143-.448-.029-.448.253a.967.967,0,0,0,.443.772c.247.144.448.03.448-.255a.976.976,0,0,0-.442-.77" transform="translate(-8.788 -80.236)" fill="#437fec"/>
        <path id="Path_4274" data-name="Path 4274" d="M19.008,127.963c-.25-.144-.449-.027-.449.257a.981.981,0,0,0,.446.77c.246.143.447.03.447-.256a.991.991,0,0,0-.444-.772" transform="translate(-11.904 -82.034)" fill="#437fec"/>
        <path id="Path_4275" data-name="Path 4275" d="M4.409,124.611c-.246-.141-.447-.027-.45.259a.964.964,0,0,0,.448.766c.247.144.445.031.448-.253a.988.988,0,0,0-.447-.772" transform="translate(-2.539 -79.885)" fill="#437fec"/>
        <path id="Path_4276" data-name="Path 4276" d="M14.134,130.221c-.246-.143-.447-.03-.447.259a.973.973,0,0,0,.447.77c.244.139.446.027.446-.254a.989.989,0,0,0-.446-.775" transform="translate(-8.779 -83.483)" fill="#437fec"/>
        <path id="Path_4277" data-name="Path 4277" d="M19,133.031c-.247-.143-.445-.03-.445.255a.959.959,0,0,0,.443.77c.245.144.445.03.448-.253a.982.982,0,0,0-.445-.772" transform="translate(-11.9 -85.285)" fill="#437fec"/>
        <path id="Path_4278" data-name="Path 4278" d="M140.647,58.852c.245-.146.448-.028.448.253a.993.993,0,0,1-.447.775c-.246.14-.447.024-.447-.262a.966.966,0,0,1,.445-.766" transform="translate(-89.924 -37.707)" fill="#437fec"/>
        <path id="Path_4279" data-name="Path 4279" d="M130.919,64.461c.245-.141.448-.027.448.256a.985.985,0,0,1-.445.772c-.246.143-.451.027-.451-.254a.985.985,0,0,1,.448-.773" transform="translate(-83.683 -41.306)" fill="#437fec"/>
        <path id="Path_4280" data-name="Path 4280" d="M126.062,67.268c.242-.141.44-.027.442.257a.966.966,0,0,1-.442.769c-.247.144-.448.029-.451-.255a.974.974,0,0,1,.451-.772" transform="translate(-80.565 -43.106)" fill="#437fec"/>
        <path id="Path_4281" data-name="Path 4281" d="M140.657,63.914c.247-.143.448-.031.451.253a.987.987,0,0,1-.445.773c-.247.14-.448.028-.448-.257a.982.982,0,0,1,.443-.769" transform="translate(-89.932 -40.954)" fill="#437fec"/>
        <path id="Path_4282" data-name="Path 4282" d="M130.935,69.521c.25-.143.448-.025.448.259a.979.979,0,0,1-.442.769c-.25.144-.451.029-.451-.256a.989.989,0,0,1,.445-.772" transform="translate(-83.695 -44.551)" fill="#437fec"/>
        <path id="Path_4283" data-name="Path 4283" d="M126.076,72.325c.25-.142.448-.027.448.261a.961.961,0,0,1-.444.769c-.246.14-.447.025-.447-.259a.989.989,0,0,1,.443-.772" transform="translate(-80.58 -46.349)" fill="#437fec"/>
        <path id="Path_4284" data-name="Path 4284" d="M140.669,68.98c.249-.147.449-.03.452.254a1,1,0,0,1-.448.774c-.245.137-.448.023-.448-.262a.978.978,0,0,1,.444-.766" transform="translate(-89.939 -44.202)" fill="#437fec"/>
        <path id="Path_4285" data-name="Path 4285" d="M130.952,74.592c.246-.144.444-.027.446.256a.977.977,0,0,1-.446.769c-.246.143-.444.03-.447-.255a.976.976,0,0,1,.447-.77" transform="translate(-83.704 -47.803)" fill="#437fec"/>
        <path id="Path_4286" data-name="Path 4286" d="M126.09,77.4c.247-.151.445-.03.445.251a.973.973,0,0,1-.44.768c-.25.147-.451.029-.451-.253a.969.969,0,0,1,.445-.766" transform="translate(-80.587 -49.602)" fill="#437fec"/>
        <path id="Path_4287" data-name="Path 4287" d="M140.69,74.04c.245-.14.443-.027.445.257a.972.972,0,0,1-.444.769c-.246.143-.45.03-.45-.254a.985.985,0,0,1,.448-.772" transform="translate(-89.95 -47.45)" fill="#437fec"/>
        <path id="Path_4288" data-name="Path 4288" d="M130.968,79.654c.247-.14.45-.024.45.257a.985.985,0,0,1-.448.77c-.245.143-.446.03-.446-.256a.987.987,0,0,1,.443-.772" transform="translate(-83.717 -51.051)" fill="#437fec"/>
        <path id="Path_4289" data-name="Path 4289" d="M126.1,82.458c.245-.141.447-.025.447.256a.979.979,0,0,1-.443.772c-.25.143-.448.03-.453-.257a.977.977,0,0,1,.448-.77" transform="translate(-80.592 -52.849)" fill="#437fec"/>
        <path id="Path_4290" data-name="Path 4290" d="M140.7,79.1c.246-.144.444-.03.444.255a.971.971,0,0,1-.444.771c-.246.143-.446.03-.446-.254a.977.977,0,0,1,.446-.772" transform="translate(-89.96 -50.697)" fill="#437fec"/>
        <path id="Path_4291" data-name="Path 4291" d="M130.976,84.716c.246-.146.447-.028.449.256a.984.984,0,0,1-.445.767c-.247.146-.451.03-.451-.252a.993.993,0,0,1,.446-.772" transform="translate(-83.72 -54.296)" fill="#437fec"/>
        <path id="Path_4292" data-name="Path 4292" d="M126.114,87.526c.25-.143.448-.028.448.253a.987.987,0,0,1-.445.775c-.245.14-.448.027-.451-.257a.973.973,0,0,1,.448-.77" transform="translate(-80.601 -56.098)" fill="#437fec"/>
        <path id="Path_4293" data-name="Path 4293" d="M140.712,84.168c.252-.141.452-.027.452.257a.992.992,0,0,1-.446.772c-.247.141-.445.025-.448-.257a1,1,0,0,1,.443-.772" transform="translate(-89.967 -53.946)" fill="#437fec"/>
        <path id="Path_4294" data-name="Path 4294" d="M131,89.781c.244-.146.445-.028.448.253a.978.978,0,0,1-.448.772c-.245.144-.445.027-.445-.257a.967.967,0,0,1,.445-.768" transform="translate(-83.735 -57.544)" fill="#437fec"/>
        <path id="Path_4295" data-name="Path 4295" d="M126.133,92.59c.25-.143.449-.03.449.255a.987.987,0,0,1-.445.773c-.246.142-.446.025-.446-.257a1,1,0,0,1,.443-.771" transform="translate(-80.616 -59.346)" fill="#437fec"/>
        <path id="Path_4296" data-name="Path 4296" d="M140.733,89.231c.246-.144.444-.027.446.256a.981.981,0,0,1-.443.77c-.25.144-.448.03-.448-.254a.967.967,0,0,1,.444-.772" transform="translate(-89.98 -57.192)" fill="#437fec"/>
        <path id="Path_4297" data-name="Path 4297" d="M131.008,94.843c.246-.14.448-.028.448.257a.99.99,0,0,1-.445.772c-.247.143-.449.028-.449-.256a.989.989,0,0,1,.447-.773" transform="translate(-83.74 -60.793)" fill="#437fec"/>
        <path id="Path_4298" data-name="Path 4298" d="M126.149,97.654c.245-.144.445-.027.445.254a.982.982,0,0,1-.443.77c-.25.143-.448.03-.451-.255a.966.966,0,0,1,.448-.769" transform="translate(-80.623 -62.595)" fill="#437fec"/>
        <path id="Path_4299" data-name="Path 4299" d="M140.745,94.3a.275.275,0,0,1,.448.257.978.978,0,0,1-.448.77c-.247.141-.445.03-.448-.254a.988.988,0,0,1,.448-.773" transform="translate(-89.985 -60.443)" fill="#437fec"/>
        <path id="Path_4300" data-name="Path 4300" d="M131.026,99.911c.247-.146.443-.03.446.257a.983.983,0,0,1-.444.77c-.247.139-.447.025-.448-.259a.977.977,0,0,1,.445-.769" transform="translate(-83.753 -64.042)" fill="#437fec"/>
        <path id="Path_4301" data-name="Path 4301" d="M126.166,102.716c.247-.143.445-.028.445.256a.972.972,0,0,1-.445.77c-.245.143-.445.028-.445-.254a.969.969,0,0,1,.445-.772" transform="translate(-80.636 -65.842)" fill="#437fec"/>
        <path id="Path_4302" data-name="Path 4302" d="M140.755,99.365c.245-.145.445-.028.448.253a.993.993,0,0,1-.445.772c-.247.142-.451.03-.452-.257a.979.979,0,0,1,.45-.767" transform="translate(-89.99 -63.691)" fill="#437fec"/>
        <path id="Path_4303" data-name="Path 4303" d="M131.033,104.974c.247-.138.445-.027.448.255a.983.983,0,0,1-.445.773c-.25.143-.448.028-.451-.259a.993.993,0,0,1,.448-.769" transform="translate(-83.756 -67.291)" fill="#437fec"/>
        <path id="Path_4304" data-name="Path 4304" d="M126.174,107.787c.25-.144.448-.031.451.253a.993.993,0,0,1-.446.772c-.246.143-.45.024-.45-.255a.981.981,0,0,1,.445-.77" transform="translate(-80.641 -69.093)" fill="#437fec"/>
        <path id="Path_4305" data-name="Path 4305" d="M140.775,104.429c.246-.143.445-.032.445.255a.991.991,0,0,1-.444.775c-.247.138-.448.024-.448-.26a.979.979,0,0,1,.447-.769" transform="translate(-90.005 -66.94)" fill="#437fec"/>
        <path id="Path_4306" data-name="Path 4306" d="M131.058,110.04c.245-.146.448-.033.448.254a.991.991,0,0,1-.446.772c-.246.14-.444.03-.444-.26a.953.953,0,0,1,.443-.766" transform="translate(-83.775 -70.538)" fill="#437fec"/>
        <path id="Path_4307" data-name="Path 4307" d="M126.193,112.847c.245-.143.448-.027.448.254a1,1,0,0,1-.445.774c-.247.143-.448.025-.448-.256a.973.973,0,0,1,.445-.772" transform="translate(-80.653 -72.339)" fill="#437fec"/>
        <path id="Path_4308" data-name="Path 4308" d="M140.787,109.49c.245-.142.443-.025.445.256a.985.985,0,0,1-.445.773c-.247.142-.448.027-.451-.254a.986.986,0,0,1,.451-.775" transform="translate(-90.01 -70.187)" fill="#437fec"/>
        <path id="Path_4309" data-name="Path 4309" d="M131.065,115.106c.247-.143.445-.027.451.257a.98.98,0,0,1-.448.769c-.245.143-.448.03-.448-.255a.982.982,0,0,1,.445-.772" transform="translate(-83.778 -73.788)" fill="#437fec"/>
        <path id="Path_4310" data-name="Path 4310" d="M126.2,117.906c.249-.141.448-.024.448.259a.976.976,0,0,1-.444.769c-.249.142-.448.029-.448-.255a1,1,0,0,1,.444-.773" transform="translate(-80.661 -75.585)" fill="#437fec"/>
        <path id="Path_4311" data-name="Path 4311" d="M140.805,114.556c.249-.144.449-.027.449.256a.976.976,0,0,1-.445.766c-.246.146-.445.033-.445-.253a.981.981,0,0,1,.441-.769" transform="translate(-90.028 -73.435)" fill="#437fec"/>
        <path id="Path_4312" data-name="Path 4312" d="M131.077,120.17c.246-.141.445-.03.449.257a.987.987,0,0,1-.446.767c-.246.143-.45.03-.451-.253a.981.981,0,0,1,.448-.772" transform="translate(-83.784 -77.036)" fill="#437fec"/>
        <path id="Path_4313" data-name="Path 4313" d="M126.217,122.974c.245-.14.445-.028.448.256a.979.979,0,0,1-.445.769c-.245.144-.451.03-.451-.255a.99.99,0,0,1,.448-.77" transform="translate(-80.667 -78.836)" fill="#437fec"/>
        <path id="Path_4314" data-name="Path 4314" d="M140.816,119.621c.247-.141.445-.033.445.255a.975.975,0,0,1-.443.772c-.246.144-.448.025-.448-.255a.98.98,0,0,1,.445-.772" transform="translate(-90.032 -76.684)" fill="#437fec"/>
        <path id="Path_4315" data-name="Path 4315" d="M131.093,125.238c.247-.143.448-.03.448.253a.981.981,0,0,1-.444.772c-.249.142-.447.027-.45-.259a.977.977,0,0,1,.445-.766" transform="translate(-83.796 -80.286)" fill="#437fec"/>
        <path id="Path_4316" data-name="Path 4316" d="M126.236,128.039c.25-.14.446-.028.448.257a.99.99,0,0,1-.442.772c-.249.14-.45.026-.45-.256a.989.989,0,0,1,.444-.773" transform="translate(-80.682 -82.084)" fill="#437fec"/>
        <path id="Path_4317" data-name="Path 4317" d="M140.827,124.686c.243-.143.45-.03.45.255a.976.976,0,0,1-.445.769c-.25.144-.451.03-.453-.252a.971.971,0,0,1,.448-.772" transform="translate(-90.038 -79.932)" fill="#437fec"/>
        <path id="Path_4318" data-name="Path 4318" d="M131.108,130.3c.249-.14.448-.028.448.256a.969.969,0,0,1-.445.769c-.245.143-.447.031-.447-.251a.989.989,0,0,1,.444-.773" transform="translate(-83.806 -83.533)" fill="#437fec"/>
        <path id="Path_4319" data-name="Path 4319" d="M126.247,133.1c.245-.14.445-.027.445.257a.978.978,0,0,1-.445.767c-.247.144-.448.028-.451-.25a.975.975,0,0,1,.451-.775" transform="translate(-80.684 -85.333)" fill="#437fec"/>
      </g>
    </g>
  </g>
</svg>
