<svg id="Group_5597" data-name="Group 5597" xmlns="http://www.w3.org/2000/svg" xmlns:xlink="http://www.w3.org/1999/xlink" width="77.497" height="79.979" viewBox="0 0 77.497 79.979">
  <defs>
    <clipPath id="clip-path">
      <rect id="Rectangle_1361" data-name="Rectangle 1361" width="77.497" height="79.979" fill="none"/>
    </clipPath>
  </defs>
  <g id="Group_5596" data-name="Group 5596" clip-path="url(#clip-path)">
    <path id="Path_5285" data-name="Path 5285" d="M25.55,35.471a29,29,0,0,0,14.183,3.393,28.992,28.992,0,0,0,14.18-3.393c3.614-2.085,5.557-4.771,5.835-7.5-.278-2.731-2.221-5.416-5.835-7.5A28.985,28.985,0,0,0,39.73,17.076a28.994,28.994,0,0,0-14.183,3.391c-3.612,2.087-5.554,4.77-5.834,7.5.28,2.731,2.222,5.417,5.837,7.5" transform="translate(-15.034 -13.023)" fill="#ffad02"/>
  </g>
</svg>
