<svg xmlns="http://www.w3.org/2000/svg" xmlns:xlink="http://www.w3.org/1999/xlink" width="325.158" height="481.474" viewBox="0 0 325.158 481.474">
  <defs>
    <filter id="Union_1" x="0" y="0" width="325.158" height="481.474" filterUnits="userSpaceOnUse">
      <feOffset dy="20" input="SourceAlpha"/>
      <feGaussianBlur stdDeviation="8.5" result="blur"/>
      <feFlood flood-color="#1c1923" flood-opacity="0.031"/>
      <feComposite operator="in" in2="blur"/>
      <feComposite in="SourceGraphic"/>
    </filter>
  </defs>
  <g transform="matrix(1, 0, 0, 1, 0, 0)" filter="url(#Union_1)">
    <g id="Union_1-2" data-name="Union 1" transform="matrix(1, 0.07, -0.07, 1, 55.04, -3.67)" fill="#fff">
      <path d="M 225.8542175292969 423.0292358398438 L 19.99979209899902 423.0292358398438 C 17.36710739135742 423.0292358398438 14.81342315673828 422.5137023925781 12.40968608856201 421.4970397949219 C 10.08768653869629 420.5149230957031 8.002212524414062 419.1088256835938 6.211212635040283 417.3178100585938 C 4.420212268829346 415.5268249511719 3.014107227325439 413.4413452148438 2.032001972198486 411.1193542480469 C 1.015317797660828 408.7156066894531 0.4997914135456085 406.1619262695312 0.4997914135456085 403.5292358398438 L 0.4997914135456085 29.19597816467285 C 0.4997914135456085 26.56329345703125 1.015317797660828 24.00960922241211 2.032001972198486 21.60587310791016 C 3.014107227325439 19.28387260437012 4.420212268829346 17.19839859008789 6.211212635040283 15.40739917755127 C 8.002212524414062 13.61639976501465 10.08768653869629 12.21029376983643 12.40968608856201 11.22818851470947 C 14.81342315673828 10.21150493621826 17.36710739135742 9.695978164672852 19.99979209899902 9.695978164672852 L 225.8542175292969 9.695978164672852 C 228.4868927001953 9.695978164672852 231.0405883789062 10.21150493621826 233.4443206787109 11.22818851470947 C 235.7663116455078 12.21029376983643 237.8517913818359 13.61639976501465 239.6427917480469 15.40739917755127 C 241.4337921142578 17.19839859008789 242.8398895263672 19.28387260437012 243.8220062255859 21.60587310791016 C 244.8386840820312 24.00960922241211 245.3542175292969 26.56329345703125 245.3542175292969 29.19597816467285 L 245.3542175292969 403.5292358398438 C 245.3542175292969 406.1619262695312 244.8386840820312 408.7156066894531 243.8220062255859 411.1193542480469 C 242.8398895263672 413.4413452148438 241.4337921142578 415.5268249511719 239.6427917480469 417.3178100585938 C 237.8517913818359 419.1088256835938 235.7663116455078 420.5149230957031 233.4443206787109 421.4970397949219 C 231.0405883789062 422.5137023925781 228.4868927001953 423.0292358398438 225.8542175292969 423.0292358398438 Z" stroke="none"/>
      <path d="M 19.99978637695312 10.19598388671875 C 17.43437194824219 10.19598388671875 14.94621276855469 10.69818115234375 12.60441589355469 11.68865966796875 C 10.34205627441406 12.64559936523438 8.30999755859375 14.01571655273438 6.564788818359375 15.760986328125 C 4.819534301757812 17.50619506835938 3.449417114257812 19.53823852539062 2.492477416992188 21.80059814453125 C 1.501998901367188 24.14239501953125 0.999786376953125 26.63055419921875 0.999786376953125 29.19598388671875 L 0.999786376953125 403.5292358398438 C 0.999786376953125 406.0946655273438 1.501998901367188 408.5828247070312 2.492477416992188 410.9246215820312 C 3.449417114257812 413.1869812011719 4.819534301757812 415.2190246582031 6.564788818359375 416.9642333984375 C 8.30999755859375 418.7095031738281 10.34205627441406 420.0796203613281 12.60441589355469 421.0365600585938 C 14.94621276855469 422.0270385742188 17.43437194824219 422.5292358398438 19.99978637695312 422.5292358398438 L 225.8541564941406 422.5292358398438 C 228.4195861816406 422.5292358398438 230.9077453613281 422.0270385742188 233.2495269775391 421.0365600585938 C 235.5119018554688 420.0796203613281 237.5439453125 418.7095031738281 239.2892150878906 416.9642333984375 C 241.0344696044922 415.2190246582031 242.4045867919922 413.1869812011719 243.3614807128906 410.9246215820312 C 244.3519439697266 408.5828247070312 244.8541564941406 406.0946655273438 244.8541564941406 403.5292358398438 L 244.8541564941406 29.19598388671875 C 244.8541564941406 26.63055419921875 244.3519439697266 24.14239501953125 243.3614807128906 21.80059814453125 C 242.4045867919922 19.53823852539062 241.0344696044922 17.50619506835938 239.2892150878906 15.760986328125 C 237.5439453125 14.01571655273438 235.5119018554688 12.64559936523438 233.2495269775391 11.68865966796875 C 230.9077453613281 10.69818115234375 228.4195861816406 10.19598388671875 225.8541564941406 10.19598388671875 L 19.99978637695312 10.19598388671875 M 19.99978637695312 9.19598388671875 L 225.8541564941406 9.19598388671875 C 236.89990234375 9.19598388671875 245.8541564941406 18.15029907226562 245.8541564941406 29.19598388671875 L 245.8541564941406 403.5292358398438 C 245.8541564941406 414.5749206542969 236.89990234375 423.5292358398438 225.8541564941406 423.5292358398438 L 19.99978637695312 423.5292358398438 C 8.9541015625 423.5292358398438 -0.000213623046875 414.5749206542969 -0.000213623046875 403.5292358398438 L -0.000213623046875 29.19598388671875 C -0.000213623046875 18.15029907226562 8.9541015625 9.19598388671875 19.99978637695312 9.19598388671875 Z" stroke="none" fill="#3374ea"/>
    </g>
  </g>
</svg>
