<svg id="Group_6079" data-name="Group 6079" xmlns="http://www.w3.org/2000/svg" xmlns:xlink="http://www.w3.org/1999/xlink" width="51.35" height="51.63" viewBox="0 0 51.35 51.63">
  <defs>
    <clipPath id="clip-path">
      <rect id="Rectangle_1330" data-name="Rectangle 1330" width="51.35" height="51.63" fill="none"/>
    </clipPath>
  </defs>
  <g id="Group_5530" data-name="Group 5530">
    <g id="Group_5529" data-name="Group 5529" clip-path="url(#clip-path)">
      <path id="Path_5126" data-name="Path 5126" d="M35.271,23.368A24.59,24.59,0,0,0,47.3,26.246a24.584,24.584,0,0,0,12.028-2.877c3.065-1.769,4.713-4.047,4.949-6.363-.236-2.317-1.884-4.593-4.949-6.364A24.582,24.582,0,0,0,47.3,7.766a24.582,24.582,0,0,0-12.03,2.877C32.2,12.412,30.557,14.689,30.32,17c.237,2.317,1.884,4.594,4.951,6.364" transform="translate(-16.898 -4.328)" fill="#ffd03e"/>
      <path id="Path_5127" data-name="Path 5127" d="M35.226,9.176A24.582,24.582,0,0,1,47.256,6.3a24.579,24.579,0,0,1,12.03,2.877c3.065,1.77,4.713,4.047,4.949,6.364a5.475,5.475,0,0,0,.034-.583c0-2.514-1.661-5.027-4.983-6.945a24.594,24.594,0,0,0-12.03-2.877,24.6,24.6,0,0,0-12.03,2.877c-3.321,1.918-4.982,4.432-4.982,6.946a5.436,5.436,0,0,0,.034.581c.237-2.316,1.884-4.592,4.948-6.362" transform="translate(-16.856 -2.861)" fill="#e19100"/>
      <path id="Path_5128" data-name="Path 5128" d="M87.608,19.045l1.609-.929V16.952l-1.609.929Z" transform="translate(-48.825 -9.448)" fill="#e19100"/>
      <path id="Path_5129" data-name="Path 5129" d="M57.059,19.507a1.578,1.578,0,0,1-.931-1.3,1.58,1.58,0,0,1,.932-1.3,4.969,4.969,0,0,1,4.492,0,1.37,1.37,0,0,1,0,2.6l2.04,1.177c2.011-1.162,2.3-2.94.89-4.286l1.609-.929-2.038-1.177-1.61.928a9.627,9.627,0,0,0-7.422.515,3.008,3.008,0,0,0-1.775,2.474,3.006,3.006,0,0,0,1.775,2.474,1.371,1.371,0,0,1,0,2.6,4.972,4.972,0,0,1-4.494,0,1.37,1.37,0,0,1,0-2.594L48.49,19.508c-2.013,1.161-2.305,2.941-.893,4.286l-1.484.857,2.039,1.177,1.484-.857a9.621,9.621,0,0,0,7.424-.513c2.362-1.364,2.362-3.584,0-4.95" transform="translate(-25.7 -7.966)" fill="#ffe54c"/>
      <path id="Path_5130" data-name="Path 5130" d="M46.113,38.855l2.039,1.178V38.868L46.113,37.69Z" transform="translate(-25.7 -21.006)" fill="#fcba06"/>
      <path id="Path_5131" data-name="Path 5131" d="M50.719,40.435l1.485-.857V38.413l-1.485.857Z" transform="translate(-28.267 -21.408)" fill="#e19100"/>
      <path id="Path_5132" data-name="Path 5132" d="M80.991,27.238l2.039,1.177V27.251l-2.039-1.177Z" transform="translate(-45.137 -14.532)" fill="#fcba06"/>
      <path id="Path_5133" data-name="Path 5133" d="M54.919,29.9V28.732c-.879.508-1.132,1.241-.763,1.878a2.029,2.029,0,0,1,.763-.714" transform="translate(-30.091 -16.013)" fill="#e19100"/>
      <path id="Path_5134" data-name="Path 5134" d="M47.486,31.53l0,1.311,0,0a2.228,2.228,0,0,0,.253.918l.618-.356a2.5,2.5,0,0,1-.873-1.867Z" transform="translate(-26.465 -17.572)" fill="#fcba06"/>
      <path id="Path_5135" data-name="Path 5135" d="M64,26.78a2.04,2.04,0,0,1,.763.715c.367-.637.115-1.371-.763-1.879a3.006,3.006,0,0,1-1.775-2.474v1.165A3.006,3.006,0,0,0,64,26.78" transform="translate(-34.68 -12.897)" fill="#fcba06"/>
      <path id="Path_5136" data-name="Path 5136" d="M74.841,31.62v-.025h0c0,.008,0,.015,0,.025" transform="translate(-41.709 -17.608)" fill="#fcba06"/>
      <path id="Path_5137" data-name="Path 5137" d="M87.362,23.141A2.994,2.994,0,0,1,85.6,25.616V26.78a2.952,2.952,0,0,0,1.761-2.543l.005.005v-1.1Z" transform="translate(-47.705 -12.897)" fill="#e19100"/>
    </g>
  </g>
</svg>
