<svg xmlns="http://www.w3.org/2000/svg" xmlns:xlink="http://www.w3.org/1999/xlink" width="79.591" height="42.082" viewBox="0 0 79.591 42.082">
  <defs>
    <clipPath id="clip-path">
      <rect id="Rectangle_1319" data-name="Rectangle 1319" width="79.591" height="42.082" fill="none"/>
    </clipPath>
    <clipPath id="clip-path-3">
      <path id="Path_5062" data-name="Path 5062" d="M40.757,71.393c-9.323,5.384-24.44,5.384-33.763,0C2.342,68.707.01,65.19,0,61.669v5.375c.01,3.52,2.342,7.039,6.994,9.724s10.718,4.025,16.8,4.037h.16c6.083-.012,12.16-1.358,16.8-4.037,4.662-2.692,6.993-6.219,6.993-9.747,0-.01,0-.02,0-.031h0V61.647c0,3.527-2.331,7.054-6.993,9.746M0,61.615v0" transform="translate(0 -61.615)" fill="none"/>
    </clipPath>
    <linearGradient id="linear-gradient" y1="1" x2="0.008" y2="1" gradientUnits="objectBoundingBox">
      <stop offset="0" stop-color="#fcba06"/>
      <stop offset="1" stop-color="#dc8b00"/>
    </linearGradient>
    <clipPath id="clip-path-5">
      <rect id="Rectangle_1315" data-name="Rectangle 1315" width="34.835" height="27.992" fill="none"/>
    </clipPath>
    <clipPath id="clip-path-6">
      <path id="Path_5071" data-name="Path 5071" d="M149.232,31a26.587,26.587,0,0,0-15.622-4.067h-2.516v1.7A21.643,21.643,0,0,0,126.439,31c-8,5.473-7.953,14.34.1,19.811a21.759,21.759,0,0,0,4.558,2.323v1.773h4.27a25.934,25.934,0,0,0,13.965-4.093c8-5.473,7.962-14.341-.1-19.813" transform="translate(-120.468 -26.914)" fill="none"/>
    </clipPath>
    <linearGradient id="linear-gradient-2" x1="-1.099" y1="1.145" x2="-1.089" y2="1.145" gradientUnits="objectBoundingBox">
      <stop offset="0" stop-color="#c4c9e4"/>
      <stop offset="0.452" stop-color="#c4c9e4"/>
      <stop offset="1" stop-color="#fff"/>
    </linearGradient>
    <clipPath id="clip-path-7">
      <path id="Path_5073" data-name="Path 5073" d="M93.783,15.465c-5.074,5.134-4.992,13.972.7,21.3,6.57,8.453,17.92,11.69,25.6,7.226a19.02,19.02,0,0,0,3.819-3.182l1.8-1.9a13.083,13.083,0,0,1-2.32,1.72c-7.682,4.464-19.237,1.227-25.807-7.226-5.468-7.036-5.76-15.463-1.282-20.669Z" transform="translate(-90.091 -12.732)" fill="none"/>
    </clipPath>
    <linearGradient id="linear-gradient-3" x1="-0.484" y1="0.88" x2="-0.477" y2="0.88" gradientUnits="objectBoundingBox">
      <stop offset="0" stop-color="#fcba06"/>
      <stop offset="1" stop-color="#e19100"/>
    </linearGradient>
  </defs>
  <g id="Group_5507" data-name="Group 5507" clip-path="url(#clip-path)">
    <g id="Group_5493" data-name="Group 5493" transform="translate(0 0)">
      <g id="Group_5492" data-name="Group 5492" clip-path="url(#clip-path)">
        <path id="Path_5047" data-name="Path 5047" d="M40.757,28.633c-9.324-5.383-24.44-5.383-33.764,0C2.345,31.317.014,34.832,0,38.349c-.013,3.539,2.318,7.078,6.994,9.778,9.323,5.383,24.44,5.383,33.763,0,4.662-2.692,6.993-6.219,6.993-9.746s-2.331-7.055-6.993-9.748M8.582,47.21c-8.446-4.876-8.446-12.783,0-17.659s22.141-4.877,30.586,0,8.447,12.783,0,17.659-22.141,4.877-30.587,0" transform="translate(0 -15.458)" fill="#ffe950"/>
        <path id="Path_5048" data-name="Path 5048" d="M12.384,31.744c8.446-4.877,22.141-4.877,30.586,0s8.447,12.783,0,17.659-22.141,4.877-30.587,0-8.446-12.783,0-17.659" transform="translate(-3.802 -17.652)" fill="#ffd03e"/>
        <path id="Path_5049" data-name="Path 5049" d="M18.381,69.717c-3.455-1.995-5.443-4.648-5.595-7.467-.007-.119.156-.22.363-.222s.379.09.386.209c.146,2.71,2.055,5.258,5.375,7.175a26.224,26.224,0,0,0,12.425,3.1c.207,0,.369.1.363.223s-.179.213-.385.21a27.308,27.308,0,0,1-12.932-3.231" transform="translate(-8.036 -38.984)" fill="#ffe950"/>
        <path id="Path_5050" data-name="Path 5050" d="M83.11,42.836A.191.191,0,0,1,83,42.689c-.146-2.709-2.055-5.258-5.376-7.175a26.221,26.221,0,0,0-12.425-3.1c-.207,0-.37-.1-.363-.223s.178-.214.386-.21a27.288,27.288,0,0,1,12.932,3.231c3.456,2,5.443,4.647,5.595,7.468.006.119-.157.218-.364.222a.546.546,0,0,1-.276-.063" transform="translate(-40.75 -20.098)" fill="#ffe950"/>
        <path id="Path_5051" data-name="Path 5051" d="M91.136,77.519l-6.652-3.841a.161.161,0,0,1,0-.306.588.588,0,0,1,.529,0l6.653,3.841a.162.162,0,0,1,0,.306.585.585,0,0,1-.53,0" transform="translate(-53.028 -46.074)" fill="#ffe950"/>
        <path id="Path_5052" data-name="Path 5052" d="M88.235,70.692a.186.186,0,0,1-.109-.153c0-.12.167-.215.374-.215h3.366l4.318,2.493a.161.161,0,0,1,0,.305.583.583,0,0,1-.529,0l-4.1-2.367H88.5a.544.544,0,0,1-.265-.063" transform="translate(-55.386 -44.197)" fill="#ffe950"/>
        <path id="Path_5053" data-name="Path 5053" d="M94.025,66.217a.186.186,0,0,1-.11-.153c0-.119.168-.215.375-.215h5.383l2.306,1.33a.161.161,0,0,1,0,.305.579.579,0,0,1-.529,0l-2.087-1.2H94.29a.537.537,0,0,1-.265-.063" transform="translate(-59.024 -41.385)" fill="#ffe950"/>
        <path id="Path_5054" data-name="Path 5054" d="M83.517,80.128,79.2,77.635V75.692c0-.12.168-.217.376-.217s.373.1.373.217v1.763l4.1,2.367a.162.162,0,0,1,0,.306.589.589,0,0,1-.53,0" transform="translate(-49.776 -47.435)" fill="#ffe950"/>
        <path id="Path_5055" data-name="Path 5055" d="M73.754,83.473l-2.306-1.331V79.033c0-.119.167-.216.375-.216s.374.1.374.216v2.929l2.086,1.2a.162.162,0,0,1,0,.306.588.588,0,0,1-.529,0" transform="translate(-44.904 -49.536)" fill="#ffe950"/>
        <path id="Path_5056" data-name="Path 5056" d="M30.995,42.8l-6.653-3.841a.162.162,0,0,1,0-.306.588.588,0,0,1,.529,0l6.653,3.841a.161.161,0,0,1,0,.305.588.588,0,0,1-.529,0" transform="translate(-15.23 -24.251)" fill="#ffe950"/>
        <path id="Path_5057" data-name="Path 5057" d="M40.3,39.883a.187.187,0,0,1-.11-.152V37.966L36.1,35.6a.161.161,0,0,1,0-.305.586.586,0,0,1,.529,0l4.318,2.493V39.73c0,.119-.167.216-.374.216a.531.531,0,0,1-.265-.064" transform="translate(-22.617 -22.142)" fill="#ffe950"/>
        <path id="Path_5058" data-name="Path 5058" d="M51.461,36.533a.189.189,0,0,1-.11-.153V33.451l-2.085-1.2a.162.162,0,0,1,0-.306.587.587,0,0,1,.529,0L52.1,33.272V36.38c0,.12-.167.216-.374.216a.543.543,0,0,1-.265-.063" transform="translate(-30.894 -20.035)" fill="#ffe950"/>
        <path id="Path_5059" data-name="Path 5059" d="M22.847,48.235l-4.318-2.494a.161.161,0,0,1,0-.306.583.583,0,0,1,.529,0l4.1,2.366h3.055c.207,0,.374.1.374.216s-.167.217-.374.217Z" transform="translate(-11.575 -28.516)" fill="#ffe950"/>
        <path id="Path_5060" data-name="Path 5060" d="M15.03,54.675l-2.305-1.331a.161.161,0,0,1,0-.305.582.582,0,0,1,.529,0l2.086,1.2h5.074c.207,0,.374.1.374.216s-.167.215-.374.215Z" transform="translate(-7.928 -33.294)" fill="#ffe950"/>
        <path id="Path_5061" data-name="Path 5061" d="M11.6,49.262l-.085-.049a19.141,19.141,0,0,1-1.927-1.268l.6-.265a18.142,18.142,0,0,0,1.861,1.227l.084.048ZM13.9,50.409l.45-.346c.779.337,1.61.648,2.47.921l-.362.378a27.263,27.263,0,0,1-2.557-.953m-6-3.931A11.715,11.715,0,0,1,6.6,44.89l.7-.159a11.3,11.3,0,0,0,1.266,1.534ZM19.223,52.1l.265-.4c.914.2,1.861.366,2.813.493l-.167.421c-.986-.13-1.966-.3-2.911-.509M5.679,43.214a8.08,8.08,0,0,1-.506-1.733l.746-.043a7.775,7.775,0,0,0,.488,1.674ZM25.14,52.885l.066-.431c.977.05,1.966.06,2.94.032l.039.431c-1.009.03-2.034.02-3.045-.032M5.085,39.724a7.594,7.594,0,0,1,.33-1.747l.736.076a7.425,7.425,0,0,0-.317,1.688ZM31.206,52.708l-.14-.425c.963-.1,1.92-.25,2.845-.431l.24.409c-.959.187-1.95.338-2.946.447M6.156,36.273A10.715,10.715,0,0,1,7.3,34.644l.672.19a10.308,10.308,0,0,0-1.105,1.574ZM36.963,51.581l-.337-.386c.874-.254,1.725-.546,2.527-.867l.428.356c-.832.332-1.713.633-2.618.9M8.826,33.123A17.269,17.269,0,0,1,10.7,31.739l.556.289a16.846,16.846,0,0,0-1.811,1.337Zm33.13,16.464-.509-.318c.221-.118.44-.238.653-.361.481-.278.942-.57,1.371-.871l.578.275c-.446.311-.924.615-1.421.9-.22.127-.446.252-.673.374M12.041,31.552l-.529-.305a23.07,23.07,0,0,1,2.293-1.155l.452.344a22.57,22.57,0,0,0-2.216,1.116m33.144,15.1a11.976,11.976,0,0,0,1.362-1.5l.687.173a12.479,12.479,0,0,1-1.411,1.557ZM16.719,29.508l-.364-.378c.885-.286,1.812-.538,2.758-.748l.27.4c-.911.2-1.808.447-2.663.723M47.536,43.555a8.029,8.029,0,0,0,.6-1.662l.742.058a8.227,8.227,0,0,1-.617,1.72ZM22.192,28.284l-.17-.421c.986-.133,2-.229,3-.283l.069.431c-.973.052-1.95.143-2.9.273M48.326,40.2a7.346,7.346,0,0,0-.209-1.7l.741-.059a7.476,7.476,0,0,1,.216,1.752ZM28.036,27.97l.035-.432c1.012.027,2.029.094,3.023.2l-.136.425c-.96-.1-1.943-.168-2.922-.193M47.5,36.844a9.607,9.607,0,0,0-1-1.6l.685-.176a10.024,10.024,0,0,1,1.04,1.654ZM33.8,28.587l.237-.41c.958.184,1.905.409,2.815.669l-.332.388c-.879-.251-1.794-.469-2.719-.646m11.322,5.16A15.435,15.435,0,0,0,43.4,32.371l.574-.278a16.074,16.074,0,0,1,1.786,1.424Zm-6.066-3.654.422-.356a24.481,24.481,0,0,1,2.388,1.09l-.5.319a23.812,23.812,0,0,0-2.306-1.054" transform="translate(-3.196 -17.307)" fill="#ffe950"/>
      </g>
    </g>
    <g id="Group_5495" data-name="Group 5495" transform="translate(0 22.891)">
      <g id="Group_5494" data-name="Group 5494" clip-path="url(#clip-path-3)">
        <rect id="Rectangle_1313" data-name="Rectangle 1313" width="47.75" height="19.191" transform="translate(0 0)" fill="url(#linear-gradient)"/>
      </g>
    </g>
    <g id="Group_5502" data-name="Group 5502" transform="translate(0 0)">
      <g id="Group_5501" data-name="Group 5501" clip-path="url(#clip-path)">
        <path id="Path_5063" data-name="Path 5063" d="M26.5,65.2V66.41l12.27,7.084V72.282Z" transform="translate(-16.655 -40.976)" fill="#fcba06"/>
        <path id="Path_5064" data-name="Path 5064" d="M59.527,82.013v1.213l3.57-1.332V80.681Z" transform="translate(-37.412 -50.707)" fill="#e19100"/>
        <path id="Path_5065" data-name="Path 5065" d="M47.374,62.494v1.213l8.91-3.324V59.17Z" transform="translate(-29.774 -37.188)" fill="#e19100"/>
        <path id="Path_5066" data-name="Path 5066" d="M77.638,51.869v1.213l7.855-2.93V48.938Z" transform="translate(-48.795 -30.757)" fill="#e19100"/>
        <path id="Path_5067" data-name="Path 5067" d="M83.635,61.019v1.213l2.333-.871V60.149Z" transform="translate(-52.564 -37.803)" fill="#e19100"/>
        <path id="Path_5068" data-name="Path 5068" d="M71.356,59.17v1.213l4.562,1.234V60.4Z" transform="translate(-44.846 -37.188)" fill="#fcba06"/>
        <path id="Path_5069" data-name="Path 5069" d="M41.932,51.208V52.42l4.752,1.286V52.493Z" transform="translate(-26.354 -32.183)" fill="#fcba06"/>
        <path id="Path_5070" data-name="Path 5070" d="M34.255,51.975l8.91-3.324,4.562,1.234,2.333-.871L45.5,47.781l7.855-2.93-4.185-2.416-9.85,3.675-4.752-1.286-2.333.87,4.752,1.286L26.5,50.891l12.27,7.084,3.57-1.332Z" transform="translate(-16.655 -26.669)" fill="#ffe950"/>
        <g id="Group_5500" data-name="Group 5500" transform="translate(44.755 9.999)" style="mix-blend-mode: multiply;isolation: isolate">
          <g id="Group_5499" data-name="Group 5499">
            <g id="Group_5498" data-name="Group 5498" clip-path="url(#clip-path-5)">
              <g id="Group_5497" data-name="Group 5497" transform="translate(0 0)">
                <g id="Group_5496" data-name="Group 5496" clip-path="url(#clip-path-6)">
                  <rect id="Rectangle_1314" data-name="Rectangle 1314" width="38.892" height="28.169" transform="translate(-2.03 -0.177)" fill="url(#linear-gradient-2)"/>
                </g>
              </g>
            </g>
          </g>
        </g>
        <path id="Path_5072" data-name="Path 5072" d="M128.226,8.7l.2-.151c.385.423.757.868,1.109,1.32q.232.3.456.6l-.23.118a20.641,20.641,0,0,1,1.289,2.017l.25-.082a19.4,19.4,0,0,1,1.032,2.144l-.269.046a17.351,17.351,0,0,1,.72,2.162l.28-.006a15.9,15.9,0,0,1,.419,2.2l-.289-.031a14.542,14.542,0,0,1,.1,2.135l.291.068a13.577,13.577,0,0,1-.226,2.1l-.286-.1a12.246,12.246,0,0,1-.531,1.949l.278.138a12.062,12.062,0,0,1-.85,1.827l-.262-.169a11.187,11.187,0,0,1-1.122,1.612l.242.2a11.6,11.6,0,0,1-1.413,1.417l-.217-.223a11.982,11.982,0,0,1-1.627,1.151l.188.242-.07.04a13.254,13.254,0,0,1-1.8.866l-.157-.257a13.688,13.688,0,0,1-2,.608l.122.269a15.425,15.425,0,0,1-2.179.319l-.087-.274a16.521,16.521,0,0,1-2.234.013l.046.274a19.006,19.006,0,0,1-2.326-.292l-.006-.268a19.912,19.912,0,0,1-2.291-.579l-.034.258a22.4,22.4,0,0,1-2.294-.876l.074-.243a21.8,21.8,0,0,1-2.174-1.128l-.11.222a22.347,22.347,0,0,1-2.089-1.4l.146-.2a22.368,22.368,0,0,1-1.891-1.594l-.181.171a23.592,23.592,0,0,1-1.718-1.811l.209-.139q-.3-.358-.594-.732l-.22.128a21.653,21.653,0,0,1-1.394-2.02l.244-.093a19.453,19.453,0,0,1-1.1-2.086l-.26.055a17.824,17.824,0,0,1-.826-2.187l.275-.02a16.3,16.3,0,0,1-.505-2.167l-.286-.018a15.81,15.81,0,0,1-.2-2.192l.291.057a13.574,13.574,0,0,1,.123-2.085l-.286-.093a13.179,13.179,0,0,1,.443-2.024l.28.127a11.655,11.655,0,0,1,.74-1.844l-.264-.158a11.216,11.216,0,0,1,1.054-1.7l.247.186a11.26,11.26,0,0,1,1.31-1.464l-.225-.215a11.942,11.942,0,0,1,1.587-1.248l.2.235q.288-.191.593-.367a12.7,12.7,0,0,1,1.18-.605l-.168-.252a13.494,13.494,0,0,1,1.991-.71l.133.265a14.665,14.665,0,0,1,2.105-.405l-.1-.271a16.274,16.274,0,0,1,2.249-.105l.058.271a17.788,17.788,0,0,1,2.273.2l-.018-.269a19.2,19.2,0,0,1,2.336.5l-.021.261a20.719,20.719,0,0,1,2.267.776l.061-.25a22.449,22.449,0,0,1,2.245,1.067l-.1.231a22.141,22.141,0,0,1,2.089,1.3l.138-.209a23.7,23.7,0,0,1,1.978,1.558l-.171.182A22.065,22.065,0,0,1,128.226,8.7m2.4.536C124.053.779,112.5-2.458,104.821,2S96.241,16.942,102.813,25.4s18.125,11.69,25.807,7.226S137.2,17.69,130.627,9.236" transform="translate(-61.853 0)" fill="#ffe950"/>
      </g>
    </g>
    <g id="Group_5504" data-name="Group 5504" transform="translate(33.47 4.73)">
      <g id="Group_5503" data-name="Group 5503" clip-path="url(#clip-path-7)">
        <rect id="Rectangle_1317" data-name="Rectangle 1317" width="51.391" height="51.429" transform="translate(-19.227 18.612) rotate(-46.205)" fill="url(#linear-gradient-3)"/>
      </g>
    </g>
    <g id="Group_5506" data-name="Group 5506" transform="translate(0 0)">
      <g id="Group_5505" data-name="Group 5505" clip-path="url(#clip-path)">
        <path id="Path_5074" data-name="Path 5074" d="M107.478,27.147a.24.24,0,0,1,.029-.368l5.478-3.183a.334.334,0,0,1,.408.114.241.241,0,0,1-.034.366l-5.478,3.183a.33.33,0,0,1-.4-.113m-1.392-3.487a.24.24,0,0,1,.029-.368l3.558-2.067,2.573.719a.389.389,0,0,1,.195.134.306.306,0,0,1,.07.206.2.2,0,0,1-.1.16.257.257,0,0,1-.207.019l-2.338-.652-3.376,1.962a.33.33,0,0,1-.4-.113m4.6,5.919a.24.24,0,0,1,.028-.368l3.376-1.962.185-2.118a.223.223,0,0,1,.309-.179.385.385,0,0,1,.194.134.311.311,0,0,1,.071.207l-.2,2.332-3.558,2.067a.33.33,0,0,1-.4-.113m-5.958-9.772a.24.24,0,0,1,.028-.368l1.9-1.1,4.12,1.154a.382.382,0,0,1,.193.133.31.31,0,0,1,.071.207.209.209,0,0,1-.1.161.271.271,0,0,1-.207.019l-3.882-1.088-1.717,1a.326.326,0,0,1-.4-.113m9.568,12.31a.237.237,0,0,1,.031-.364l1.717-1,.3-3.516a.224.224,0,0,1,.31-.18.376.376,0,0,1,.192.132.3.3,0,0,1,.069.2l-.32,3.734-1.9,1.1a.331.331,0,0,1-.4-.116m4.457,1.206a.314.314,0,0,1-.071-.2.223.223,0,0,1,.3-.188,13.111,13.111,0,0,0,9.82-1.064,9.775,9.775,0,0,0,4.846-7.459.231.231,0,0,1,.317-.169.39.39,0,0,1,.186.13.3.3,0,0,1,.068.216,10.171,10.171,0,0,1-5.045,7.762,13.641,13.641,0,0,1-10.219,1.109.374.374,0,0,1-.2-.134M105.122,15.785a.294.294,0,0,1-.067-.215A10.172,10.172,0,0,1,110.1,7.808,13.63,13.63,0,0,1,120.317,6.7a.378.378,0,0,1,.2.134.309.309,0,0,1,.069.2.21.21,0,0,1-.1.17.275.275,0,0,1-.2.02,13.09,13.09,0,0,0-9.816,1.063,9.768,9.768,0,0,0-4.847,7.458.231.231,0,0,1-.317.169.386.386,0,0,1-.188-.131m17.3-2.818a.289.289,0,0,1-.066-.207l.317-3.732,1.9-1.1a.334.334,0,0,1,.408.114.239.239,0,0,1-.034.366l-1.717,1-.3,3.518a.212.212,0,0,1-.1.161.278.278,0,0,1-.208.019.383.383,0,0,1-.2-.134m5.883,7.57a.294.294,0,0,1-.067-.206.224.224,0,0,1,.31-.179l3.876,1.086,1.717-1a.33.33,0,0,1,.405.111.243.243,0,0,1-.032.37l-1.9,1.1L128.5,20.667a.371.371,0,0,1-.2-.131m-3.812-5.463a.3.3,0,0,1-.067-.208l.2-2.33,3.558-2.067a.334.334,0,0,1,.408.114.241.241,0,0,1-.034.366l-3.376,1.962L125,15.026a.2.2,0,0,1-.1.161.257.257,0,0,1-.207.019.387.387,0,0,1-.2-.133m2.339,3.009a.3.3,0,0,1-.068-.208.224.224,0,0,1,.309-.179l2.335.654,3.375-1.962a.335.335,0,0,1,.408.114.241.241,0,0,1-.034.366L129.6,18.934l-2.571-.72a.378.378,0,0,1-.2-.133m-.95-1.629a.243.243,0,0,1,.032-.37l5.478-3.183a.334.334,0,0,1,.408.114.241.241,0,0,1-.034.366l-5.478,3.183a.333.333,0,0,1-.405-.111m6.8-3.1-.223.114q-.215-.295-.44-.584c-.341-.438-.7-.866-1.07-1.277l.2-.146a22.07,22.07,0,0,0-1.754-1.726l-.166.177a21.278,21.278,0,0,0-1.914-1.5l.134-.2a22.141,22.141,0,0,0-2.089-1.3l-.1.226A21.31,21.31,0,0,0,123.089,6.1l.059-.243a20.721,20.721,0,0,0-2.267-.776l-.021.257a19.492,19.492,0,0,0-2.259-.484l-.017-.265a17.787,17.787,0,0,0-2.273-.2l.058.271a15.284,15.284,0,0,0-2.175.1L114.1,4.5a14.615,14.615,0,0,0-2.105.405l.133.263a12.742,12.742,0,0,0-1.923.684l-.166-.25a12.612,12.612,0,0,0-1.18.605q-.3.177-.593.367l.193.231a11.673,11.673,0,0,0-1.528,1.209l-.223-.212a11.26,11.26,0,0,0-1.31,1.464l.245.184a11.44,11.44,0,0,0-1.019,1.646l-.263-.157a11.655,11.655,0,0,0-.74,1.844l.275.125a12.3,12.3,0,0,0-.43,1.956l-.283-.092a13.582,13.582,0,0,0-.123,2.086l.285.056a14.491,14.491,0,0,0,.191,2.114l-.283-.018a16.3,16.3,0,0,0,.505,2.167l.272-.019a17.225,17.225,0,0,0,.8,2.115l-.263.056a19.524,19.524,0,0,0,1.1,2.086l.241-.092a20.8,20.8,0,0,0,1.346,1.952l-.217.126q.291.373.594.732l.209-.139a21.02,21.02,0,0,0,1.659,1.749l-.179.17a22.363,22.363,0,0,0,1.891,1.594l.147-.2a21.835,21.835,0,0,0,2.015,1.349l-.11.221a21.792,21.792,0,0,0,2.174,1.127l.073-.24a20.979,20.979,0,0,0,2.215.846l-.034.255a19.912,19.912,0,0,0,2.291.579l-.006-.265a18.793,18.793,0,0,0,2.244.283l.047.267a16.521,16.521,0,0,0,2.234-.013l-.085-.268a15.18,15.18,0,0,0,2.109-.309l.119.263a13.688,13.688,0,0,0,2-.608l-.156-.253a12.41,12.41,0,0,0,1.736-.836l.07-.041.185.238a11.951,11.951,0,0,0,1.627-1.152l-.214-.219a11,11,0,0,0,1.364-1.368l.238.194a11.207,11.207,0,0,0,1.122-1.612l-.256-.166a11.751,11.751,0,0,0,.82-1.764l.27.134a12.256,12.256,0,0,0,.531-1.949l-.279-.1a13.055,13.055,0,0,0,.215-2.024l.285.066a14.537,14.537,0,0,0-.1-2.135l-.28-.03a16.729,16.729,0,0,0-.4-2.132l.275-.006a17.366,17.366,0,0,0-.72-2.162l-.262.044a18.1,18.1,0,0,0-1-2.071l.248-.081a20.641,20.641,0,0,0-1.289-2.017" transform="translate(-64.769 -2.763)" fill="#ffd03e"/>
        <path id="Path_5075" data-name="Path 5075" d="M160.583,57.918a.388.388,0,0,0-.186-.13.231.231,0,0,0-.317.169,9.775,9.775,0,0,1-4.846,7.459,13.11,13.11,0,0,1-9.82,1.064.223.223,0,0,0-.3.188.314.314,0,0,0,.071.2.375.375,0,0,0,.2.134,13.642,13.642,0,0,0,10.22-1.109,10.173,10.173,0,0,0,5.045-7.762.305.305,0,0,0-.068-.216" transform="translate(-91.203 -36.311)" fill="#ffe950"/>
        <path id="Path_5076" data-name="Path 5076" d="M123.9,9.885a.379.379,0,0,0-.2-.134,13.632,13.632,0,0,0-10.217,1.107,10.172,10.172,0,0,0-5.045,7.762.293.293,0,0,0,.066.214.385.385,0,0,0,.188.131.231.231,0,0,0,.317-.169,9.768,9.768,0,0,1,4.847-7.458,13.092,13.092,0,0,1,9.816-1.063.276.276,0,0,0,.2-.02.21.21,0,0,0,.1-.17.309.309,0,0,0-.069-.2" transform="translate(-68.148 -5.814)" fill="#ffe950"/>
        <path id="Path_5077" data-name="Path 5077" d="M170.292,27.345a.335.335,0,0,0-.408-.114l-5.477,3.183a.243.243,0,0,0-.032.37.333.333,0,0,0,.4.111l5.478-3.183a.241.241,0,0,0,.035-.366" transform="translate(-103.264 -17.094)" fill="#ffe950"/>
        <path id="Path_5078" data-name="Path 5078" d="M164.738,20.8a.334.334,0,0,0-.408-.114l-3.558,2.067-.2,2.33a.3.3,0,0,0,.067.208.387.387,0,0,0,.2.133.257.257,0,0,0,.207-.019.2.2,0,0,0,.1-.161l.181-2.116,3.376-1.962a.241.241,0,0,0,.034-.366" transform="translate(-100.918 -12.98)" fill="#ffe950"/>
        <path id="Path_5079" data-name="Path 5079" d="M157.622,13.955a.335.335,0,0,0-.408-.114l-1.9,1.1L155,18.676a.291.291,0,0,0,.067.206.382.382,0,0,0,.2.134.278.278,0,0,0,.208-.019.21.21,0,0,0,.1-.161l.3-3.518,1.717-1a.239.239,0,0,0,.034-.366" transform="translate(-97.414 -8.679)" fill="#ffe950"/>
        <path id="Path_5080" data-name="Path 5080" d="M173.292,36.729a.335.335,0,0,0-.408-.114l-3.375,1.962-2.334-.654a.224.224,0,0,0-.31.179.3.3,0,0,0,.068.208.379.379,0,0,0,.2.133l2.57.72,3.558-2.067a.241.241,0,0,0,.034-.366" transform="translate(-104.872 -22.992)" fill="#ffe950"/>
        <path id="Path_5081" data-name="Path 5081" d="M177.141,46.981a.33.33,0,0,0-.405-.111l-1.717,1-3.876-1.086a.224.224,0,0,0-.31.179.294.294,0,0,0,.067.206.372.372,0,0,0,.2.13l4.116,1.156,1.9-1.1a.243.243,0,0,0,.032-.37" transform="translate(-107.366 -29.394)" fill="#ffe950"/>
        <path id="Path_5082" data-name="Path 5082" d="M120.753,56.135a.335.335,0,0,0-.408-.114L114.868,59.2a.24.24,0,0,0-.029.368.33.33,0,0,0,.4.113l5.478-3.183a.241.241,0,0,0,.034-.366" transform="translate(-72.131 -35.189)" fill="#ffe950"/>
        <path id="Path_5083" data-name="Path 5083" d="M117.447,50.545a.386.386,0,0,0-.195-.134l-2.573-.719-3.558,2.068a.24.24,0,0,0-.029.368.33.33,0,0,0,.4.112l3.376-1.962,2.338.652a.255.255,0,0,0,.207-.019.2.2,0,0,0,.1-.16.306.306,0,0,0-.07-.206" transform="translate(-69.776 -31.231)" fill="#ffe950"/>
        <path id="Path_5084" data-name="Path 5084" d="M113.677,43.2a.379.379,0,0,0-.193-.133l-4.119-1.154-1.9,1.1a.24.24,0,0,0-.029.368.326.326,0,0,0,.4.113l1.717-1,3.882,1.088a.271.271,0,0,0,.207-.019.207.207,0,0,0,.1-.16.308.308,0,0,0-.071-.208" transform="translate(-67.479 -26.344)" fill="#ffe950"/>
        <path id="Path_5085" data-name="Path 5085" d="M127.566,59.835a.39.39,0,0,0-.194-.134.223.223,0,0,0-.309.18L126.879,62,123.5,63.961a.24.24,0,0,0-.028.368.329.329,0,0,0,.4.112l3.558-2.067.2-2.332a.309.309,0,0,0-.071-.207" transform="translate(-77.558 -37.514)" fill="#ffe950"/>
        <path id="Path_5086" data-name="Path 5086" d="M135.747,65.51a.376.376,0,0,0-.192-.132.224.224,0,0,0-.31.18l-.3,3.516-1.717,1a.237.237,0,0,0-.031.364.331.331,0,0,0,.4.116l1.9-1.1.32-3.734a.3.3,0,0,0-.069-.2" transform="translate(-83.666 -41.082)" fill="#ffe950"/>
        <path id="Path_5087" data-name="Path 5087" d="M105.422,24.859l-.241.092-.244.093a21.555,21.555,0,0,0,1.394,2.02l.22-.128.217-.126a20.87,20.87,0,0,1-1.346-1.952m3.591,4.418a21.077,21.077,0,0,1-1.66-1.748l-.209.139-.209.139a23.516,23.516,0,0,0,1.717,1.811l.181-.171Zm-5.473-8.582-.272.019-.275.02a17.829,17.829,0,0,0,.826,2.187l.26-.055.263-.056a17.309,17.309,0,0,1-.8-2.115m9.347,11.5a21.906,21.906,0,0,1-2.015-1.349l-.147.2-.147.2a22.353,22.353,0,0,0,2.089,1.4l.11-.222ZM102.855,16.451l-.285-.057-.29-.057a15.8,15.8,0,0,0,.2,2.192l.286.018.283.018a14.491,14.491,0,0,1-.191-2.113m14.386,17.7a21.032,21.032,0,0,1-2.215-.846l-.073.24-.074.243a22.494,22.494,0,0,0,2.294.876l.034-.258Zm-13.834-21.7-.276-.125-.28-.127a13.121,13.121,0,0,0-.442,2.023l.285.093.283.091a12.274,12.274,0,0,1,.431-1.956M121.736,35a18.793,18.793,0,0,1-2.244-.283l.006.264.006.269a19.014,19.014,0,0,0,2.326.292l-.046-.274ZM105.153,8.987l-.244-.184-.247-.186a11.235,11.235,0,0,0-1.053,1.7l.264.158.263.157a11.43,11.43,0,0,1,1.018-1.646m20.887,25.69a15.193,15.193,0,0,1-2.109.309l.085.268.087.274a15.429,15.429,0,0,0,2.179-.319l-.123-.268ZM107.97,6.342l-.193-.231-.2-.234a11.857,11.857,0,0,0-1.587,1.248l.225.215.223.212a11.7,11.7,0,0,1,1.529-1.209m22.216,27.341L130,33.44l-.186-.238-.07.04a12.332,12.332,0,0,1-1.736.836l.156.253.157.257a13.213,13.213,0,0,0,1.8-.865ZM111.373,4.176a13.553,13.553,0,0,0-1.991.71l.168.253.166.25A12.739,12.739,0,0,1,111.64,4.7l-.133-.262Zm21.882,26.918-.242-.2-.238-.194a10.958,10.958,0,0,1-1.364,1.368l.214.219.217.223a11.6,11.6,0,0,0,1.413-1.417M115.766,3.66a16.214,16.214,0,0,0-2.248.106l.095.271.1.27a15.224,15.224,0,0,1,2.175-.1l-.058-.271Zm19.482,23.966-.278-.138-.271-.133a11.73,11.73,0,0,1-.82,1.764l.256.165.262.169a12.133,12.133,0,0,0,.85-1.827M120.414,4.359a19.189,19.189,0,0,0-2.336-.5l.019.269.017.265a19.472,19.472,0,0,1,2.258.484l.021-.257Zm15.6,19.189-.291-.068-.285-.066a13.015,13.015,0,0,1-.215,2.024l.28.1.286.1a13.577,13.577,0,0,0,.226-2.1M124.966,6.212a22.4,22.4,0,0,0-2.244-1.067l-.062.25-.059.243a21.43,21.43,0,0,1,2.166,1.032l.1-.226ZM135.5,19.17l-.28.006-.275.006a16.773,16.773,0,0,1,.4,2.132l.28.03.289.031a15.912,15.912,0,0,0-.419-2.2M129.071,9.09a23.647,23.647,0,0,0-1.978-1.558l-.138.209-.134.2a21.226,21.226,0,0,1,1.914,1.5l.166-.177Zm4.661,5.735-.25.081-.248.081a17.974,17.974,0,0,1,1,2.071l.262-.044.269-.046a19.366,19.366,0,0,0-1.032-2.143m-1.766-2.659c-.352-.452-.725-.9-1.109-1.32l-.2.151-.2.146c.37.411.73.838,1.07,1.276q.226.29.44.584l.223-.114.23-.118q-.223-.305-.456-.605" transform="translate(-64.282 -2.297)" fill="#ffe950"/>
        <path id="Path_5088" data-name="Path 5088" d="M136.455,29.929l-6.641-6.318L140.852,29.6Z" transform="translate(-81.586 -14.839)" fill="#fcba06"/>
        <path id="Path_5089" data-name="Path 5089" d="M136.455,29.929l-6.641-6.318,2.244,11.1Z" transform="translate(-81.586 -14.839)" fill="#ffe950"/>
        <path id="Path_5090" data-name="Path 5090" d="M146.892,51.388,140.25,40.616l-4.4,4.782Z" transform="translate(-85.382 -25.527)" fill="#fcba06"/>
        <path id="Path_5091" data-name="Path 5091" d="M154.33,50.833l-2.244-11.1-4.4.328Z" transform="translate(-92.821 -24.971)" fill="#e19100"/>
      </g>
    </g>
  </g>
</svg>
