<svg id="Group_5535" data-name="Group 5535" xmlns="http://www.w3.org/2000/svg" xmlns:xlink="http://www.w3.org/1999/xlink" width="51.35" height="51.63" viewBox="0 0 51.35 51.63">
  <defs>
    <clipPath id="clip-path">
      <rect id="Rectangle_1320" data-name="Rectangle 1320" width="51.35" height="51.63" fill="none"/>
    </clipPath>
    <clipPath id="clip-path-2">
      <path id="Path_5093" data-name="Path 5093" d="M40.331,84.375a30.264,30.264,0,0,1-14.81,3.542,30.279,30.279,0,0,1-14.813-3.542c-4.091-2.362-6.135-5.457-6.137-8.552v5.97c0,3.094,2.046,6.19,6.137,8.551a30.275,30.275,0,0,0,14.813,3.542,30.259,30.259,0,0,0,14.81-3.541c4.092-2.362,6.138-5.458,6.137-8.553v-5.97c0,3.1-2.045,6.19-6.137,8.553" transform="translate(-4.57 -75.822)" fill="none"/>
    </clipPath>
    <linearGradient id="linear-gradient" x1="-0.048" y1="1" x2="-0.038" y2="1" gradientUnits="objectBoundingBox">
      <stop offset="0" stop-color="#fcba06"/>
      <stop offset="1" stop-color="#e19100"/>
    </linearGradient>
    <clipPath id="clip-path-4">
      <path id="Path_5106" data-name="Path 5106" d="M44.713,82.645a9.624,9.624,0,0,1-7.423.513v1.165a9.624,9.624,0,0,0,7.423-.515,3.023,3.023,0,0,0,1.771-2.452v-1.18a3.017,3.017,0,0,1-1.772,2.469" transform="translate(-37.29 -80.176)" fill="none"/>
    </clipPath>
    <linearGradient id="linear-gradient-2" x1="-1.795" y1="3.25" x2="-1.747" y2="3.25" xlink:href="#linear-gradient"/>
    <clipPath id="clip-path-6">
      <path id="Path_5109" data-name="Path 5109" d="M35.76,61.153a30.268,30.268,0,0,1-14.809,3.542A30.279,30.279,0,0,1,6.137,61.153C2.046,58.791,0,55.7,0,52.6v5.97c0,3.094,2.046,6.19,6.137,8.551a30.275,30.275,0,0,0,14.813,3.542A30.263,30.263,0,0,0,35.76,67.124c4.092-2.362,6.138-5.458,6.137-8.553V52.6c0,3.1-2.045,6.191-6.137,8.553" transform="translate(0 -52.6)" fill="none"/>
    </clipPath>
    <linearGradient id="linear-gradient-3" x1="0" y1="1.569" x2="0.011" y2="1.569" xlink:href="#linear-gradient"/>
    <clipPath id="clip-path-8">
      <path id="Path_5122" data-name="Path 5122" d="M40.142,59.423a9.624,9.624,0,0,1-7.423.514V61.1a9.63,9.63,0,0,0,7.423-.514,3.025,3.025,0,0,0,1.771-2.453v-1.18a3.017,3.017,0,0,1-1.772,2.468" transform="translate(-32.719 -56.955)" fill="none"/>
    </clipPath>
    <linearGradient id="linear-gradient-4" x1="-1.575" y1="5.322" x2="-1.527" y2="5.322" xlink:href="#linear-gradient"/>
    <clipPath id="clip-path-10">
      <path id="Path_5125" data-name="Path 5125" d="M57.114,35.875A30.268,30.268,0,0,1,42.3,39.417,30.281,30.281,0,0,1,27.49,35.874c-4.091-2.362-6.136-5.457-6.137-8.552v5.97c0,3.095,2.046,6.19,6.137,8.551A30.276,30.276,0,0,0,42.3,45.387a30.263,30.263,0,0,0,14.81-3.541c4.093-2.363,6.138-5.458,6.137-8.553v-5.97c0,3.1-2.044,6.19-6.137,8.553" transform="translate(-21.353 -27.322)" fill="none"/>
    </clipPath>
    <linearGradient id="linear-gradient-5" x1="-0.226" y1="2.188" x2="-0.215" y2="2.188" xlink:href="#linear-gradient"/>
    <clipPath id="clip-path-12">
      <path id="Path_5138" data-name="Path 5138" d="M61.5,34.145a9.62,9.62,0,0,1-7.423.513v1.165a9.624,9.624,0,0,0,7.423-.515,3.018,3.018,0,0,0,1.77-2.452l0,0V31.676A3.016,3.016,0,0,1,61.5,34.145" transform="translate(-54.073 -31.676)" fill="none"/>
    </clipPath>
    <linearGradient id="linear-gradient-6" x1="-2.603" y1="7.577" x2="-2.555" y2="7.577" xlink:href="#linear-gradient"/>
  </defs>
  <g id="Group_5510" data-name="Group 5510" transform="translate(0 0)">
    <g id="Group_5509" data-name="Group 5509" clip-path="url(#clip-path)">
      <path id="Path_5092" data-name="Path 5092" d="M4.57,60.6c0-3.1,2.045-6.19,6.135-8.553A30.282,30.282,0,0,1,25.519,48.5,30.275,30.275,0,0,1,40.33,52.043c4.09,2.362,6.136,5.456,6.137,8.552s-2.045,6.19-6.137,8.553a30.268,30.268,0,0,1-14.81,3.542,30.282,30.282,0,0,1-14.813-3.542C6.616,66.785,4.572,63.69,4.57,60.6" transform="translate(-2.547 -27.03)" fill="#ffe54c"/>
    </g>
  </g>
  <g id="Group_5512" data-name="Group 5512" transform="translate(2.023 33.565)">
    <g id="Group_5511" data-name="Group 5511" clip-path="url(#clip-path-2)">
      <rect id="Rectangle_1321" data-name="Rectangle 1321" width="41.899" height="18.065" transform="translate(0 0)" fill="url(#linear-gradient)"/>
    </g>
  </g>
  <g id="Group_5514" data-name="Group 5514" transform="translate(0 0)">
    <g id="Group_5513" data-name="Group 5513" clip-path="url(#clip-path)">
      <path id="Path_5094" data-name="Path 5094" d="M18.488,71.868a24.583,24.583,0,0,0,12.03,2.878,24.584,24.584,0,0,0,12.028-2.877c3.065-1.769,4.713-4.047,4.949-6.363-.236-2.317-1.884-4.593-4.949-6.363a24.58,24.58,0,0,0-12.03-2.877,24.582,24.582,0,0,0-12.03,2.877c-3.064,1.77-4.711,4.046-4.948,6.362.237,2.316,1.884,4.594,4.951,6.363" transform="translate(-7.544 -31.358)" fill="#ffd03e"/>
      <path id="Path_5095" data-name="Path 5095" d="M18.443,57.676A24.582,24.582,0,0,1,30.473,54.8,24.577,24.577,0,0,1,42.5,57.676c3.065,1.77,4.713,4.047,4.949,6.363a5.462,5.462,0,0,0,.034-.583c0-2.514-1.661-5.027-4.983-6.945a24.592,24.592,0,0,0-12.03-2.878,24.6,24.6,0,0,0-12.03,2.878c-3.322,1.918-4.982,4.431-4.982,6.946a5.677,5.677,0,0,0,.034.581c.237-2.316,1.884-4.592,4.948-6.362" transform="translate(-7.502 -29.891)" fill="#e19100"/>
      <path id="Path_5096" data-name="Path 5096" d="M70.825,67.546l1.609-.929V65.453l-1.609.929Z" transform="translate(-39.472 -36.478)" fill="#e19100"/>
      <path id="Path_5097" data-name="Path 5097" d="M40.276,68.008a1.368,1.368,0,0,1,0-2.594,4.971,4.971,0,0,1,4.493,0,1.37,1.37,0,0,1,0,2.595l2.039,1.177c2.011-1.161,2.3-2.94.89-4.286l1.609-.929L47.27,62.794l-1.61.928a9.627,9.627,0,0,0-7.422.515,2.611,2.611,0,0,0,0,4.947,1.371,1.371,0,0,1,0,2.6,4.972,4.972,0,0,1-4.494,0,1.37,1.37,0,0,1,0-2.595l-2.038-1.177C29.7,69.17,29.4,70.95,30.814,72.295l-1.484.857,2.039,1.177,1.484-.857a9.625,9.625,0,0,0,7.424-.513c2.362-1.364,2.362-3.585,0-4.95" transform="translate(-16.346 -34.996)" fill="#ffe54c"/>
      <path id="Path_5098" data-name="Path 5098" d="M29.33,87.355l2.039,1.178V87.368L29.33,86.191Z" transform="translate(-16.346 -48.036)" fill="#fcba06"/>
      <path id="Path_5099" data-name="Path 5099" d="M33.936,88.936l1.485-.857V86.914l-1.485.857Z" transform="translate(-18.913 -48.439)" fill="#e19100"/>
      <path id="Path_5100" data-name="Path 5100" d="M64.209,75.738l2.039,1.177V75.751l-2.039-1.177Z" transform="translate(-35.785 -41.562)" fill="#fcba06"/>
      <path id="Path_5101" data-name="Path 5101" d="M38.136,78.4V77.232c-.879.509-1.132,1.241-.763,1.879a2.029,2.029,0,0,1,.763-.714" transform="translate(-20.737 -43.043)" fill="#e19100"/>
      <path id="Path_5102" data-name="Path 5102" d="M30.7,80.03l0,1.311,0,0a2.226,2.226,0,0,0,.253.918l.618-.356a2.5,2.5,0,0,1-.873-1.867Z" transform="translate(-17.111 -44.602)" fill="#fcba06"/>
      <path id="Path_5103" data-name="Path 5103" d="M47.218,75.281a2.04,2.04,0,0,1,.763.715c.368-.638.116-1.371-.763-1.879a3.006,3.006,0,0,1-1.775-2.474v1.165a3.006,3.006,0,0,0,1.775,2.473" transform="translate(-25.326 -39.928)" fill="#fcba06"/>
      <path id="Path_5104" data-name="Path 5104" d="M58.058,80.12V80.1h0c0,.008,0,.015,0,.024" transform="translate(-32.355 -44.639)" fill="#fcba06"/>
      <path id="Path_5105" data-name="Path 5105" d="M70.579,71.642a2.993,2.993,0,0,1-1.764,2.475v1.164a2.952,2.952,0,0,0,1.761-2.543l.005.005v-1.1Z" transform="translate(-38.352 -39.927)" fill="#e19100"/>
    </g>
  </g>
  <g id="Group_5516" data-name="Group 5516" transform="translate(16.508 35.492)">
    <g id="Group_5515" data-name="Group 5515" clip-path="url(#clip-path-4)">
      <rect id="Rectangle_1323" data-name="Rectangle 1323" width="9.195" height="4.963" transform="translate(0 0)" fill="url(#linear-gradient-2)"/>
    </g>
  </g>
  <g id="Group_5518" data-name="Group 5518" transform="translate(0 0)">
    <g id="Group_5517" data-name="Group 5517" clip-path="url(#clip-path)">
      <path id="Path_5107" data-name="Path 5107" d="M57.379,68.038a4.973,4.973,0,0,0-4.493,0,1.579,1.579,0,0,0-.932,1.3,1.157,1.157,0,0,0,.166.582,2.043,2.043,0,0,1,.766-.714,4.97,4.97,0,0,1,4.493,0,2.017,2.017,0,0,1,.763.715c.368-.639.116-1.372-.763-1.88" transform="translate(-28.954 -37.62)" fill="#e19100"/>
      <path id="Path_5108" data-name="Path 5108" d="M0,37.374c0-3.1,2.045-6.19,6.135-8.553a30.28,30.28,0,0,1,14.814-3.543,30.28,30.28,0,0,1,14.812,3.543c4.09,2.363,6.135,5.456,6.137,8.552s-2.045,6.19-6.137,8.553a30.271,30.271,0,0,1-14.81,3.542A30.282,30.282,0,0,1,6.137,45.926C2.046,43.564,0,40.469,0,37.374" transform="translate(0 -14.088)" fill="#ffe54c"/>
    </g>
  </g>
  <g id="Group_5520" data-name="Group 5520" transform="translate(0 23.285)">
    <g id="Group_5519" data-name="Group 5519" clip-path="url(#clip-path-6)">
      <rect id="Rectangle_1325" data-name="Rectangle 1325" width="41.899" height="18.065" transform="translate(0 0)" fill="url(#linear-gradient-3)"/>
    </g>
  </g>
  <g id="Group_5522" data-name="Group 5522" transform="translate(0 0)">
    <g id="Group_5521" data-name="Group 5521" clip-path="url(#clip-path)">
      <path id="Path_5110" data-name="Path 5110" d="M13.916,48.646a24.585,24.585,0,0,0,12.03,2.878,24.579,24.579,0,0,0,12.028-2.877c3.065-1.769,4.713-4.047,4.949-6.363-.236-2.317-1.884-4.593-4.949-6.363a24.582,24.582,0,0,0-12.03-2.877,24.582,24.582,0,0,0-12.03,2.877c-3.064,1.77-4.711,4.046-4.949,6.362.238,2.316,1.885,4.594,4.952,6.363" transform="translate(-4.996 -18.416)" fill="#ffd03e"/>
      <path id="Path_5111" data-name="Path 5111" d="M13.873,34.454A24.582,24.582,0,0,1,25.9,31.577a24.582,24.582,0,0,1,12.03,2.877c3.065,1.77,4.713,4.047,4.949,6.363a5.475,5.475,0,0,0,.034-.583c0-2.514-1.661-5.027-4.982-6.945A24.6,24.6,0,0,0,25.9,30.412a24.6,24.6,0,0,0-12.03,2.877c-3.322,1.918-4.982,4.432-4.982,6.946,0,.193.014.387.033.581.238-2.316,1.885-4.592,4.949-6.362" transform="translate(-4.955 -16.949)" fill="#e19100"/>
      <path id="Path_5112" data-name="Path 5112" d="M66.254,44.324l1.609-.929V42.231l-1.609.929Z" transform="translate(-36.925 -23.536)" fill="#e19100"/>
      <path id="Path_5113" data-name="Path 5113" d="M35.706,44.787a1.369,1.369,0,0,1,0-2.594,4.966,4.966,0,0,1,4.492,0,1.37,1.37,0,0,1,0,2.595l2.04,1.177c2.011-1.162,2.3-2.94.89-4.286l1.609-.928L42.7,39.572l-1.61.929a9.622,9.622,0,0,0-7.422.515,3.006,3.006,0,0,0-1.775,2.474,3.007,3.007,0,0,0,1.775,2.474,1.37,1.37,0,0,1,0,2.595,4.973,4.973,0,0,1-4.495,0,1.37,1.37,0,0,1,0-2.594l-2.038-1.177c-2.012,1.161-2.3,2.941-.893,4.286l-1.483.857L26.8,51.107l1.484-.857a9.623,9.623,0,0,0,7.424-.514c2.362-1.364,2.362-3.584,0-4.949" transform="translate(-13.799 -22.054)" fill="#ffe54c"/>
      <path id="Path_5114" data-name="Path 5114" d="M24.76,64.133,26.8,65.311V64.146L24.76,62.969Z" transform="translate(-13.799 -35.094)" fill="#fcba06"/>
      <path id="Path_5115" data-name="Path 5115" d="M29.365,65.714l1.484-.857V63.692l-1.484.857Z" transform="translate(-16.366 -35.497)" fill="#e19100"/>
      <path id="Path_5116" data-name="Path 5116" d="M59.637,52.516l2.039,1.177V52.529l-2.039-1.177Z" transform="translate(-33.237 -28.62)" fill="#fcba06"/>
      <path id="Path_5117" data-name="Path 5117" d="M33.566,55.175V54.011c-.879.508-1.132,1.241-.763,1.878a2.019,2.019,0,0,1,.763-.714" transform="translate(-18.19 -30.101)" fill="#e19100"/>
      <path id="Path_5118" data-name="Path 5118" d="M26.133,56.809l0,1.311,0,0a2.228,2.228,0,0,0,.253.918l.617-.356a2.5,2.5,0,0,1-.872-1.867Z" transform="translate(-14.564 -31.661)" fill="#fcba06"/>
      <path id="Path_5119" data-name="Path 5119" d="M42.648,52.06a2.043,2.043,0,0,1,.763.715c.368-.637.116-1.371-.763-1.879a3.007,3.007,0,0,1-1.775-2.474v1.164a3.006,3.006,0,0,0,1.775,2.473" transform="translate(-22.779 -26.986)" fill="#fcba06"/>
      <path id="Path_5120" data-name="Path 5120" d="M53.488,56.9v-.025h0c0,.008,0,.016,0,.025" transform="translate(-29.808 -31.696)" fill="#fcba06"/>
      <path id="Path_5121" data-name="Path 5121" d="M66.009,48.419a2.992,2.992,0,0,1-1.764,2.475v1.164a2.952,2.952,0,0,0,1.761-2.542l.005.005v-1.1Z" transform="translate(-35.805 -26.985)" fill="#e19100"/>
    </g>
  </g>
  <g id="Group_5524" data-name="Group 5524" transform="translate(14.484 25.213)">
    <g id="Group_5523" data-name="Group 5523" clip-path="url(#clip-path-8)">
      <rect id="Rectangle_1327" data-name="Rectangle 1327" width="9.195" height="4.962" transform="translate(0 0)" fill="url(#linear-gradient-4)"/>
    </g>
  </g>
  <g id="Group_5526" data-name="Group 5526" transform="translate(0 0)">
    <g id="Group_5525" data-name="Group 5525" clip-path="url(#clip-path)">
      <path id="Path_5123" data-name="Path 5123" d="M52.808,44.816a4.969,4.969,0,0,0-4.492,0,1.58,1.58,0,0,0-.932,1.3,1.158,1.158,0,0,0,.166.582,2.04,2.04,0,0,1,.766-.715,4.971,4.971,0,0,1,4.492,0,2.024,2.024,0,0,1,.764.716c.368-.639.116-1.373-.764-1.88" transform="translate(-26.407 -24.678)" fill="#e19100"/>
      <path id="Path_5124" data-name="Path 5124" d="M21.354,12.1c0-3.1,2.045-6.19,6.135-8.553A30.28,30.28,0,0,1,42.3,0,30.275,30.275,0,0,1,57.114,3.543C61.2,5.9,63.251,9,63.252,12.095s-2.045,6.19-6.137,8.553A30.273,30.273,0,0,1,42.3,24.189a30.282,30.282,0,0,1-14.813-3.543C23.4,18.285,21.355,15.19,21.354,12.1" transform="translate(-11.901 0)" fill="#ffe54c"/>
    </g>
  </g>
  <g id="Group_5528" data-name="Group 5528" transform="translate(9.453 12.095)">
    <g id="Group_5527" data-name="Group 5527" clip-path="url(#clip-path-10)">
      <rect id="Rectangle_1329" data-name="Rectangle 1329" width="41.899" height="18.065" transform="translate(0 0)" fill="url(#linear-gradient-5)"/>
    </g>
  </g>
  <g id="Group_5530" data-name="Group 5530" transform="translate(0 0)">
    <g id="Group_5529" data-name="Group 5529" clip-path="url(#clip-path)">
      <path id="Path_5126" data-name="Path 5126" d="M35.271,23.368A24.59,24.59,0,0,0,47.3,26.246a24.584,24.584,0,0,0,12.028-2.877c3.065-1.769,4.713-4.047,4.949-6.363-.236-2.317-1.884-4.593-4.949-6.364A24.582,24.582,0,0,0,47.3,7.766a24.582,24.582,0,0,0-12.03,2.877C32.2,12.412,30.557,14.689,30.32,17c.237,2.317,1.884,4.594,4.951,6.364" transform="translate(-16.898 -4.328)" fill="#ffd03e"/>
      <path id="Path_5127" data-name="Path 5127" d="M35.226,9.176A24.582,24.582,0,0,1,47.256,6.3a24.579,24.579,0,0,1,12.03,2.877c3.065,1.77,4.713,4.047,4.949,6.364a5.475,5.475,0,0,0,.034-.583c0-2.514-1.661-5.027-4.983-6.945a24.594,24.594,0,0,0-12.03-2.877,24.6,24.6,0,0,0-12.03,2.877c-3.321,1.918-4.982,4.432-4.982,6.946a5.436,5.436,0,0,0,.034.581c.237-2.316,1.884-4.592,4.948-6.362" transform="translate(-16.856 -2.861)" fill="#e19100"/>
      <path id="Path_5128" data-name="Path 5128" d="M87.608,19.045l1.609-.929V16.952l-1.609.929Z" transform="translate(-48.825 -9.448)" fill="#e19100"/>
      <path id="Path_5129" data-name="Path 5129" d="M57.059,19.507a1.578,1.578,0,0,1-.931-1.3,1.58,1.58,0,0,1,.932-1.3,4.969,4.969,0,0,1,4.492,0,1.37,1.37,0,0,1,0,2.6l2.04,1.177c2.011-1.162,2.3-2.94.89-4.286l1.609-.929-2.038-1.177-1.61.928a9.627,9.627,0,0,0-7.422.515,3.008,3.008,0,0,0-1.775,2.474,3.006,3.006,0,0,0,1.775,2.474,1.371,1.371,0,0,1,0,2.6,4.972,4.972,0,0,1-4.494,0,1.37,1.37,0,0,1,0-2.594L48.49,19.508c-2.013,1.161-2.305,2.941-.893,4.286l-1.484.857,2.039,1.177,1.484-.857a9.621,9.621,0,0,0,7.424-.513c2.362-1.364,2.362-3.584,0-4.95" transform="translate(-25.7 -7.966)" fill="#ffe54c"/>
      <path id="Path_5130" data-name="Path 5130" d="M46.113,38.855l2.039,1.178V38.868L46.113,37.69Z" transform="translate(-25.7 -21.006)" fill="#fcba06"/>
      <path id="Path_5131" data-name="Path 5131" d="M50.719,40.435l1.485-.857V38.413l-1.485.857Z" transform="translate(-28.267 -21.408)" fill="#e19100"/>
      <path id="Path_5132" data-name="Path 5132" d="M80.991,27.238l2.039,1.177V27.251l-2.039-1.177Z" transform="translate(-45.137 -14.532)" fill="#fcba06"/>
      <path id="Path_5133" data-name="Path 5133" d="M54.919,29.9V28.732c-.879.508-1.132,1.241-.763,1.878a2.029,2.029,0,0,1,.763-.714" transform="translate(-30.091 -16.013)" fill="#e19100"/>
      <path id="Path_5134" data-name="Path 5134" d="M47.486,31.53l0,1.311,0,0a2.228,2.228,0,0,0,.253.918l.618-.356a2.5,2.5,0,0,1-.873-1.867Z" transform="translate(-26.465 -17.572)" fill="#fcba06"/>
      <path id="Path_5135" data-name="Path 5135" d="M64,26.78a2.04,2.04,0,0,1,.763.715c.367-.637.115-1.371-.763-1.879a3.006,3.006,0,0,1-1.775-2.474v1.165A3.006,3.006,0,0,0,64,26.78" transform="translate(-34.68 -12.897)" fill="#fcba06"/>
      <path id="Path_5136" data-name="Path 5136" d="M74.841,31.62v-.025h0c0,.008,0,.015,0,.025" transform="translate(-41.709 -17.608)" fill="#fcba06"/>
      <path id="Path_5137" data-name="Path 5137" d="M87.362,23.141A2.994,2.994,0,0,1,85.6,25.616V26.78a2.952,2.952,0,0,0,1.761-2.543l.005.005v-1.1Z" transform="translate(-47.705 -12.897)" fill="#e19100"/>
    </g>
  </g>
  <g id="Group_5532" data-name="Group 5532" transform="translate(23.937 14.022)">
    <g id="Group_5531" data-name="Group 5531" clip-path="url(#clip-path-12)">
      <rect id="Rectangle_1331" data-name="Rectangle 1331" width="9.195" height="4.962" transform="translate(0 0)" fill="url(#linear-gradient-6)"/>
    </g>
  </g>
  <g id="Group_5534" data-name="Group 5534" transform="translate(0 0)">
    <g id="Group_5533" data-name="Group 5533" clip-path="url(#clip-path)">
      <path id="Path_5139" data-name="Path 5139" d="M74.161,19.537a4.973,4.973,0,0,0-4.493,0,1.58,1.58,0,0,0-.932,1.3,1.157,1.157,0,0,0,.166.582,2.045,2.045,0,0,1,.766-.714,4.973,4.973,0,0,1,4.493,0,2.022,2.022,0,0,1,.763.715c.369-.639.116-1.372-.763-1.88" transform="translate(-38.308 -10.59)" fill="#e19100"/>
    </g>
  </g>
</svg>
