<svg id="Group_5473" data-name="Group 5473" xmlns="http://www.w3.org/2000/svg" xmlns:xlink="http://www.w3.org/1999/xlink" width="51.235" height="35.348" viewBox="0 0 51.235 35.348">
  <defs>
    <clipPath id="clip-path">
      <rect id="Rectangle_1303" data-name="Rectangle 1303" width="51.235" height="35.348" fill="none"/>
    </clipPath>
  </defs>
  <g id="Group_5472" data-name="Group 5472" clip-path="url(#clip-path)">
    <path id="Path_5009" data-name="Path 5009" d="M43.732,4.331c-10-5.776-26.224-5.776-36.228,0C2.516,7.211.015,10.982,0,14.756c-.015,3.8,2.487,7.595,7.5,10.492,10,5.776,26.223,5.776,36.228,0,5-2.888,7.5-6.673,7.5-10.458s-2.5-7.571-7.5-10.459M9.208,24.264C.145,19.031.145,10.548,9.208,5.315s23.756-5.232,32.819,0,9.063,13.716,0,18.949-23.756,5.232-32.819,0" transform="translate(0 0.001)" fill="#ffe950"/>
    <path id="Path_5010" data-name="Path 5010" d="M13.163,7.6c9.063-5.232,23.756-5.232,32.819,0s9.063,13.716,0,18.949-23.756,5.232-32.819,0S4.1,12.832,13.163,7.6" transform="translate(-3.956 -2.283)" fill="#ffd03e"/>
    <path id="Path_5011" data-name="Path 5011" d="M16.757,4.48a.579.579,0,0,0,.135.106,1.234,1.234,0,0,0,.919.078c.441-.137.9-.266,1.349-.385.392-.1.566-.368.389-.595a1.07,1.07,0,0,0-1.03-.225c-.486.127-.972.265-1.445.412-.378.117-.521.39-.317.608M12.983,6.062l.048.03a1.228,1.228,0,0,0,1.048.027c.383-.185.783-.364,1.186-.534.348-.146.424-.427.172-.627a1.191,1.191,0,0,0-1.087-.1c-.431.181-.858.373-1.268.57-.33.159-.375.442-.1.633M21.009,3.37a.489.489,0,0,0,.2.189,1.207,1.207,0,0,0,.772.114c.478-.083.968-.156,1.456-.22.419-.055.682-.295.587-.537s-.511-.393-.931-.339c-.521.068-1.045.147-1.556.234-.412.071-.647.321-.524.559M9.831,8.045a1.2,1.2,0,0,0,1.094-.07c.311-.224.641-.446.979-.659.291-.183.265-.467-.047-.635a1.213,1.213,0,0,0-1.1.027c-.362.228-.714.465-1.047.7-.251.18-.22.438.056.6.02.011.042.023.064.033m33.215-1.73.037.02c.363.184.719.377,1.06.574l.037.022a1.217,1.217,0,0,0,1.1,0,.335.335,0,0,0,0-.635l-.037-.022c-.364-.211-.745-.417-1.132-.613a1.213,1.213,0,0,0-1.1.041c-.272.179-.254.448.034.614M7.294,11.751c.143-.234-.072-.491-.476-.573a1,1,0,0,0-.992.275,10.044,10.044,0,0,0-.481.885c-.077.162.009.327.2.438a1.011,1.011,0,0,0,.342.115.94.94,0,0,0,.958-.313c.133-.277.284-.556.449-.827m1.184-1.595c.228-.257.473-.512.729-.758.222-.212.1-.49-.266-.616a1.146,1.146,0,0,0-1.068.153c-.275.264-.537.537-.782.812-.158.178-.09.388.142.522a.918.918,0,0,0,.2.083,1.1,1.1,0,0,0,1.047-.2M30.445,3.091a1.078,1.078,0,0,0,.462.129c.5.033,1,.075,1.487.127.422.045.828-.117.905-.361s-.2-.478-.626-.523c-.522-.055-1.057-.1-1.59-.136-.427-.028-.813.149-.861.4a.363.363,0,0,0,.223.368M48.5,10.458c.215.26.418.527.6.8a.528.528,0,0,0,.173.152,1.221,1.221,0,0,0,.838.1c.4-.092.595-.353.437-.584-.2-.287-.415-.574-.646-.852a1.083,1.083,0,0,0-1.038-.211c-.388.107-.552.375-.366.6m1.521,2.448a8.454,8.454,0,0,1,.312.85.446.446,0,0,0,.215.239,1.182,1.182,0,0,0,.687.125c.423-.044.705-.277.63-.521a9.16,9.16,0,0,0-.335-.908.914.914,0,0,0-.943-.328c-.417.059-.671.3-.568.544M46.153,8.238c.3.229.593.468.868.708a.665.665,0,0,0,.1.071,1.235,1.235,0,0,0,.977.057c.359-.136.459-.415.223-.622-.294-.258-.606-.513-.929-.758a1.19,1.19,0,0,0-1.09-.086c-.342.15-.409.432-.149.629M6.24,14.277c.058-.246-.24-.472-.667-.506s-.818.139-.875.385a8.437,8.437,0,0,0-.163.923.372.372,0,0,0,.226.348,1.089,1.089,0,0,0,.5.131c.429.017.8-.17.83-.418a7.826,7.826,0,0,1,.153-.864M39.254,4.751a.888.888,0,0,0,.165.073c.432.142.863.3,1.279.456a1.17,1.17,0,0,0,1.079-.126c.237-.207.14-.484-.218-.623-.445-.171-.906-.335-1.369-.487a1.134,1.134,0,0,0-1.062.167c-.178.18-.117.4.125.54M35,3.663a.982.982,0,0,0,.308.109c.475.089.95.189,1.411.3a1.038,1.038,0,0,0,1.013-.249c.161-.23-.033-.492-.432-.585-.494-.114-1-.221-1.509-.317a.981.981,0,0,0-.982.288c-.094.166-.011.342.19.457M50.67,16.349a.382.382,0,0,0,.228.329,1.111,1.111,0,0,0,.531.131c.429.006.786-.19.8-.438a8.076,8.076,0,0,0-.013-.928c-.019-.248-.381-.44-.81-.43s-.763.22-.745.468a7.45,7.45,0,0,1,.012.868m-.565,2.579c-.062.157.025.313.209.419a1.017,1.017,0,0,0,.375.12c.419.056.837-.095.933-.337a8.929,8.929,0,0,0,.309-.911c.068-.245-.22-.476-.646-.515s-.823.128-.891.373a8.125,8.125,0,0,1-.288.851M25.784,3.056a1.155,1.155,0,0,0,.618.13c.5-.025,1-.041,1.5-.047.43,0,.771-.211.762-.459s-.364-.445-.794-.44c-.534.007-1.074.023-1.605.05-.428.022-.745.24-.708.487a.414.414,0,0,0,.225.278M41.732,26.908a1.172,1.172,0,0,0-1.079-.127c-.416.159-.847.312-1.281.454-.374.123-.5.4-.292.613a.6.6,0,0,0,.126.1,1.235,1.235,0,0,0,.935.073c.463-.152.925-.316,1.37-.486.359-.137.457-.416.22-.623m-26.509-.462c-.4-.17-.8-.349-1.183-.534a1.207,1.207,0,0,0-1.1.055c-.262.18-.237.443.045.606l.051.027c.409.2.835.39,1.266.572a1.188,1.188,0,0,0,1.087-.1c.253-.2.176-.483-.17-.628m8.151,2.141c-.486-.064-.975-.138-1.452-.221a.959.959,0,0,0-.969.3c-.085.164,0,.334.2.447a.988.988,0,0,0,.326.112c.511.089,1.033.168,1.553.237.419.055.836-.1.932-.338s-.167-.483-.586-.538m23.852-5.675c-.268.244-.552.485-.847.717-.23.181-.19.429.076.583a.82.82,0,0,0,.091.045,1.188,1.188,0,0,0,1.088-.1c.315-.248.62-.506.906-.767.23-.209.123-.487-.241-.62a1.158,1.158,0,0,0-1.074.139m-9.55,5.326a1.035,1.035,0,0,0-1.012-.25c-.467.108-.943.208-1.414.3-.409.076-.634.329-.5.565a.5.5,0,0,0,.19.179,1.211,1.211,0,0,0,.79.11c.5-.094,1.014-.2,1.514-.316.4-.092.593-.354.433-.584m-9.834.669c-.5-.006-1.006-.023-1.5-.049-.428-.022-.806.16-.845.407a.369.369,0,0,0,.225.359,1.087,1.087,0,0,0,.48.13c.529.028,1.069.045,1.606.052.43.006.786-.191.8-.439s-.33-.454-.76-.46m5.4.161c-.077-.243-.481-.406-.9-.362-.491.051-.992.093-1.488.125-.427.027-.735.25-.687.5a.421.421,0,0,0,.223.268,1.158,1.158,0,0,0,.637.129c.531-.034,1.067-.079,1.592-.134.423-.044.7-.278.628-.522M19.111,27.757c-.456-.12-.909-.25-1.346-.385a1.118,1.118,0,0,0-1.055.182c-.167.179-.1.394.134.531a.877.877,0,0,0,.181.078c.468.146.952.285,1.44.413a1.073,1.073,0,0,0,1.031-.223c.178-.226,0-.493-.386-.6m30.124-7.17c-.177.27-.371.539-.578.8-.139.175-.066.376.157.5a.926.926,0,0,0,.227.091,1.072,1.072,0,0,0,1.031-.222c.222-.28.429-.568.618-.856.152-.232-.052-.492-.453-.579a1.02,1.02,0,0,0-1,.261m-43-2.848a7.792,7.792,0,0,1-.149-.864c-.028-.248-.4-.435-.827-.419s-.754.231-.726.478a8.341,8.341,0,0,0,.159.924.428.428,0,0,0,.22.258,1.164,1.164,0,0,0,.654.128c.426-.033.725-.259.668-.5M7.275,20.27c-.163-.27-.313-.549-.446-.83a.938.938,0,0,0-.957-.314c-.414.066-.658.313-.544.552.142.3.3.6.477.887a.509.509,0,0,0,.184.17,1.218,1.218,0,0,0,.807.107c.406-.082.621-.338.479-.572m4.593,4.441c-.339-.213-.667-.435-.976-.659A1.2,1.2,0,0,0,9.8,23.981c-.336.155-.392.437-.123.631.331.24.683.478,1.045.706l.025.015a1.222,1.222,0,0,0,1.075.013c.317-.167.339-.451.049-.635M9.18,22.627c-.255-.247-.5-.5-.727-.76a1.1,1.1,0,0,0-1.047-.2c-.383.113-.535.383-.34.6.243.275.5.549.777.812a.617.617,0,0,0,.119.088,1.235,1.235,0,0,0,.949.068c.369-.128.489-.4.269-.616M45.564,25.58a.334.334,0,0,0-.009-.629l-.01-.006a1.217,1.217,0,0,0-1.1.011l-.3.179c-.353.2-.722.4-1.1.593-.324.163-.356.447-.073.634l.036.022a1.225,1.225,0,0,0,1.062.02c.4-.2.8-.416,1.175-.635q.162-.094.322-.19M23.189,19.029l.88-1.089c.182-.225.012-.493-.376-.6a1.08,1.08,0,0,0-1.035.217l-.69.854-9.322.471c-.428.022-.745.24-.707.487a.413.413,0,0,0,.225.278,1.152,1.152,0,0,0,.618.13l9.769-.493a.892.892,0,0,0,.637-.257M14.64,20.455a1.133,1.133,0,0,0-1.059-.173c-.375.121-.509.395-.3.612a12.106,12.106,0,0,0,1.743,1.471l.051.033a1.23,1.23,0,0,0,1.044.029c.332-.158.379-.441.106-.633a10.987,10.987,0,0,1-1.586-1.339m.879,4.414c.289-.184.257-.47-.054-.635a12.668,12.668,0,0,1-5.407-4.865.971.971,0,0,0-.976-.294c-.41.074-.638.327-.509.563A13.162,13.162,0,0,0,13.683,24.5q.359.207.736.4a1.214,1.214,0,0,0,1.1-.031m-7.058-9.9c.426.032.817-.141.873-.387a9.517,9.517,0,0,1,3.861-5.333c.264-.2.2-.479-.137-.63a1.2,1.2,0,0,0-1.092.079A10.288,10.288,0,0,0,7.79,14.468a.359.359,0,0,0,.221.376,1.066,1.066,0,0,0,.449.128m16.85,1.217c-.037-.247-.415-.43-.843-.408L8.4,16.591c-.428.022-.745.24-.707.487a.412.412,0,0,0,.225.278,1.15,1.15,0,0,0,.619.13L24.6,16.675c.428-.022.745-.24.707-.487m-13.9-1.516a1.154,1.154,0,0,0,.619.13l9.321-.471.936.772a1.179,1.179,0,0,0,1.084.111c.352-.142.438-.423.191-.626L22.367,13.6a1.066,1.066,0,0,0-.706-.19l-9.768.494c-.428.021-.745.239-.707.487a.412.412,0,0,0,.225.278m2.974-3.706a1.131,1.131,0,0,0-1.06.17,8.947,8.947,0,0,0-1.274,1.624c-.1.168-.02.348.185.466a.97.97,0,0,0,.294.106,1,1,0,0,0,.991-.276,8.148,8.148,0,0,1,1.159-1.477c.212-.216.081-.49-.294-.612M28.506,25.995a29.593,29.593,0,0,0,3.073-.175c.422-.047.7-.282.618-.526s-.488-.4-.91-.357a26.883,26.883,0,0,1-2.8.159c-.43,0-.775.205-.771.453a.391.391,0,0,0,.228.314,1.128,1.128,0,0,0,.557.132m10.731-.207a1.234,1.234,0,0,0,1,.05c.352-.142.438-.423.191-.626l-9.25-7.627a1.177,1.177,0,0,0-1.084-.111c-.352.142-.438.423-.191.626l9.25,7.627a.665.665,0,0,0,.088.06m-6.606-8.081c.038.247.415.43.843.409l1.626-.082,5.366,4.425a.666.666,0,0,0,.088.06,1.234,1.234,0,0,0,1,.05c.352-.142.438-.422.191-.626l-5.624-4.638a1.066,1.066,0,0,0-.705-.19l-2.074.1c-.428.022-.744.239-.708.487m.834,7.678a1.233,1.233,0,0,0,1,.05c.352-.142.438-.423.192-.626l-5.367-4.425.69-.854c.182-.225.014-.492-.377-.6a1.079,1.079,0,0,0-1.034.218l-.879,1.089a.3.3,0,0,0,.067.448l5.624,4.638a.641.641,0,0,0,.088.06m8.361-4.708c-.186.18-.128.405.117.547a.9.9,0,0,0,.153.069,1.144,1.144,0,0,0,1.067-.156A9.293,9.293,0,0,0,44.5,19.529c.151-.233-.053-.491-.456-.578a1.018,1.018,0,0,0-1,.264,8.487,8.487,0,0,1-1.215,1.462m1.809,3.441A11.732,11.732,0,0,0,48.6,18.565c.091-.242-.176-.482-.6-.534s-.834.1-.925.344a10.849,10.849,0,0,1-4.594,5.135c-.283.178-.27.452.023.621l.025.014a1.213,1.213,0,0,0,1.1-.027M25.088,27.765a1.066,1.066,0,0,0,.444.127,34.873,34.873,0,0,0,10.738-.8c.4-.095.585-.358.421-.587a1.046,1.046,0,0,0-1.017-.243A32.273,32.273,0,0,1,25.743,27c-.426-.034-.818.138-.877.384a.359.359,0,0,0,.221.379m2.624-14.759a1.234,1.234,0,0,0,1,.05c.352-.142.438-.422.192-.626l-.936-.772,3.954-4.9c.182-.225.014-.492-.377-.6a1.079,1.079,0,0,0-1.034.217l-4.143,5.131a.3.3,0,0,0,.067.448l1.193.984a.653.653,0,0,0,.088.061M24.869,6.728a.442.442,0,0,0,.217.243,1.177,1.177,0,0,0,.679.126,27.1,27.1,0,0,1,2.8-.124c.43,0,.783-.2.789-.443s-.338-.452-.767-.456a29.8,29.8,0,0,0-3.079.136c-.424.041-.71.273-.64.517m15.156.527a14.508,14.508,0,0,1,6.069,4.6.532.532,0,0,0,.17.148,1.225,1.225,0,0,0,.845.1c.4-.094.588-.356.427-.586a15.7,15.7,0,0,0-6.563-4.971,1.2,1.2,0,0,0-1.091.083c-.262.2-.194.482.144.63m-10.77,6.59c-.142.176-.07.378.154.508a.91.91,0,0,0,.222.089,1.079,1.079,0,0,0,1.034-.217L37.48,5.786c.182-.225.012-.493-.376-.6a1.078,1.078,0,0,0-1.034.217ZM41.981,11.52a1.235,1.235,0,0,0,.946.069c.37-.126.493-.4.275-.615a12.5,12.5,0,0,0-1.8-1.449,1.2,1.2,0,0,0-1.1-.047c-.326.162-.362.446-.081.634a11.379,11.379,0,0,1,1.636,1.318.612.612,0,0,0,.12.09M21.505,5.205a.5.5,0,0,0,.19.18,1.211,1.211,0,0,0,.789.11,32.708,32.708,0,0,1,10-.271c.42.054.835-.1.928-.341s-.171-.482-.591-.536a35.367,35.367,0,0,0-10.814.293c-.409.076-.635.329-.5.565m10.783,9.032a1.152,1.152,0,0,0,.618.13l2.074-.1A.892.892,0,0,0,35.618,14l4.144-5.131c.182-.225.013-.492-.376-.6a1.079,1.079,0,0,0-1.034.217L34.4,13.39l-1.626.083c-.428.022-.745.239-.707.487a.414.414,0,0,0,.225.278" transform="translate(-2.814 -1.392)" fill="#ffe950"/>
    <path id="Path_5012" data-name="Path 5012" d="M65.089,22.169c-.232-1.532-2.572-2.666-5.226-2.532-2.392.121-4.218,1.231-4.386,2.57-.022,0-.045,0-.067,0l-8.834.446-5.087-4.194a.53.53,0,0,0-.044-.03c1.669-.936,1.969-2.456.591-3.592-1.528-1.26-4.536-1.566-6.719-.684s-2.713,2.619-1.185,3.879a7.215,7.215,0,0,0,6.049.908.394.394,0,0,0,.033.034L45.3,23.169l-3.748,4.64a.354.354,0,0,0-.019.038c-2.239-.368-4.672.243-5.687,1.5-1.126,1.394-.081,3.051,2.334,3.7s5.285.047,6.411-1.347c1.015-1.257.263-2.724-1.663-3.478a.409.409,0,0,0,.034-.033l3.748-4.641,8.835-.446c.023,0,.044,0,.066-.007.569,1.3,2.7,2.213,5.092,2.091,2.654-.134,4.617-1.485,4.385-3.017" transform="translate(-20.664 -8.481)" fill="#e19100"/>
    <path id="Path_5013" data-name="Path 5013" d="M60,22.285c-2.328.118-4.106,1.174-4.356,2.465l.038,0c.023,0,.044-.005.066-.008.569,1.3,2.7,2.213,5.093,2.092,2.216-.112,3.945-1.072,4.322-2.278-.444-1.4-2.664-2.4-5.164-2.269M46.761,25.3l-.051,0-5.087-4.194a.529.529,0,0,0-.044-.03v-1a2.752,2.752,0,0,0,1.366-1.5,2.33,2.33,0,0,0-.775-1.09c-1.528-1.26-4.536-1.566-6.719-.684a3.17,3.17,0,0,0-1.976,1.777,2.366,2.366,0,0,0,.791,1.1,7.216,7.216,0,0,0,6.048.908c.011.011.02.023.033.034l5.087,4.194v1l-3.748,4.641a.268.268,0,0,0-.019.037c-2.239-.368-4.672.243-5.687,1.5a2.064,2.064,0,0,0-.369.677,3.631,3.631,0,0,0,2.7,2.022c2.415.65,5.285.047,6.411-1.347a2.016,2.016,0,0,0,.354-.673,3.192,3.192,0,0,0-2.017-1.8v-1c.011-.011.025-.021.034-.033Z" transform="translate(-20.799 -10.126)" fill="#fcba06"/>
  </g>
</svg>
