<?xml version="1.0" encoding="utf-8"?>
<!-- Generator: Adobe Illustrator 25.4.1, SVG Export Plug-In . SVG Version: 6.00 Build 0)  -->
<svg version="1.0" id="katman_1" xmlns="http://www.w3.org/2000/svg" xmlns:xlink="http://www.w3.org/1999/xlink" x="0px" y="0px"
	 viewBox="0 0 841.9 595.3" style="enable-background:new 0 0 841.9 595.3;" xml:space="preserve">
<style type="text/css">
	.st0{fill-rule:evenodd;clip-rule:evenodd;fill:#61320F;}
	.st1{fill:#FEDC90;}
	.st2{fill-rule:evenodd;clip-rule:evenodd;fill:#D1884F;}
	.st3{fill:#61320F;}
</style>
<path class="st0" d="M299.6,166.4c-5.8-31,18-59.7,49.5-59.7c27.8,0,50.4,22.6,50.4,50.4v62.1c7-0.5,14-0.7,21.2-0.7
	c6.9,0,13.7,0.2,20.4,0.7v-62.1c0-27.8,22.6-50.4,50.4-50.4c31.5,0,55.3,28.6,49.5,59.7l-13.6,73c46.8,20.4,82.2,55.9,82.2,100.5v27
	c0,36.7-24.3,67.4-58.2,88.1c-34.2,20.9-80.4,33.3-130.7,33.3S324.2,476,290,455.1c-33.9-20.7-58.2-51.4-58.2-88.1v-27
	c0-44.4,35-79.7,81.5-100.2L299.6,166.4z M510,249.1l16-85.5c4-21.5-12.5-41.4-34.4-41.4c-19.3,0-35,15.7-35,35v79.1
	c-5.1-0.6-10.2-1.2-15.4-1.5c-6.7-0.5-13.5-0.7-20.4-0.7c-7.2,0-14.3,0.3-21.2,0.8c-5.2,0.4-10.4,0.9-15.4,1.6v-79.2
	c0-19.3-15.7-35-35-35c-21.9,0-38.4,19.9-34.4,41.4l16,85.8c-50.1,18.6-83.5,52.2-83.5,90.7v27c0,58.6,77.7,106,173.5,106
	c95.8,0,173.5-47.5,173.5-106v-27C594.2,301.4,560.5,267.6,510,249.1z"/>
<path class="st1" d="M594.2,367c0,58.6-77.7,106-173.5,106c-95.8,0-173.5-47.5-173.5-106v-27h347V367z"/>
<path class="st2" d="M314.8,163.6c-4-21.5,12.5-41.4,34.4-41.4c19.3,0,35,15.7,35,35v79.2c11.8-1.6,24.1-2.4,36.6-2.4
	c12.3,0,24.3,0.8,35.8,2.3v-79.1c0-19.3,15.7-35,35-35c21.9,0,38.4,19.9,34.4,41.4l-16,85.5c50.5,18.5,84.3,52.3,84.3,90.9
	c0,58.6-77.7,106-173.5,106c-95.8,0-173.5-47.5-173.5-106c0-38.4,33.4-72.1,83.5-90.7L314.8,163.6z"/>
<path class="st3" d="M372.6,332.3c0,16-8.6,28.9-19.3,28.9c-10.6,0-19.3-12.9-19.3-28.9c0-16,8.6-28.9,19.3-28.9
	C363.9,303.4,372.6,316.3,372.6,332.3z"/>
<path class="st3" d="M505.6,332.3c0,16-8.6,28.9-19.3,28.9c-10.6,0-19.3-12.9-19.3-28.9c0-16,8.6-28.9,19.3-28.9
	C496.9,303.4,505.6,316.3,505.6,332.3z"/>
</svg>
