<svg xmlns="http://www.w3.org/2000/svg" xmlns:xlink="http://www.w3.org/1999/xlink" width="107" height="107" viewBox="0 0 107 107">
  <defs>
    <filter id="Ellipse_174" x="0" y="0" width="107" height="107" filterUnits="userSpaceOnUse">
      <feOffset dy="20" input="SourceAlpha"/>
      <feGaussianBlur stdDeviation="8.5" result="blur"/>
      <feFlood flood-color="#1c1923" flood-opacity="0.051"/>
      <feComposite operator="in" in2="blur"/>
      <feComposite in="SourceGraphic"/>
    </filter>
  </defs>
  <g id="Group_5112" data-name="Group 5112" transform="translate(-648.5 -7457.5)">
    <g transform="matrix(1, 0, 0, 1, 648.5, 7457.5)" filter="url(#Ellipse_174)">
      <circle id="Ellipse_174-2" data-name="Ellipse 174" cx="28" cy="28" r="28" transform="translate(25.5 5.5)" fill="#fff"/>
    </g>
    <g id="trophy" transform="translate(692 7481)">
      <g id="Group_80" data-name="Group 80" transform="translate(0)">
        <path id="Path_38" data-name="Path 38" d="M19,1H16V0H4V1H1A.945.945,0,0,0,0,2V4.4A4.536,4.536,0,0,0,4,8.9V9a6.015,6.015,0,0,0,4.7,5.9L8,17H5.7a.961.961,0,0,0-.9.7L4,20H16l-.8-2.3a.961.961,0,0,0-.9-.7H12l-.7-2.1A6.014,6.014,0,0,0,16,9V8.9a4.536,4.536,0,0,0,4-4.5V2A.945.945,0,0,0,19,1ZM4,6.9A2.671,2.671,0,0,1,2,4.4V3H4ZM12,10,10,8.9,8,10l.5-2L7,6H9.1L10,4l.9,2H13L11.5,8Zm6-5.6a2.58,2.58,0,0,1-2,2.5V3h2Z" transform="translate(0)" fill="#3374ea"/>
      </g>
    </g>
  </g>
</svg>
