<svg id="Group_5491" data-name="Group 5491" xmlns="http://www.w3.org/2000/svg" xmlns:xlink="http://www.w3.org/1999/xlink" width="92.588" height="63.878" viewBox="0 0 92.588 63.878">
  <defs>
    <clipPath id="clip-path">
      <rect id="Rectangle_1305" data-name="Rectangle 1305" width="92.588" height="63.878" fill="none"/>
    </clipPath>
    <clipPath id="clip-path-2">
      <path id="Path_5030" data-name="Path 5030" d="M79.028,71.474c-18.079,10.438-47.389,10.438-65.468,0C4.54,66.266.02,59.444,0,52.618V63.042C.02,69.868,4.54,76.69,13.56,81.9c18.079,10.436,47.389,10.436,65.468,0,9.04-5.22,13.56-12.06,13.56-18.9,0-.019,0-.039,0-.06h0V52.576c0,6.84-4.52,13.68-13.56,18.9M0,52.515v0" transform="translate(0 -52.515)" fill="none"/>
    </clipPath>
    <linearGradient id="linear-gradient" y1="0.934" x2="0.005" y2="0.934" gradientUnits="objectBoundingBox">
      <stop offset="0" stop-color="#fcba06"/>
      <stop offset="1" stop-color="#dc8b00"/>
    </linearGradient>
    <clipPath id="clip-path-4">
      <path id="Path_5035" data-name="Path 5035" d="M121.815,42.308l.492.092a6.968,6.968,0,0,1-2.462,2.246,15.333,15.333,0,0,1-7.206,1.806,5.068,5.068,0,0,1,.325,2.325,15.141,15.141,0,0,0,6.881-1.783c2.131-1.231,3.151-2.855,3.106-4.468h.02l.006-2.318Z" transform="translate(-112.639 -40.209)" fill="none"/>
    </clipPath>
    <linearGradient id="linear-gradient-2" x1="-5.523" y1="5.072" x2="-5.474" y2="5.072" gradientUnits="objectBoundingBox">
      <stop offset="0" stop-color="#e19100"/>
      <stop offset="1" stop-color="#dc8b00"/>
    </linearGradient>
    <clipPath id="clip-path-6">
      <path id="Path_5038" data-name="Path 5038" d="M89.23,58.377l.62.129a8.945,8.945,0,0,1-3.774,3.757c-5.282,3.05-13.6,3.293-19.372.739v2.351c5.775,2.551,14.09,2.309,19.372-.741,2.871-1.655,4.278-3.827,4.283-6l.014,0,.02-2.359Z" transform="translate(-66.704 -56.256)" fill="none"/>
    </clipPath>
    <linearGradient id="linear-gradient-3" x1="-1.43" y1="3.031" x2="-1.408" y2="3.031" xlink:href="#linear-gradient-2"/>
  </defs>
  <g id="Group_5478" data-name="Group 5478" transform="translate(0 0)">
    <g id="Group_5477" data-name="Group 5477" clip-path="url(#clip-path)">
      <path id="Path_5015" data-name="Path 5015" d="M79.028,7.828c-18.079-10.437-47.391-10.437-65.469,0C4.547,13.032.027,19.848,0,26.667c-.026,6.861,4.494,13.725,13.56,18.959,18.079,10.438,47.389,10.438,65.468,0,9.04-5.219,13.56-12.059,13.56-18.9s-4.52-13.68-13.56-18.9M16.639,43.848C.263,34.392.263,19.062,16.639,9.607s42.932-9.456,59.308,0,16.378,24.785,0,34.241-42.932,9.456-59.309,0" transform="translate(0 0)" fill="#ffe950"/>
      <path id="Path_5016" data-name="Path 5016" d="M20.863,12.045c16.378-9.456,42.932-9.456,59.308,0s16.378,24.785,0,34.241-42.932,9.456-59.309,0-16.376-24.787,0-34.241" transform="translate(-4.223 -2.438)" fill="#ffd03e"/>
      <path id="Path_5017" data-name="Path 5017" d="M28.986,68.01C22.285,64.142,18.43,59,18.137,53.531c-.012-.231.3-.426.7-.432s.736.175.748.406c.282,5.254,3.984,10.193,10.424,13.911s15,5.857,24.092,6.018c.4.007.715.2.7.432s-.347.413-.748.407c-9.468-.17-18.372-2.395-25.075-6.264" transform="translate(-8.927 -26.136)" fill="#ffe950"/>
      <path id="Path_5018" data-name="Path 5018" d="M127.41,31.523a.373.373,0,0,1-.213-.282c-.281-5.254-3.982-10.194-10.423-13.913s-15-5.856-24.092-6.018c-.4-.009-.717-.2-.7-.432s.347-.414.75-.407c9.467.17,18.371,2.395,25.074,6.264s10.555,9.012,10.848,14.481c.012.231-.3.425-.7.432a1.052,1.052,0,0,1-.536-.123" transform="translate(-45.272 -5.153)" fill="#ffe950"/>
      <path id="Path_5019" data-name="Path 5019" d="M132.807,77.27l-12.9-7.448a.313.313,0,0,1,0-.593,1.134,1.134,0,0,1,1.027,0l12.9,7.447a.314.314,0,0,1,0,.594,1.143,1.143,0,0,1-1.027,0" transform="translate(-58.915 -34.014)" fill="#ffe950"/>
      <path id="Path_5020" data-name="Path 5020" d="M125.227,65.583a.367.367,0,0,1-.212-.3c0-.233.324-.418.726-.418h6.527L140.64,69.7a.312.312,0,0,1,0,.592,1.126,1.126,0,0,1-1.026,0l-7.949-4.588h-5.924a1.066,1.066,0,0,1-.514-.122" transform="translate(-61.534 -31.929)" fill="#ffe950"/>
      <path id="Path_5021" data-name="Path 5021" d="M133.443,59.232a.361.361,0,0,1-.214-.3c0-.231.327-.419.727-.419H144.4l4.471,2.582a.314.314,0,0,1,0,.593,1.143,1.143,0,0,1-1.027,0l-4.046-2.336h-9.837a1.043,1.043,0,0,1-.513-.123" transform="translate(-65.577 -28.803)" fill="#ffe950"/>
      <path id="Path_5022" data-name="Path 5022" d="M120.726,81.2l-8.373-4.836V72.6c0-.233.327-.419.728-.419s.724.187.724.419v3.419l7.949,4.589a.313.313,0,0,1,0,.593,1.143,1.143,0,0,1-1.027,0" transform="translate(-55.301 -35.527)" fill="#ffe950"/>
      <path id="Path_5023" data-name="Path 5023" d="M105.829,85.945l-4.471-2.579V77.337c0-.23.325-.42.727-.42s.725.19.725.42v5.682l4.046,2.334a.312.312,0,0,1,0,.592,1.125,1.125,0,0,1-1.026,0" transform="translate(-49.889 -37.859)" fill="#ffe950"/>
      <path id="Path_5024" data-name="Path 5024" d="M47.49,28.01l-12.9-7.448a.312.312,0,0,1,0-.593,1.138,1.138,0,0,1,1.026,0l12.9,7.447a.314.314,0,0,1,0,.593,1.134,1.134,0,0,1-1.027,0" transform="translate(-16.921 -9.769)" fill="#ffe950"/>
      <path id="Path_5025" data-name="Path 5025" d="M59.423,24.107a.365.365,0,0,1-.213-.3V20.39L51.263,15.8a.313.313,0,0,1,0-.593,1.14,1.14,0,0,1,1.027,0l8.373,4.835v3.767c0,.233-.325.421-.726.421a1.051,1.051,0,0,1-.514-.123" transform="translate(-25.127 -7.425)" fill="#ffe950"/>
      <path id="Path_5026" data-name="Path 5026" d="M74.2,19.358a.362.362,0,0,1-.213-.3V13.381l-4.046-2.336a.312.312,0,0,1,0-.592,1.137,1.137,0,0,1,1.027,0l4.47,2.581v6.028c0,.231-.324.419-.727.419a1.045,1.045,0,0,1-.512-.123" transform="translate(-34.323 -5.085)" fill="#ffe950"/>
      <path id="Path_5027" data-name="Path 5027" d="M34.716,35.023l-8.374-4.836a.312.312,0,0,1,0-.592,1.125,1.125,0,0,1,1.027,0l7.948,4.588h5.925c.4,0,.725.188.725.419s-.324.419-.725.419Z" transform="translate(-12.861 -14.506)" fill="#ffe950"/>
      <path id="Path_5028" data-name="Path 5028" d="M22.576,43.555l-4.47-2.581a.312.312,0,0,1,0-.593,1.134,1.134,0,0,1,1.026,0l4.046,2.335h9.838c.4,0,.727.188.727.419s-.325.419-.727.419Z" transform="translate(-8.807 -19.816)" fill="#ffe950"/>
      <path id="Path_5029" data-name="Path 5029" d="M19.839,46.3l-.164-.1a36.967,36.967,0,0,1-3.736-2.459l1.154-.511A35.225,35.225,0,0,0,20.7,45.608l.163.1Zm4.472,2.226.872-.671a50.932,50.932,0,0,0,4.789,1.785l-.7.734c-1.723-.548-3.392-1.17-4.958-1.848M12.684,40.9a22.838,22.838,0,0,1-2.543-3.078l1.351-.308a22.066,22.066,0,0,0,2.455,2.974ZM34.627,51.8l.516-.785c1.771.39,3.606.711,5.453.956l-.324.817c-1.913-.253-3.812-.586-5.645-.988M8.366,34.568a15.587,15.587,0,0,1-.982-3.362l1.447-.082a15.012,15.012,0,0,0,.947,3.247ZM46.1,53.321l.127-.834c1.894.1,3.813.116,5.7.06l.075.836c-1.957.058-3.941.038-5.9-.062M7.213,27.8a14.817,14.817,0,0,1,.638-3.387l1.427.147a14.424,14.424,0,0,0-.615,3.274Zm50.65,25.177-.271-.824c1.867-.2,3.722-.486,5.517-.837l.465.795c-1.858.363-3.781.654-5.711.867M9.289,21.111a20.741,20.741,0,0,1,2.22-3.158l1.3.368a19.952,19.952,0,0,0-2.142,3.051ZM69.024,50.793l-.653-.748c1.695-.492,3.343-1.059,4.9-1.682l.828.69c-1.613.645-3.32,1.229-5.075,1.741M14.467,15A33.4,33.4,0,0,1,18.1,12.319l1.079.561a32.446,32.446,0,0,0-3.512,2.593ZM78.706,46.925l-.985-.616c.427-.229.851-.461,1.266-.7.933-.538,1.826-1.105,2.66-1.689l1.12.535c-.865.6-1.79,1.191-2.755,1.747-.428.247-.865.488-1.306.724m-58-34.968-1.027-.593a44.578,44.578,0,0,1,4.448-2.239L25,9.793a43.519,43.519,0,0,0-4.3,2.164M84.966,41.243a23.215,23.215,0,0,0,2.642-2.916l1.332.335A24.225,24.225,0,0,1,86.2,41.683ZM29.773,7.993l-.707-.733c1.714-.554,3.513-1.041,5.347-1.45l.524.781c-1.768.4-3.506.866-5.163,1.4M89.526,35.23a15.721,15.721,0,0,0,1.157-3.222l1.437.112a16.073,16.073,0,0,1-1.2,3.336ZM40.383,5.619l-.33-.817c1.912-.259,3.874-.443,5.826-.549l.135.836c-1.886.1-3.78.277-5.63.529m50.675,23.1a14.17,14.17,0,0,0-.406-3.286l1.437-.116a14.547,14.547,0,0,1,.419,3.4ZM51.714,5.011l.067-.837c1.963.051,3.935.181,5.861.388l-.263.825c-1.862-.2-3.768-.325-5.665-.375M89.465,22.218a18.677,18.677,0,0,0-1.945-3.1l1.327-.341a19.449,19.449,0,0,1,2.016,3.207ZM62.895,6.206l.46-.8c1.856.356,3.693.794,5.458,1.3l-.644.752c-1.706-.488-3.479-.909-5.273-1.255m21.953,10A30,30,0,0,0,81.5,13.545l1.114-.538a31.034,31.034,0,0,1,3.462,2.76ZM73.086,9.125l.82-.691a47.786,47.786,0,0,1,4.63,2.115l-.978.619a46.36,46.36,0,0,0-4.472-2.043" transform="translate(-3.55 -2.054)" fill="#ffe950"/>
    </g>
  </g>
  <g id="Group_5480" data-name="Group 5480" transform="translate(0 26.667)">
    <g id="Group_5479" data-name="Group 5479" clip-path="url(#clip-path-2)">
      <rect id="Rectangle_1306" data-name="Rectangle 1306" width="92.588" height="39.82" transform="translate(0 0)" fill="url(#linear-gradient)"/>
    </g>
  </g>
  <g id="Group_5482" data-name="Group 5482" transform="translate(0 0)">
    <g id="Group_5481" data-name="Group 5481" clip-path="url(#clip-path)">
      <path id="Path_5031" data-name="Path 5031" d="M118.312,25.579l.094-.055V23.175l-2.13,1.23Z" transform="translate(-57.232 -11.407)" fill="#dc8b00"/>
      <path id="Path_5032" data-name="Path 5032" d="M42.118,55.581l-4.523-2.61v2.348l2.489,1.438Z" transform="translate(-18.505 -26.073)" fill="#fcba06"/>
      <path id="Path_5033" data-name="Path 5033" d="M94.528,22.184,92.72,21.141v2.088Z" transform="translate(-45.637 -10.406)" fill="#e19100"/>
      <path id="Path_5034" data-name="Path 5034" d="M129.291,32.143a5.778,5.778,0,0,1,1.341,1.575l.918-.531v-2.35Z" transform="translate(-63.638 -15.179)" fill="#dc8b00"/>
    </g>
  </g>
  <g id="Group_5484" data-name="Group 5484" transform="translate(57.197 20.418)">
    <g id="Group_5483" data-name="Group 5483" clip-path="url(#clip-path-4)">
      <rect id="Rectangle_1308" data-name="Rectangle 1308" width="10.357" height="8.568" transform="translate(0 0)" fill="url(#linear-gradient-2)"/>
    </g>
  </g>
  <g id="Group_5486" data-name="Group 5486" transform="translate(0 0)">
    <g id="Group_5485" data-name="Group 5485" clip-path="url(#clip-path)">
      <path id="Path_5036" data-name="Path 5036" d="M90.16,31.884l2.033,1.177,5.1-2.945v-2.35Z" transform="translate(-44.377 -13.667)" fill="#dc8b00"/>
      <path id="Path_5037" data-name="Path 5037" d="M111.672,32.081,104.2,27.766v2.35l7.472,4.315a3.435,3.435,0,0,1,1.031.883c.814-1.07.481-2.359-1.031-3.232" transform="translate(-51.288 -13.667)" fill="#fcba06"/>
    </g>
  </g>
  <g id="Group_5488" data-name="Group 5488" transform="translate(33.872 28.566)">
    <g id="Group_5487" data-name="Group 5487" clip-path="url(#clip-path-6)">
      <rect id="Rectangle_1310" data-name="Rectangle 1310" width="23.689" height="11.648" transform="translate(0 0)" fill="url(#linear-gradient-3)"/>
    </g>
  </g>
  <g id="Group_5490" data-name="Group 5490" transform="translate(0 0)">
    <g id="Group_5489" data-name="Group 5489" clip-path="url(#clip-path)">
      <path id="Path_5039" data-name="Path 5039" d="M55.484,68.131v2.351l3.468,2V70.133Z" transform="translate(-27.31 -33.535)" fill="#fcba06"/>
      <path id="Path_5040" data-name="Path 5040" d="M62.314,70.827v2.349l2.229-1.284V69.54Z" transform="translate(-30.672 -34.228)" fill="#dc8b00"/>
      <path id="Path_5041" data-name="Path 5041" d="M53.23,62v2.35l1.237.714L56.5,63.886Z" transform="translate(-26.2 -30.516)" fill="#fcba06"/>
      <path id="Path_5042" data-name="Path 5042" d="M42.315,60.531v2.351l3.417,1.971V62.5Z" transform="translate(-20.828 -29.794)" fill="#fcba06"/>
      <path id="Path_5043" data-name="Path 5043" d="M49.044,63.225v2.349l2.126-1.228V62Z" transform="translate(-24.14 -30.516)" fill="#dc8b00"/>
      <path id="Path_5044" data-name="Path 5044" d="M56.994,47.85l2.034,1.173L69.813,42.8V40.447Z" transform="translate(-28.053 -19.908)" fill="#dc8b00"/>
      <path id="Path_5045" data-name="Path 5045" d="M89.709,44.763l-7.471-4.316V42.8l7.471,4.313a5.321,5.321,0,0,1,2.407,2.521c.672-1.7-.124-3.551-2.407-4.869" transform="translate(-40.478 -19.908)" fill="#fcba06"/>
      <path id="Path_5046" data-name="Path 5046" d="M71.748,42.73c3.714-2.143,5.034-5.156,3.954-7.912a15.363,15.363,0,0,0,7.206-1.806c3.712-2.145,4.124-5.48,1.25-7.891l2.259-1.305-3.469-2-2.126,1.227-3.273-1.887,2.13-1.229-3.418-1.972-2.127,1.229L69.61,16.571l-4.023,2.321L67.4,19.935,43.423,33.774l-1.807-1.043L37.6,35.055l4.523,2.61-2.127,1.229,3.417,1.973,2.126-1.228,3.27,1.888-2.126,1.226,3.468,2,2.23-1.287c5.775,2.554,14.089,2.311,19.371-.738m7.141-16.159c1.966,1.132,1.964,2.98,0,4.117a7.888,7.888,0,0,1-7.128,0l-7.47-4.314,7.129-4.118ZM54.917,40.41,47.446,36.1l12.819-7.4,7.471,4.316c3.531,2.037,3.527,5.356-.008,7.4a14.174,14.174,0,0,1-12.811,0" transform="translate(-18.505 -8.156)" fill="#ffe950"/>
    </g>
  </g>
</svg>
